<svg xmlns="http://www.w3.org/2000/svg" xmlns:xlink="http://www.w3.org/1999/xlink" fill="none" version="1.1" width="1024" height="1024" viewBox="0 0 1024 1024"><defs><clipPath id="master_svg0_227_04367"><rect x="0" y="0" width="1024" height="1024" rx="0"/></clipPath><linearGradient x1="0.07043590396642685" y1="0.4966331124305725" x2="0.5891685741742736" y2="0.5007502530656325" id="master_svg1_227_04545"><stop offset="0%" stop-color="#3A58DD" stop-opacity="0"/><stop offset="100%" stop-color="#4164FF" stop-opacity="0.8468640446662903"/></linearGradient><linearGradient x1="0.3922521471977234" y1="-0.1374761164188385" x2="0.6148550291667214" y2="0.9885752139655754" id="master_svg2_227_04546"><stop offset="0%" stop-color="#3A5EDF" stop-opacity="1"/><stop offset="54.40521240234375%" stop-color="#3A5EDF" stop-opacity="1"/><stop offset="100%" stop-color="#B6D5FF" stop-opacity="1"/></linearGradient><linearGradient x1="0.7710617780685425" y1="0.5100279450416565" x2="9.92897494737172e-10" y2="0.49999999869003114" id="master_svg3_227_04548"><stop offset="0%" stop-color="#D9EAFF" stop-opacity="1"/><stop offset="100%" stop-color="#9BBFFE" stop-opacity="1"/></linearGradient><linearGradient x1="0.7710617780685425" y1="0.5055806040763855" x2="3.156225470717698e-10" y2="0.5000000052653777" id="master_svg4_227_04549"><stop offset="0%" stop-color="#D9EAFF" stop-opacity="1"/><stop offset="100%" stop-color="#9BBFFE" stop-opacity="1"/></linearGradient><linearGradient x1="0.49737662076950073" y1="0.9429406523704529" x2="0.5153187449248602" y2="-0.013174259790487674" id="master_svg5_227_04550"><stop offset="0%" stop-color="#CAE1FF" stop-opacity="1"/><stop offset="31.87676966190338%" stop-color="#A5C7F9" stop-opacity="1"/><stop offset="99.99998807907104%" stop-color="#3258E8" stop-opacity="1"/><stop offset="100%" stop-color="#3258E8" stop-opacity="1"/></linearGradient><linearGradient x1="0.6626734137535095" y1="0.5790112018585205" x2="0.3439466725655213" y2="0.7104478247268338" id="master_svg6_227_04552"><stop offset="0%" stop-color="#9BBFFE" stop-opacity="1"/><stop offset="100%" stop-color="#D9EAFF" stop-opacity="1"/></linearGradient><linearGradient x1="0.8451846837997437" y1="0.5790112018585205" x2="0.1688629333868502" y2="0.7104478840039756" id="master_svg7_227_04553"><stop offset="0%" stop-color="#9BBFFE" stop-opacity="1"/><stop offset="100%" stop-color="#D9EAFF" stop-opacity="1"/></linearGradient><linearGradient x1="0.5879225134849548" y1="1.0158135890960693" x2="0.43257405072352323" y2="0.11841838700376298" id="master_svg8_227_04555"><stop offset="0%" stop-color="#D9EAFF" stop-opacity="1"/><stop offset="100%" stop-color="#9BBFFE" stop-opacity="1"/></linearGradient><linearGradient x1="0.3876476585865021" y1="-0.1374761164188385" x2="0.6197632490923768" y2="0.9885752047871187" id="master_svg9_227_04556"><stop offset="0%" stop-color="#3A5EDF" stop-opacity="1"/><stop offset="54.40521240234375%" stop-color="#3A5EDF" stop-opacity="1"/><stop offset="100%" stop-color="#B6D5FF" stop-opacity="1"/></linearGradient><linearGradient x1="1" y1="0.5060805678367615" x2="0.020348037119690594" y2="0.5161956331454003" id="master_svga_227_04557"><stop offset="0%" stop-color="#D9EAFF" stop-opacity="1"/><stop offset="100%" stop-color="#9BBFFE" stop-opacity="1"/></linearGradient><linearGradient x1="1" y1="0.5057850480079651" x2="0.020348034435771774" y2="0.5154085972578324" id="master_svgb_227_04558"><stop offset="0%" stop-color="#D9EAFF" stop-opacity="1"/><stop offset="100%" stop-color="#9BBFFE" stop-opacity="1"/></linearGradient><linearGradient x1="0.30779340863227844" y1="0.044170279055833817" x2="0.6793379187583923" y2="0.9505858421325684" id="master_svgc_227_04559"><stop offset="0%" stop-color="#F9DD1E" stop-opacity="1"/><stop offset="100%" stop-color="#F1C555" stop-opacity="1"/></linearGradient><radialGradient cx="0" cy="0" r="1" gradientUnits="userSpaceOnUse" id="master_svgd_227_04560" gradientTransform="translate(420.02869939804077 280.3392987251282) rotate(0) scale(22.826643705368042 22.826643705368042)"><stop offset="0%" stop-color="#BFD7FF" stop-opacity="1"/><stop offset="100%" stop-color="#7195FF" stop-opacity="1"/></radialGradient><linearGradient x1="0.7617606520652771" y1="1.0158135890960693" x2="0.29926086116247047" y2="0.11841844244950733" id="master_svge_227_04561"><stop offset="0%" stop-color="#D9EAFF" stop-opacity="1"/><stop offset="100%" stop-color="#9BBFFE" stop-opacity="1"/></linearGradient><linearGradient x1="0.36853286623954773" y1="-0.1374761164188385" x2="0.6401389132499034" y2="0.9885751956337778" id="master_svgf_227_04562"><stop offset="0%" stop-color="#3A5EDF" stop-opacity="1"/><stop offset="54.40521240234375%" stop-color="#3A5EDF" stop-opacity="1"/><stop offset="100%" stop-color="#B6D5FF" stop-opacity="1"/></linearGradient><linearGradient x1="1" y1="0.5072793960571289" x2="0.02034803962284051" y2="0.5193888013836592" id="master_svgg_227_04563"><stop offset="0%" stop-color="#D9EAFF" stop-opacity="1"/><stop offset="100%" stop-color="#9BBFFE" stop-opacity="1"/></linearGradient></defs><g clip-path="url(#master_svg0_227_04367)"><g></g><g><g><g><path d="M956,688L955.8,692L955.1,696.1L953.9,700.1L952.3,704.2L950.1,708.3L947.4,712.5L943.9,717L939.7,721.6L934.7,726.2L928.9,731L922.2,735.8L913.9,741.1L904.4,746.5L893.6,751.9L881.4,757.4L869.4,762.2L856.2,767L841.8,771.7L826,776.4L794,784.6L758.3,792L721.5,798.2L681.9,803.5L655.2,806.3L627.5,808.7L599,810.6L570.5,811.9L541.5,812.7L512,813L482.5,812.7L453.5,811.9L425,810.6L396.5,808.7L368.8,806.3L342.1,803.5L302.5,798.2L265.7,792L230,784.6L198,776.4L182.2,771.7L167.8,767L154.6,762.2L142.6,757.4L130.4,751.9L119.6,746.5L110.1,741.1L101.8,735.8L95.1,731L89.3,726.2L84.3,721.6L80.1,717L76.6,712.5L73.9,708.3L71.7,704.2L70.1,700.1L68.900002,696.1L68.199997,692L68,688L68.199997,684L68.900002,680L70.1,675.9L71.7,671.8L73.9,667.7L76.6,663.5L80.1,659L84.3,654.4L89.3,649.8L95.1,645L101.8,640.2L110.1,634.9L119.6,629.5L130.4,624.1L142.6,618.6L154.6,613.8L167.8,609L182.2,604.3L198,599.6L230,591.4L265.7,584L302.5,577.8L342.1,572.5L368.8,569.70001L396.5,567.29999L425,565.40002L453.5,564.09998L482.5,563.299988L512,563L541.5,563.299988L570.5,564.09998L599,565.40002L627.5,567.29999L655.2,569.70001L681.9,572.5L721.5,577.8L758.3,584L794,591.4L826,599.6L841.8,604.3L856.2,609L869.4,613.8L881.4,618.6L893.6,624.1L904.4,629.5L913.9,634.9L922.2,640.2L928.9,645L934.7,649.8L939.7,654.4L943.9,659L947.4,663.5L950.1,667.7L952.3,671.8L953.9,675.9L955.1,679.9L955.8,684L956,688Z" fill-rule="evenodd" fill="#F1F5FD" fill-opacity="1" style="mix-blend-mode:passthrough"/></g></g><g><path d="M49.7998046875,650L49.7998046875,671L11.2998046875,683L276.4998046875,692.8L458.4998046875,699L576.7998046875,702.7L648.3998046875,704.5L687.5998046875,705L705.9998046875,704.9L712.7998046875,704.6L714.2998046875,704.3L716.5998046875,703L720.3998046875,701.5L747.6998046875,694.2L752.6998046875,692.1L753.1998046875,691.5L752.9998046875,690.9L751.9998046875,690.3L744.5998046875,687.6L734.4998046875,685L728.0998046875,683.8L697.4998046875,679L666.3998046875,675L568.2998046875,663.5L379.5998046875,651.9L325.0998046875,648.9L188.5998046875,642.09998L105.9998046875,638.5L100.6998046875,638.5L94.0998046875,639.099976L85.9998046875,640.40002L75.9998046875,642.59998L64.0998046875,645.70001L49.7998046875,650Z" fill-rule="evenodd" fill="url(#master_svg1_227_04545)" fill-opacity="1" style="mix-blend-mode:passthrough"/></g></g><g><path d="M321,396.5L350,401L268.8,565.2L349.6,573.8L349.6,492L376,495.9L376,576.6L384,577.5L384,610L376,609.1L376,671L349.6,668L349.6,606.2L236,593.8L236,561.8L321,396.5Z" fill-rule="evenodd" fill="url(#master_svg2_227_04546)" fill-opacity="1" style="mix-blend-mode:passthrough"/></g><g><g><g><path d="M349.7998046875,574L265.2998046875,565L283.4998046875,557L349.7998046875,564L349.7998046875,574Z" fill-rule="evenodd" fill="#7A7A7A" fill-opacity="1" style="mix-blend-mode:passthrough"/></g></g><g><path d="M349.7998046875,574L265.2998046875,565L283.4998046875,557L349.7998046875,564L349.7998046875,574Z" fill-rule="evenodd" fill="url(#master_svg3_227_04548)" fill-opacity="1" style="mix-blend-mode:passthrough"/></g></g><g><g><g><path d="M764,449.7998046875L624,434.4998146875L642,426.7998046875L762.9,439.4998046875L777.3,441.2998046875L764,449.7998046875Z" fill-rule="evenodd" fill="#7A7A7A" fill-opacity="1" style="mix-blend-mode:passthrough"/></g></g><g><path d="M764,449.7998046875L624,434.4998146875L642,426.7998046875L762.9,439.4998046875L777.3,441.2998046875L764,449.7998046875Z" fill-rule="evenodd" fill="url(#master_svg4_227_04549)" fill-opacity="1" style="mix-blend-mode:passthrough"/></g></g><g><path d="M376.100006,495.7999838964844L389.3,487.3999938964844L389.2,662.5999938964844L376,670.9999938964844L376.100006,495.7999838964844Z" fill-rule="evenodd" fill="url(#master_svg5_227_04550)" fill-opacity="1" style="mix-blend-mode:passthrough"/></g><g><g><g><path d="M349.6998046875,400.7998046875L363.4998046875,392.7998046875L283.4998046875,556.9998046875L265.2998046875,564.9998046875L349.6998046875,400.7998046875Z" fill-rule="evenodd" fill="#B4B4B4" fill-opacity="1" style="mix-blend-mode:passthrough"/></g></g><g><path d="M349.6998046875,400.7998046875L363.4998046875,392.7998046875L283.4998046875,556.9998046875L265.2998046875,564.9998046875L349.6998046875,400.7998046875Z" fill-rule="evenodd" fill="url(#master_svg6_227_04552)" fill-opacity="1" style="mix-blend-mode:passthrough"/></g></g><g><g><g><path d="M777.1998046875,441.2998046875L777.2998046875,478.4998046875L702.4998046875,544.2998046875L691.7998046875,543.2998046875L763.9998046875,478.6998046875L763.9998046875,449.7998046875L777.1998046875,441.2998046875Z" fill-rule="evenodd" fill="#B4B4B4" fill-opacity="1" style="mix-blend-mode:passthrough"/></g></g><g><path d="M777.1998046875,441.2998046875L777.2998046875,478.4998046875L702.4998046875,544.2998046875L691.7998046875,543.2998046875L763.9998046875,478.6998046875L763.9998046875,449.7998046875L777.1998046875,441.2998046875Z" fill-rule="evenodd" fill="url(#master_svg7_227_04553)" fill-opacity="1" style="mix-blend-mode:passthrough"/></g></g><g><g><g><path d="M512.8,415.4999998964844L519.3,416.1000058964844L525.5,417.1000038964844L531.5,418.5000038964844L537.2,420.2999838964844L542.6,422.3999938964844L547.9,425.0000038964844L552.9,427.79999389648435L557.6,430.9999938964844L562,434.3999938964844L566.1,438.1999938964844L569.9,442.29999389648435L573.3,446.59999389648436L576.4,451.1999938964844L579.1,456.09999389648436L581.5,461.1999938964844L583.4,466.3999938964844L584.9,471.79999389648435L586.1,477.4999938964844L586.7,483.3999938964844L587,489.4999938964844L587,609.4999938964844L586.7,615.5999938964844L586,621.4999938964844L584.9,627.1999938964843L583.3,632.6999938964843L581.2,638.0999938964844L578.8,643.2999938964844L576,648.1999938964843L572.8,652.8999938964844L569.3,657.2999938964844L565.5,661.4999938964844L561.3,665.2999938964844L556.9,668.7999938964844L552.2,671.9999938964844L547.3,674.7999938964844L542.1,677.1999938964843L536.7,679.2999938964844L531.2,680.8999938964844L525.5,681.9999938964844L519.6,682.6999938964843L506,682.9999938964844L498.8,682.4999938964844L492.4,680.9999938964844L486.3,678.9999938964844L480.6,676.4999938964844L475.1,673.4999938964844L469.9,669.9999938964844L465.1,666.1999938964843L460.7,661.8999938964844L456.5,657.1999938964843L452.8,652.0999938964844L449.60001,646.7999938964844L446.79999,641.1999938964843L444.39999,635.1999938964843L442.5,629.0999938964844L441.10001,622.7999938964844L440.299988,616.2999938964844L440,609.4999938964844L440,489.4999938964844L440.200012,482.6999938964844L440.799988,476.09999389648436L441.79999,469.79999389648435L443.20001,463.79999389648435L445,457.6999938964844L447.20001,452.09999389648436L449.79999,446.79999389648435L452.8,441.79999389648435L456.2,437.09999389648436L460,432.79999389648435L464.2,428.9999938964844L468.8,425.4999938964844L473.7,422.5000038964844L479,420.0000038964844L484.9,418.0000038964844L491.3,416.5000038964844L494.8,415.9999998964844L505.9,415.3999938964844L512.8,415.4999998964844ZM513.5,450.09999389648436L505.5,450.8999938964844L498.2,453.1999938964844L491.5,456.79999389648435L485.6,461.59999389648436L480.8,467.4999938964844L477.2,474.1999938964844L474.9,481.4999938964844L474.1,489.4999938964844L474.1,609.4999938964844L474.9,617.4999938964844L475.9,621.1999938964843L478.9,628.2999938964844L483.1,634.5999938964844L488.4,639.8999938964844L494.7,644.0999938964844L498.2,645.7999938964844L505.5,648.0999938964844L509.4,648.6999938964843L513.5,648.8999938964844L517.6,648.6999938964843L525.2,647.0999938964844L532.3,644.0999938964844L538.6,639.8999938964844L543.9,634.5999938964844L546.2,631.4999938964844L549.8,624.7999938964844L552.1,617.4999938964844L552.9,609.4999938964844L552.9,489.4999938964844L552.1,481.4999938964844L551.1,477.79999389648435L548.1,470.6999938964844L543.9,464.3999938964844L538.6,459.09999389648436L532.3,454.8999938964844L525.2,451.8999938964844L517.6,450.29999389648435L513.5,450.09999389648436Z" fill="#979797" fill-opacity="1" style="mix-blend-mode:passthrough"/></g></g><g><path d="M512.8,415.4999998964844L519.3,416.1000058964844L525.5,417.1000038964844L531.5,418.5000038964844L537.2,420.2999838964844L542.6,422.3999938964844L547.9,425.0000038964844L552.9,427.79999389648435L557.6,430.9999938964844L562,434.3999938964844L566.1,438.1999938964844L569.9,442.29999389648435L573.3,446.59999389648436L576.4,451.1999938964844L579.1,456.09999389648436L581.5,461.1999938964844L583.4,466.3999938964844L584.9,471.79999389648435L586.1,477.4999938964844L586.7,483.3999938964844L587,489.4999938964844L587,609.4999938964844L586.7,615.5999938964844L586,621.4999938964844L584.9,627.1999938964843L583.3,632.6999938964843L581.2,638.0999938964844L578.8,643.2999938964844L576,648.1999938964843L572.8,652.8999938964844L569.3,657.2999938964844L565.5,661.4999938964844L561.3,665.2999938964844L556.9,668.7999938964844L552.2,671.9999938964844L547.3,674.7999938964844L542.1,677.1999938964843L536.7,679.2999938964844L531.2,680.8999938964844L525.5,681.9999938964844L519.6,682.6999938964843L506,682.9999938964844L498.8,682.4999938964844L492.4,680.9999938964844L486.3,678.9999938964844L480.6,676.4999938964844L475.1,673.4999938964844L469.9,669.9999938964844L465.1,666.1999938964843L460.7,661.8999938964844L456.5,657.1999938964843L452.8,652.0999938964844L449.60001,646.7999938964844L446.79999,641.1999938964843L444.39999,635.1999938964843L442.5,629.0999938964844L441.10001,622.7999938964844L440.299988,616.2999938964844L440,609.4999938964844L440,489.4999938964844L440.200012,482.6999938964844L440.799988,476.09999389648436L441.79999,469.79999389648435L443.20001,463.79999389648435L445,457.6999938964844L447.20001,452.09999389648436L449.79999,446.79999389648435L452.8,441.79999389648435L456.2,437.09999389648436L460,432.79999389648435L464.2,428.9999938964844L468.8,425.4999938964844L473.7,422.5000038964844L479,420.0000038964844L484.9,418.0000038964844L491.3,416.5000038964844L494.8,415.9999998964844L505.9,415.3999938964844L512.8,415.4999998964844ZM513.5,450.09999389648436L505.5,450.8999938964844L498.2,453.1999938964844L491.5,456.79999389648435L485.6,461.59999389648436L480.8,467.4999938964844L477.2,474.1999938964844L474.9,481.4999938964844L474.1,489.4999938964844L474.1,609.4999938964844L474.9,617.4999938964844L475.9,621.1999938964843L478.9,628.2999938964844L483.1,634.5999938964844L488.4,639.8999938964844L494.7,644.0999938964844L498.2,645.7999938964844L505.5,648.0999938964844L509.4,648.6999938964843L513.5,648.8999938964844L517.6,648.6999938964843L525.2,647.0999938964844L532.3,644.0999938964844L538.6,639.8999938964844L543.9,634.5999938964844L546.2,631.4999938964844L549.8,624.7999938964844L552.1,617.4999938964844L552.9,609.4999938964844L552.9,489.4999938964844L552.1,481.4999938964844L551.1,477.79999389648435L548.1,470.6999938964844L543.9,464.3999938964844L538.6,459.09999389648436L532.3,454.8999938964844L525.2,451.8999938964844L517.6,450.29999389648435L513.5,450.09999389648436Z" fill="url(#master_svg8_227_04555)" fill-opacity="1" style="mix-blend-mode:passthrough"/></g></g><g><path d="M500.5,416L506.6,416.299988L512.5,417L518.2,418.10001L523.7,419.70001L529.1,421.79999L534.3,424.20001L539.2,427L543.9,430.2L548.3,433.7L552.5,437.5L556.3,441.7L559.8,446.1L563,450.8L565.8,455.7L568.2,460.9L570.3,466.3L571.9,471.8L573,477.5L573.7,483.4L574,489.5L574,609.5L573.7,615.6L573,621.5L571.9,627.2L570.3,632.7L568.2,638.1L565.8,643.3L563,648.2L559.8,652.9L556.3,657.3L552.5,661.5L548.3,665.3L543.9,668.8L539.2,672L534.3,674.8L529.1,677.2L523.7,679.3L518.2,680.9L512.5,682L506.6,682.7L500.5,683L494.4,682.7L488.5,682L482.8,680.9L477.3,679.3L471.9,677.2L466.7,674.8L461.8,672L457.1,668.8L452.7,665.3L448.5,661.5L444.7,657.3L441.2,652.9L438,648.2L435.20001,643.3L432.79999,638.1L430.70001,632.7L429.10001,627.2L428,621.5L427.299988,615.6L427,609.5L427,489.5L427.299988,483.4L428,477.5L429.10001,471.8L430.70001,466.3L432.79999,460.9L435.20001,455.7L438,450.8L441.2,446.1L444.7,441.7L448.5,437.5L452.7,433.7L457.1,430.2L461.8,427L466.7,424.20001L471.9,421.79999L477.3,419.70001L482.8,418.10001L488.5,417L494.4,416.299988L500.5,416ZM500.5,450.1L492.5,450.9L485.2,453.2L478.5,456.8L472.6,461.6L467.8,467.5L464.2,474.2L461.9,481.5L461.1,489.5L461.1,609.5L461.9,617.5L462.9,621.2L465.9,628.3L470.1,634.6L475.4,639.9L481.7,644.1L485.2,645.8L492.5,648.1L496.4,648.7L500.5,648.9L504.6,648.7L512.2,647.1L519.3,644.1L525.6,639.9L530.9,634.6L533.2,631.5L536.8,624.8L539.1,617.5L539.9,609.5L539.9,489.5L539.1,481.5L538.1,477.8L535.1,470.7L530.9,464.4L525.6,459.1L519.3,454.9L512.2,451.9L504.6,450.3L500.5,450.1Z" fill="url(#master_svg9_227_04556)" fill-opacity="1" style="mix-blend-mode:passthrough"/></g><g><g><g><path d="M366.20000610351565,485L389.3000061035156,487.5L376.0000061035156,496L349.6000061035156,492.29999L366.20000610351565,485Z" fill-rule="evenodd" fill="#7A7A7A" fill-opacity="1" style="mix-blend-mode:passthrough"/></g></g><g><path d="M366.20000610351565,485L389.3000061035156,487.5L376.0000061035156,496L349.6000061035156,492.29999L366.20000610351565,485Z" fill-rule="evenodd" fill="url(#master_svga_227_04557)" fill-opacity="1" style="mix-blend-mode:passthrough"/></g></g><g><g><g><path d="M333.8,389.5L363.5,392.79999L349.6,401L321,396.60001L333.8,389.5Z" fill-rule="evenodd" fill="#7A7A7A" fill-opacity="1" style="mix-blend-mode:passthrough"/></g></g><g><path d="M333.8,389.5L363.5,392.79999L349.6,401L321,396.60001L333.8,389.5Z" fill-rule="evenodd" fill="url(#master_svgb_227_04558)" fill-opacity="1" style="mix-blend-mode:passthrough"/></g></g><g><path d="M830.2338,447.9022L833.8924,448.9644L834.2178,448.9923L838,449.3165L842.1076,448.9644L845.7662,447.9022L849.2624,446.2706L852.4348,444.0382L855.0382,441.43489999999997L857.2707,438.2624L858.9022,434.7662L859.9644,431.1076L860.3165,427L859.9644,422.8924L858.9022,419.2338L857.2707,415.73757L855.0382,412.56514L852.4348,409.96181L849.2624,407.729352L845.7662,406.09781L842.1076,405.03561L838,404.68354L833.8924,405.03561L830.2338,406.09781L826.73761,407.729352L823.56515,409.96181L820.96182,412.56514L818.729323,415.73757L817.09781,419.2338L816.0356,422.8924L815.68354,427L816.0356,431.1076L817.09781,434.7662L818.729323,438.2624L820.96182,441.43489999999997L823.56515,444.0382L826.73761,446.2706L830.2338,447.9022ZM835.1076,442.4356L832.5663,441.69780000000003L830.0624,440.5293L827.83487,438.9618L826.40191,437.5288L852.8422,422.0637L853.4356,424.1076L853.6835,427L853.4356,429.8924L852.6978,432.4338L851.5294,434.9376L849.9618,437.1651L848.1651,438.9618L845.9376,440.5293L843.4337,441.69780000000003L840.8924,442.4356L838,442.6835L835.1076,442.4356ZM849.4933,416.36638L823.11656,431.7943L822.56437,429.8924L822.31646,427L822.56437,424.1076L823.30222,421.5662L824.47063,419.0624L826.03818,416.83489L827.83487,415.03819L830.0624,413.47066L832.5663,412.30221L835.1076,411.56437L838,411.31646L840.8924,411.56437L843.4337,412.30221L845.9376,413.47066L848.1651,415.03819L849.4933,416.36638Z" fill-rule="evenodd" fill="url(#master_svgc_227_04559)" fill-opacity="1" style="mix-blend-mode:passthrough"/></g><g><path d="M443,277L442.7,280.3L441.9,283.3L440.5,286.1L438.8,288.6L436.6,290.8L434.1,292.5L431.3,293.9L428.3,294.7L425,295L421.7,294.7L418.7,293.9L415.89999,292.5L413.39999,290.8L411.20001,288.6L409.5,286.1L408.10001,283.3L407.299988,280.3L407,277L407.299988,273.7L408.10001,270.7L409.5,267.89999L411.20001,265.39999L413.39999,263.20001L415.89999,261.5L418.7,260.10001L421.7,259.299988L425,259L428.3,259.299988L431.3,260.10001L434.1,261.5L436.6,263.20001L438.8,265.39999L440.5,267.89999L441.9,270.7L442.7,273.7L443,277Z" fill-rule="evenodd" fill="url(#master_svgd_227_04560)" fill-opacity="1" style="mix-blend-mode:passthrough"/></g><g><path d="M708.8,538.5L723.4,541.20001L729.9,543L736,545.20001L741.8,547.90002L747.4,551.1L752.6,554.6L757.4,558.5L761.9,562.7L766.1,567.3L769.9,572.1L773.4,577.2L776.6,582.5L781.7,593.8L783.8,599.6L786.8,611.7L787.7,617.7L788.5,630L788.3,636.7L787.6,643.1L786.5,649.2L784.9,655.1L782.9,660.9L780.5,666.4L777.7,671.6L774.5,676.5L770.9,681.1L766.8,685.3L762.4,689.2L757.5,692.7L752.4,695.8L746.8,698.5L740.8,700.8L734.2,702.7L727.7,704L720.7,704.8L713.1,705.2L705,705L698.5,704.4L692.5,703.4L686.8,702.1L681.6,700.4L676.7,698.4L670.7,695.4L665.2,692L660.2,688.1L655.7,683.9L651.5,679.3L647.7,674.3L644.3,669.1L641.3,663.6L636.5,651.9L634.59998,645.8L633.09998,639.4L631.70001,630.9L630.799988,622.3L630.5,613.7L650,611L650.5,620.3L651,624.7L652,629L653.5,633.1L657.4,641.1L663.9,650.2L668.3,655.3L672.1,659L676.4,662.5L681.2,665.8L686.3,668.7L691.6,671.2L697.1,673.3L702.8,674.9L708.4,676L714,676.5L720.2,676.6L725.9,676.1L731.2,675.3L736.1,674L740.9,672.3L745.3,670.2L749.2,667.7L752.8,664.9L756,661.7L758.8,658.2L761.3,654.3L763.3,650L764.9,645.6L766,640.8L766.7,635.6L767,630L766.7,624.5L765.9,619.2L764.5,614L762.6,609.1L760.3,604.3L757.5,599.8L754.3,595.5L750.6,591.4L746.6,587.7L742.3,584.3L737.6,581.3L732.5,578.6L727.2,576.3L721.7,574.5L715.9,573L709.7,572L713.2,551L691.8,543L708.8,538.5Z" fill="url(#master_svge_227_04561)" fill-opacity="1" style="mix-blend-mode:passthrough"/></g><g><path d="M624,434.7001953125L764,449.8001953125L764,479.5001953125L691.9,543.0001953125L704,543.8001953125L710.3,545.0001953125L716.4,546.7001953125L722.4,548.9001953125L728.1,551.6001953125L733.6,554.8001953125L738.9,558.4001953125L743.9,562.5001953125L748.6,566.9001953125L753,571.6001953125L757.1,576.6001953125L760.9,582.0001953125L764.3,587.6001953125L767.3,593.4001953125L769.8,599.4001953125L772,605.6001953125L773.7,612.0001953125L775,618.4001953125L775.7,624.9001953125L776,631.4001953125L775.7,638.3001953125L774.9,644.9001953125L773.6,651.1001953125L771.8,657.1001953125L769.5,662.9001953125L766.8,668.4001953125L763.6,673.6001953125L760.1,678.4001953125L756.1,683.0001953125L751.9,687.1001953125L747.2,690.9001953125L742.3,694.3001953125L737.1,697.2001953125L731.6,699.7001953125L725.8,701.7001953125L719.8,703.3001953125L713.7,704.4001953125L707.3,704.9001953125L700.8,704.9001953125L694,704.4001953125L687.4,703.3001953125L681.1,701.7001953125L674.9,699.7001953125L668.9,697.2001953125L663.1,694.3001953125L657.6,691.0001953125L652.3,687.3001953125L647.3,683.2001953125L642.5,678.8001953125L638.1,674.1001953125L634,669.1001953125L630.2,663.8001953125L626.8,658.3001953125L623.79999,652.6001953125L621.20001,646.6001953125L619,640.5001953125L617.29999,634.2001953125L616,627.8001953125L615.299988,621.3001953125L615,614.6001953125L639.9,614.6001953125L640.1,619.4001953125L641.6,628.6001953125L642.9,633.1001953125L645,639.0001953125L647.8,644.6001953125L651,649.9001953125L654.7,655.0001953125L658.8,659.7001953125L663.4,664.0001953125L668.3,667.9001953125L673.5,671.3001953125L679,674.2001953125L687.8,677.4001953125L697,679.4001953125L702.7,679.8001953125L708.1,679.6001953125L713.3,678.9001953125L718.2,677.7001953125L723,676.0001953125L727.4,673.8001953125L731.5,671.2001953125L735.4,668.2001953125L738.8,664.8001953125L741.9,661.0001953125L744.6,656.8001953125L746.9,652.3001953125L748.7,647.6001953125L750,642.5001953125L750.8,637.2001953125L751.1,631.4001953125L750.8,625.7001953125L750.1,620.2001953125L749,614.8001953125L747.4,609.6001953125L745.4,604.5001953125L743,599.7001953125L740.1,595.2001953125L736.9,590.9001953125L733.3,586.9001953125L729.3,583.3001953125L725,580.0001953125L720.3,577.1001953125L715.3,574.7001953125L710,572.7001953125L704.4,571.1001953125L698.2,570.1001953125L648.8,567.3001953125L648.8,541.0001953125L649.1,541.0001953125L727.4,475.7001953125L624,465.0001953125L624,434.7001953125Z" fill-rule="evenodd" fill="url(#master_svgf_227_04562)" fill-opacity="1" style="mix-blend-mode:passthrough"/></g><g><g><g><path d="M627.9,607.60009765625L650,611.00011765625L640,618.30009765625L615,614.50011765625L627.9,607.60009765625Z" fill-rule="evenodd" fill="#7A7A7A" fill-opacity="1" style="mix-blend-mode:passthrough"/></g></g><g><path d="M627.9,607.60009765625L650,611.00011765625L640,618.30009765625L615,614.50011765625L627.9,607.60009765625Z" fill-rule="evenodd" fill="url(#master_svgg_227_04563)" fill-opacity="1" style="mix-blend-mode:passthrough"/></g></g></g></svg>