<svg xmlns="http://www.w3.org/2000/svg" xmlns:xlink="http://www.w3.org/1999/xlink" fill="none" version="1.1" width="1024" height="1024" viewBox="0 0 1024 1024"><defs><clipPath id="master_svg0_227_04116"><rect x="0" y="0" width="1024" height="1024" rx="0"/></clipPath><linearGradient x1="0.07043590396642685" y1="0.49142780900001526" x2="0.5891686147757014" y2="0.5019101630064924" id="master_svg1_227_04186"><stop offset="0%" stop-color="#3A58DD" stop-opacity="0"/><stop offset="100%" stop-color="#4164FF" stop-opacity="0.8468640446662903"/></linearGradient><linearGradient x1="0.5395553112030029" y1="0.25482720136642456" x2="0.8237814873333563" y2="0.9580965657744211" id="master_svg2_227_04187"><stop offset="0%" stop-color="#3A58DD" stop-opacity="1"/><stop offset="65.72571396827698%" stop-color="#7192F3" stop-opacity="1"/><stop offset="100%" stop-color="#92C5FF" stop-opacity="1"/></linearGradient><linearGradient x1="0.66107177734375" y1="0.2921704947948456" x2="0.36525361537797607" y2="0.7450807007698272" id="master_svg3_227_04188"><stop offset="0%" stop-color="#2362FF" stop-opacity="1"/><stop offset="100%" stop-color="#CCE4FF" stop-opacity="1"/></linearGradient><linearGradient x1="0.07662280648946762" y1="0.5225160121917725" x2="0.8970506199697844" y2="0.43455156873686995" id="master_svg4_227_04189"><stop offset="0%" stop-color="#F6FAFF" stop-opacity="1"/><stop offset="100%" stop-color="#DAEBFF" stop-opacity="1"/></linearGradient><linearGradient x1="0.9757159352302551" y1="0.4772624671459198" x2="0.04511571328193544" y2="0.5137280758043665" id="master_svg5_227_04190"><stop offset="0%" stop-color="#FBFDFF" stop-opacity="1"/><stop offset="9.339488297700882%" stop-color="#FFFFFF" stop-opacity="1"/><stop offset="100%" stop-color="#DAEBFF" stop-opacity="1"/></linearGradient><linearGradient x1="1" y1="0.5191497206687927" x2="0.020348037169565035" y2="0.5510056108325926" id="master_svg6_227_04191"><stop offset="0%" stop-color="#9BBFFE" stop-opacity="1"/><stop offset="100%" stop-color="#D9EAFF" stop-opacity="1"/></linearGradient><linearGradient x1="2.462853908562489e-16" y1="0.4930531978607178" x2="0.9999999926011313" y2="0.4625428934753941" id="master_svg7_227_04192"><stop offset="0%" stop-color="#CDE2FF" stop-opacity="1"/><stop offset="100%" stop-color="#9BBFFE" stop-opacity="1"/></linearGradient><linearGradient x1="0.5" y1="0" x2="0.5848646452778038" y2="0.9999999638950097" id="master_svg8_227_04193"><stop offset="0%" stop-color="#F7E184" stop-opacity="1"/><stop offset="100%" stop-color="#FF9558" stop-opacity="1"/></linearGradient><linearGradient x1="0.5295313596725464" y1="0.05339351296424866" x2="0.3529905666951541" y2="1.0000000264366358" id="master_svg9_227_04194"><stop offset="0%" stop-color="#F7DF76" stop-opacity="1"/><stop offset="100%" stop-color="#EEB765" stop-opacity="1"/></linearGradient><linearGradient x1="1.0248329639434814" y1="0.2273920625448227" x2="0.05477870804102544" y2="0.9999984057393354" id="master_svga_227_04195"><stop offset="0%" stop-color="#F6DC75" stop-opacity="1"/><stop offset="100%" stop-color="#EFBD68" stop-opacity="1"/></linearGradient><radialGradient cx="0" cy="0" r="1" gradientUnits="userSpaceOnUse" id="master_svgb_227_04196" gradientTransform="translate(170.21915781497955 480.37550723552704) rotate(0) scale(19.656276524066925 19.656276524066925)"><stop offset="0%" stop-color="#BFD7FF" stop-opacity="1"/><stop offset="100%" stop-color="#7195FF" stop-opacity="1"/></radialGradient></defs><g clip-path="url(#master_svg0_227_04116)"><g></g><g><g><g><g><path d="M956,713L955.8,717L955.1,721.1L953.9,725.1L952.3,729.2L950.1,733.3L947.4,737.5L943.9,742L939.7,746.6L934.7,751.2L928.9,756L922.2,760.8L913.9,766.1L904.4,771.5L893.6,776.9L881.4,782.4L869.4,787.2L856.2,792L841.8,796.7L826,801.4L794,809.6L758.3,817L721.5,823.2L681.9,828.5L655.2,831.3L627.5,833.7L599,835.6L570.5,836.9L541.5,837.7L512,838L482.5,837.7L453.5,836.9L425,835.6L396.5,833.7L368.8,831.3L342.1,828.5L302.5,823.2L265.7,817L230,809.6L198,801.4L182.2,796.7L167.8,792L154.6,787.2L142.6,782.4L130.4,776.9L119.6,771.5L110.1,766.1L101.8,760.8L95.1,756L89.3,751.2L84.3,746.6L80.1,742L76.6,737.5L73.9,733.3L71.7,729.2L70.1,725.1L68.900002,721.1L68.199997,717L68,713L68.199997,709L68.900002,705L70.1,700.9L71.7,696.8L73.9,692.7L76.6,688.5L80.1,684L84.3,679.4L89.3,674.8L95.1,670L101.8,665.2L110.1,659.9L119.6,654.5L130.4,649.1L142.6,643.6L154.6,638.8L167.8,634L182.2,629.3L198,624.6L230,616.4L265.7,609L302.5,602.8L342.1,597.5L368.8,594.70001L396.5,592.29999L425,590.40002L453.5,589.09998L482.5,588.299988L512,588L541.5,588.299988L570.5,589.09998L599,590.40002L627.5,592.29999L655.2,594.70001L681.9,597.5L721.5,602.8L758.3,609L794,616.4L826,624.6L841.8,629.3L856.2,634L869.4,638.8L881.4,643.6L893.6,649.1L904.4,654.5L913.9,659.9L922.2,665.2L928.9,670L934.7,674.8L939.7,679.4L943.9,684L947.4,688.5L950.1,692.7L952.3,696.8L953.9,700.9L955.1,705L955.8,709L956,713Z" fill-rule="evenodd" fill="#F1F5FD" fill-opacity="1" style="mix-blend-mode:passthrough"/></g></g><g><path d="M58.9,695.29990234375L42.6,717.89990234375L8,761.19990234375L555,752.49990234375L385.1,682.89990234375L58.9,695.29990234375Z" fill-rule="evenodd" fill="url(#master_svg1_227_04186)" fill-opacity="1" style="mix-blend-mode:passthrough"/></g></g><g><path d="M282,441L560,477.7L555,752.5L295.3,721.2L290.5,719.8L288.5,718.6L285,715.3L282.799988,711.1L282,706.2L282,441Z" fill-rule="evenodd" fill="url(#master_svg2_227_04187)" fill-opacity="1" style="mix-blend-mode:passthrough"/></g><g><g><path d="M736.2,404L555,483.1L555,753L727,680.1L729.6,678.7L731.8,676.8L733.7,674.6L735,672L735.9,669.3L736.2,666.3L736.2,404Z" fill-rule="evenodd" fill="url(#master_svg3_227_04188)" fill-opacity="1" style="mix-blend-mode:passthrough"/></g></g><g><path d="M555,483.1L736.2,404L791.4,485.1L792.6,487.2L793.6,491.6L793.2,496L792.4,498.1L791.3,500.1L789.8,501.8L786.2,504.4L637,576.3L633.1,577.4L629.1,577.4L625.3,576.1L622.1,573.8L555,483.1Z" fill-rule="evenodd" fill="url(#master_svg4_227_04189)" fill-opacity="1" style="mix-blend-mode:passthrough"/></g><g><g><path d="M560.0000030517579,477.5L281.90000305175784,440L226.8000030517578,515.8L225.5000030517578,517.9L224.6999970517578,520L224.3000030517578,522.3L224.60000605175782,526.7L226.3999930517578,530.8L227.8000030517578,532.6L229.69999305175782,534.2L231.5000030517578,535.3L235.4000030517578,536.6L480.0000030517578,573.8L482.40000305175784,573.9L484.8000030517578,573.7L487.0000030517578,573L489.1000030517578,571.9L491.0000030517578,570.4L492.6000030517578,568.6L560.0000030517579,477.5Z" fill-rule="evenodd" fill="url(#master_svg5_227_04190)" fill-opacity="1" style="mix-blend-mode:passthrough"/></g></g><g><path d="M282,440L477,374L477,470L282,440Z" fill-rule="evenodd" fill="url(#master_svg6_227_04191)" fill-opacity="1" style="mix-blend-mode:passthrough"/></g><g><path d="M477,374L736.2,404L555.3,483L477,469.3L477,374Z" fill-rule="evenodd" fill="url(#master_svg7_227_04192)" fill-opacity="1" style="mix-blend-mode:passthrough"/></g><g><path d="M622.60009765625,313.2001953125L606.60009765625,329.9001953125L631.70009765625,374.0001953125L622.60009765625,313.2001953125Z" fill-rule="evenodd" fill="url(#master_svg8_227_04193)" fill-opacity="1" style="mix-blend-mode:passthrough"/></g><g><path d="M645.5999722070312,303.5L677.5000122070312,317.9L639.2000122070312,374L645.5999722070312,303.5Z" fill-rule="evenodd" fill="url(#master_svg9_227_04194)" fill-opacity="1" style="mix-blend-mode:passthrough"/></g><g><path d="M684.1,338L688.5,359.3L649.5,379.4L684.1,338Z" fill-rule="evenodd" fill="url(#master_svga_227_04195)" fill-opacity="1" style="mix-blend-mode:passthrough"/></g><g><path d="M190,477.5L189.7,480.3L189,482.9L187.9,485.3L186.3,487.5L184.5,489.3L182.3,490.9L179.9,492L177.3,492.7L174.5,493L171.7,492.7L169.1,492L166.7,490.9L164.5,489.3L162.7,487.5L161.10001,485.3L160,482.9L159.300003,480.3L159,477.5L159.300003,474.7L160,472.1L161.10001,469.70001L162.7,467.5L164.5,465.70001L166.7,464.09998L169.1,463L171.7,462.299988L174.5,462L177.3,462.299988L179.9,463L182.3,464.09998L184.5,465.70001L186.3,467.5L187.9,469.70001L189,472.1L189.7,474.7L190,477.5Z" fill-rule="evenodd" fill="url(#master_svgb_227_04196)" fill-opacity="1" style="mix-blend-mode:passthrough"/></g></g></g></svg>