<svg xmlns="http://www.w3.org/2000/svg" xmlns:xlink="http://www.w3.org/1999/xlink" fill="none" version="1.1" width="1024" height="1024" viewBox="0 0 1024 1024"><defs><clipPath id="master_svg0_227_04161"><rect x="0" y="0" width="1024" height="1024" rx="0"/></clipPath><linearGradient x1="0.07043590396642685" y1="0.4848202168941498" x2="0.5891686189226336" y2="0.5033824937165257" id="master_svg1_227_04299"><stop offset="0%" stop-color="#3A58DD" stop-opacity="0"/><stop offset="100%" stop-color="#4164FF" stop-opacity="0.8468640446662903"/></linearGradient><linearGradient x1="0.7222671508789062" y1="-1.7145039524928997e-15" x2="0.6390368888819585" y2="1.2213215366515682" id="master_svg2_227_04300"><stop offset="0%" stop-color="#F7DF76" stop-opacity="1"/><stop offset="100%" stop-color="#EEB765" stop-opacity="1"/></linearGradient><linearGradient x1="0.795917809009552" y1="-1.7145039524928997e-15" x2="0.6851067995302832" y2="1.2213215110401519" id="master_svg3_227_04301"><stop offset="0%" stop-color="#F7DF76" stop-opacity="1"/><stop offset="100%" stop-color="#EEB765" stop-opacity="1"/></linearGradient><linearGradient x1="1.000101089477539" y1="-1.7145039524928997e-15" x2="0.8128311310628311" y2="1.2213214529398555" id="master_svg4_227_04302"><stop offset="0%" stop-color="#F7DF76" stop-opacity="1"/><stop offset="100%" stop-color="#EEB765" stop-opacity="1"/></linearGradient><linearGradient x1="-3.178880769727499e-16" y1="-2.66980761568056e-16" x2="1.0505053997039795" y2="1" id="master_svg5_227_04303"><stop offset="0%" stop-color="#3154EF" stop-opacity="1"/><stop offset="77.58327126502991%" stop-color="#769FFF" stop-opacity="1"/><stop offset="100%" stop-color="#C9ECFF" stop-opacity="1"/></linearGradient><linearGradient x1="1" y1="0.5790112018585205" x2="-3.382415740688386e-16" y2="0.5897790789604187" id="master_svg6_227_04304"><stop offset="0%" stop-color="#D9EAFF" stop-opacity="1"/><stop offset="17.37692356109619%" stop-color="#DDEAFF" stop-opacity="1"/><stop offset="100%" stop-color="#5F99FF" stop-opacity="1"/></linearGradient><linearGradient x1="-3.178880505029703e-16" y1="-2.669807350982764e-16" x2="1.0505052804946902" y2="0.9999999403953552" id="master_svg7_227_04305"><stop offset="0%" stop-color="#3154EF" stop-opacity="1"/><stop offset="77.58327126502991%" stop-color="#769FFF" stop-opacity="1"/><stop offset="100%" stop-color="#C9ECFF" stop-opacity="1"/></linearGradient><linearGradient x1="-3.178880769727499e-16" y1="0.472777783870697" x2="1.0505054124073203" y2="0.5272221978170677" id="master_svg8_227_04306"><stop offset="0%" stop-color="#3154EF" stop-opacity="1"/><stop offset="77.58327126502991%" stop-color="#769FFF" stop-opacity="1"/><stop offset="100%" stop-color="#C9ECFF" stop-opacity="1"/></linearGradient><linearGradient x1="1" y1="0.5748280882835388" x2="-8.543797168002036e-11" y2="0.5850258653422444" id="master_svg9_227_04307"><stop offset="0%" stop-color="#D9EAFF" stop-opacity="1"/><stop offset="17.37692356109619%" stop-color="#DDEAFF" stop-opacity="1"/><stop offset="100%" stop-color="#5F99FF" stop-opacity="1"/></linearGradient><radialGradient cx="0" cy="0" r="1" gradientUnits="userSpaceOnUse" id="master_svga_227_04308" gradientTransform="translate(857.2191578149796 687.375507235527) rotate(0) scale(19.656276524066925 19.656276524066925)"><stop offset="0%" stop-color="#BFD7FF" stop-opacity="1"/><stop offset="100%" stop-color="#7195FF" stop-opacity="1"/></radialGradient></defs><g clip-path="url(#master_svg0_227_04161)"><g></g><g><g><g><path d="M962,713L961.8,717L961.1,721.1L959.9,725.1L958.3,729.2L956.1,733.3L953.4,737.5L949.9,742L945.7,746.6L940.7,751.2L934.9,756L928.2,760.8L919.9,766.1L910.4,771.5L899.6,776.9L887.4,782.4L875.4,787.2L862.2,792L847.8,796.7L832,801.4L800,809.6L764.3,817L727.5,823.2L687.9,828.5L661.2,831.3L633.5,833.7L605,835.6L576.5,836.9L547.5,837.7L518,838L488.5,837.7L459.5,836.9L431,835.6L402.5,833.7L374.8,831.3L348.1,828.5L308.5,823.2L271.7,817L236,809.6L204,801.4L188.2,796.7L173.8,792L160.6,787.2L148.6,782.4L136.4,776.9L125.6,771.5L116.1,766.1L107.8,760.8L101.1,756L95.3,751.2L90.3,746.6L86.1,742L82.6,737.5L79.9,733.3L77.7,729.2L76.1,725.1L74.900002,721.1L74.199997,717L74,713L74.199997,709L74.900002,705L76.1,700.9L77.7,696.8L79.9,692.7L82.6,688.5L86.1,684L90.3,679.4L95.3,674.8L101.1,670L107.8,665.2L116.1,659.9L125.6,654.5L136.4,649.1L148.6,643.6L160.6,638.8L173.8,634L188.2,629.3L204,624.6L236,616.4L271.7,609L308.5,602.8L348.1,597.5L374.8,594.70001L402.5,592.29999L431,590.40002L459.5,589.09998L488.5,588.299988L518,588L547.5,588.299988L576.5,589.09998L605,590.40002L633.5,592.29999L661.2,594.70001L687.9,597.5L727.5,602.8L764.3,609L800,616.4L832,624.6L847.8,629.3L862.2,634L875.4,638.8L887.4,643.6L899.6,649.1L910.4,654.5L919.9,659.9L928.2,665.2L934.9,670L940.7,674.8L945.7,679.4L949.9,684L953.4,688.5L956.1,692.7L958.3,696.8L959.9,700.9L961.1,705L961.8,709L962,713Z" fill-rule="evenodd" fill="#F1F5FD" fill-opacity="1" style="mix-blend-mode:passthrough"/></g></g><g><path d="M92.4999984741211,654L63.099998474121094,692.9L73.9999984741211,731.3L327.1999984741211,738.9L469.5999984741211,742.7L539.4999984741211,744.3L566.9999984741211,744.5L586.7999984741211,744.2L613.6999984741211,743.1L631.1999984741211,741.2L639.399998474121,739.8L646.6999984741211,738L653.2999984741211,736L659.6999984741211,733.5L665.7999984741211,730.6L671.4999984741211,727.3L671.7999984741211,726.1L671.2999984741211,724.8L666.7999984741211,718.9L655.7999984741211,707.4L632.4999984741211,686.1L606.5999984741211,664.7L590.899998474121,653L584.4999984741211,648.8L582.0999984741211,647.6L576.9999984741211,645.8L567.9999984741211,643.3L553.1999984741211,639.7L530.7999984741211,634.90002L498.49999847412107,628.5L473.49999847412107,654L92.4999984741211,654Z" fill-rule="evenodd" fill="url(#master_svg1_227_04299)" fill-opacity="1" style="mix-blend-mode:passthrough"/></g></g><g><g><path d="M359.60000779296877,344.2000138964844L361.10000779296877,342.5000038964844L362.89999779296875,341.29998789648437L364.99999779296877,340.6000058964844L367.20000779296873,340.3999938964844L369.29998779296875,340.79998789648437L371.3999877929688,341.7000138964844L394.8999877929688,356.9999938964844L396.59998779296876,358.4999938964844L397.79998779296875,360.29999389648435L398.59998779296876,362.3999938964844L398.6999877929687,364.4999938964844L398.3999877929688,366.6999938964844L397.3999877929688,368.79999389648435L395.8999877929688,370.4999938964844L394.09998779296876,371.6999938964844L391.99998779296874,372.3999938964844L389.79998779296875,372.59999389648436L387.6999877929687,372.1999938964844L385.59998779296876,371.29999389648435L362.10000779296877,355.9999938964844L360.39999779296875,354.4999938964844L359.2000117929687,352.6999938964844L358.39999379296876,350.59999389648436L358.29998779296875,348.5000038964844L358.6000057929688,346.2999838964844L359.60000779296877,344.2000138964844Z" fill-rule="evenodd" fill="url(#master_svg2_227_04300)" fill-opacity="1" style="mix-blend-mode:passthrough"/></g></g><g><g><path d="M438.4999938964844,309.1000061035156L440.6999938964844,309.70001210351563L442.59999389648436,310.7999861035156L444.1999938964844,312.2999861035156L445.29999389648435,314.2000161035156L445.8999938964844,316.2999861035156L445.8999938964844,318.6000061035156L443.1999938964844,340.40000610351564L442.59999389648436,342.70000610351565L441.59999389648436,344.5000061035156L439.9999938964844,346.1000061035156L438.1999938964844,347.20000610351565L436.1000038964844,347.8000061035156L433.7999838964844,347.8000061035156L431.5000038964844,347.20000610351565L429.6000038964844,346.20000610351565L428.1000038964844,344.6000061035156L426.9999998964844,342.8000061035156L426.3999938964844,340.70000610351565L426.3999938964844,338.40000610351564L429.0000038964844,316.4999961035156L429.6000038964844,314.2999861035156L430.7000138964844,312.3999961035156L432.2000138964844,310.8999961035156L434.1000038964844,309.7999881035156L436.2000138964844,309.20001210351563L438.4999938964844,309.1000061035156Z" fill-rule="evenodd" fill="url(#master_svg3_227_04301)" fill-opacity="1" style="mix-blend-mode:passthrough"/></g></g><g><g><path d="M397.10000779296877,319.399994L399.29998779296875,319L401.49998779296874,319.100006L403.59998779296876,319.799988L405.3999877929688,321L406.79998779296875,322.60001L407.8999877929688,324.70001L412.09998779296876,337L412.49998779296874,339.2L412.3999877929688,341.4L411.6999877929687,343.5L410.49998779296874,345.3L408.8999877929688,346.7L406.79998779296875,347.8L404.59998779296876,348.2L402.3999877929688,348.1L400.29998779296875,347.4L398.49999779296877,346.2L397.10000779296877,344.6L395.99999779296877,342.5L391.79998779296875,330.2L391.29998779296875,328L391.49999979296877,325.79999L392.2000117929687,323.70001L393.39999779296875,321.89999L394.99999779296877,320.39999L397.10000779296877,319.399994Z" fill-rule="evenodd" fill="url(#master_svg4_227_04302)" fill-opacity="1" style="mix-blend-mode:passthrough"/></g></g><g><g><g><path d="M551,684.5L550.7,690.2L549.9,695.6L548.6,700.7L546.7,705.7L544.4,710.5L541.7,715L538.6,719.2L535,723L531.2,726.6L527,729.7L522.5,732.4L517.7,734.7L512.7,736.6L507.6,737.9L502.2,738.7L496.5,739L490.8,738.7L485.4,737.9L480.3,736.6L475.3,734.7L470.5,732.4L466,729.7L461.8,726.6L458,723L454.4,719.2L451.29999,715L448.60001,710.5L446.29999,705.7L444.39999,700.7L443.10001,695.6L442.299988,690.2L442,684.5L442.299988,678.8L443.10001,673.4L444.39999,668.3L446.29999,663.3L448.60001,658.5L451.29999,654L454.4,649.8L458,646L461.8,642.4L466,639.29999L470.5,636.59998L475.3,634.29999L480.3,632.40002L485.4,631.09998L490.8,630.299988L496.5,630L502.2,630.299988L507.6,631.09998L512.7,632.40002L517.7,634.29999L522.5,636.59998L527,639.29999L531.2,642.4L535,646L538.6,649.8L541.7,654L544.4,658.5L546.7,663.3L548.6,668.3L549.9,673.4L550.7,678.8L551,684.5Z" fill-rule="evenodd" fill="url(#master_svg5_227_04303)" fill-opacity="1" style="mix-blend-mode:passthrough"/></g></g><g><path d="M551,684.5L550.7,690.2L549.9,695.6L548.6,700.7L546.7,705.7L544.4,710.5L541.7,715L538.6,719.2L535,723L531.2,726.6L527,729.7L522.5,732.4L517.7,734.7L512.7,736.6L507.6,737.9L502.2,738.7L496.5,739L490.8,738.7L485.4,737.9L480.3,736.6L475.3,734.7L470.5,732.4L466,729.7L461.8,726.6L458,723L454.4,719.2L451.29999,715L448.60001,710.5L446.29999,705.7L444.39999,700.7L443.10001,695.6L442.299988,690.2L442,684.5L442.299988,678.8L443.10001,673.4L444.39999,668.3L446.29999,663.3L448.60001,658.5L451.29999,654L454.4,649.8L458,646L461.8,642.4L466,639.29999L470.5,636.59998L475.3,634.29999L480.3,632.40002L485.4,631.09998L490.8,630.299988L496.5,630L502.2,630.299988L507.6,631.09998L512.7,632.40002L517.7,634.29999L522.5,636.59998L527,639.29999L531.2,642.4L535,646L538.6,649.8L541.7,654L544.4,658.5L546.7,663.3L548.6,668.3L549.9,673.4L550.7,678.8L551,684.5Z" fill-rule="evenodd" fill="url(#master_svg6_227_04304)" fill-opacity="1" style="mix-blend-mode:passthrough"/></g></g><g><g><path d="M672.4,376.1L673.6,380.9L674,385.5L673.8,390.2L673,394.7L671.7,399L669.8,403.2L667.5,407L664.6,410.6L661.3,413.7L657.6,416.5L653.4,418.7L648.9,420.4L644.1,421.6L639.5,422L634.8,421.8L630.3,421L626,419.7L621.8,417.8L618,415.5L614.4,412.6L611.29999,409.3L608.5,405.6L606.29999,401.4L604.59998,396.9L603.400024,392.1L603,387.5L603.200012,382.8L604,378.3L605.29999,374L607.20001,369.8L609.5,366L612.40002,362.4L615.7,359.29999L619.4,356.5L623.6,354.29999L628.1,352.60001L632.9,351.399994L637.5,351L642.2,351.200012L646.7,352L651,353.29999L655.2,355.20001L659,357.5L662.6,360.39999L665.7,363.7L668.5,367.4L670.7,371.6L672.4,376.1Z" fill-rule="evenodd" fill="url(#master_svg7_227_04305)" fill-opacity="1" style="mix-blend-mode:passthrough"/></g></g><g><g><path d="M675.4999877929688,722.3998046875L674.3999877929688,724.2998046875L672.8999877929688,725.9998046875L670.8999877929688,727.4998046875L668.3999877929688,728.8998046875L665.1999877929687,730.0998046875L661.2999877929688,731.0998046875L656.5999877929687,731.7998046875L651.0999877929687,732.1998046875L644.5999877929687,732.2998046875L636.0999877929687,731.7998046875L626.4999877929688,730.7998046875L615.2999877929688,729.0998046875L592.3999877929688,724.2998046875L579.1999877929687,720.8998046875L552.4999877929688,712.8998046875L523.5999877929687,702.7998046875L493.3999877929688,690.6998046875L463.6999877929687,677.2998046875L436.29998779296875,663.5998046875L411.99998779296874,649.8998046875L400.49998779296874,642.7998046875L380.99998779296874,629.5998046875L372.09998779296876,622.7998046875L364.59998779296876,616.5998046875L358.3999877929688,610.7998046875L353.8999877929688,606.0998046875L350.39999779296875,601.7998046875L347.70000779296873,597.9998046875L345.70000779296873,594.4998046875L344.29998779296875,591.2998046875L343.49999979296877,588.5998046875L343.29998779296875,586.0998046875L343.49999979296877,583.7998046875L344.1000057929688,581.6998246875L345.20000779296873,579.7998046875L346.70000779296873,578.0997946875L348.60000779296877,576.4998146875L351.20000779296873,575.0997946875L354.3999877929688,573.8998446875L358.29998779296875,572.8998446875L362.8999877929688,572.1998286875L368.49998779296874,571.7998046875L374.99998779296874,571.7998046875L383.3999877929688,572.1998286875L393.09998779296876,573.2998046875L404.1999877929687,574.9998146875L427.1999877929687,579.7998046875L440.29998779296875,583.0998046875L466.99998779296874,591.0998046875L495.99998779296874,601.2998046875L526.1999877929687,613.3998046875L555.8999877929688,626.6998046875L583.2999877929688,640.4998046875L607.5999877929687,654.0998046875L619.0999877929687,661.1998046875L638.5999877929687,674.3998046875L647.4999877929688,681.1998046875L654.9999877929688,687.4998046875L661.0999877929687,693.1998046875L665.6999877929687,697.9998046875L669.1999877929687,702.1998046875L671.8999877929688,706.0998046875L673.8999877929688,709.5998046875L675.2999877929688,712.6998046875L675.9999877929688,715.4998046875L676.2999877929688,717.9998046875L676.0999877929687,720.2998046875L675.4999877929688,722.3998046875Z" fill-rule="evenodd" fill="url(#master_svg8_227_04306)" fill-opacity="1" style="mix-blend-mode:passthrough"/></g></g><g><g><path d="M376.3999938964844,573.3998046875L426.09999389648436,456.1998046875L429.9999938964844,447.6998046875L434.1999938964844,439.6998046875L438.59999389648436,432.2998046875L443.29999389648435,425.1998046875L448.1999938964844,418.6998046875L453.59999389648436,412.2998046875L459.1999938964844,406.3998046875L464.9999938964844,400.8998046875L470.9999938964844,395.8998046875L477.1999938964844,391.1998046875L483.79999389648435,386.8998046875L490.3999938964844,382.9998046875L497.29999389648435,379.5998046875L504.29999389648435,376.4998046875L511.3999938964844,373.7998046875L520.5999938964844,370.8998146875L529.8999938964844,368.6998246875L539.3999938964844,367.0998246875L549.0999938964844,366.0998226875L558.7999938964844,365.7998046875L568.5999938964844,365.9998166875L578.4999938964844,366.7998046875L588.4999938964844,368.1998246875L598.3999938964844,370.2998046875L608.1999938964843,372.8998146875L618.0999938964844,376.0998046875L627.9999938964844,379.9998046875L637.2999938964844,384.1998046875L646.0999938964844,388.8998046875L654.3999938964844,393.7998046875L662.1999938964843,399.1998046875L669.5999938964844,404.7998046875L676.6999938964843,410.9998046875L683.2999938964844,417.4998046875L689.3999938964844,424.1998046875L694.9999938964844,431.2998046875L700.0999938964844,438.5998046875L704.6999938964843,446.2998046875L708.7999938964844,454.1998046875L712.2999938964844,462.3998046875L715.2999938964844,470.7998046875L717.6999938964843,479.5998046875L719.5999938964844,488.3998046875L720.7999938964844,497.3998046875L721.3999938964844,506.5998046875L721.4999938964844,516.0998046875L720.8999938964844,525.8998046875L719.8999938964844,533.7998046875L718.4999938964844,541.8998046875L716.5999938964844,550.0998046875L714.1999938964843,558.4998046875L711.1999938964843,566.9998046875L707.7999938964844,575.7998046875L658.0999938964844,692.8998046875L638.8999938964844,690.0998046875L620.2999938964844,686.6998046875L602.2999938964844,682.8998046875L584.6999938964843,678.5998046875L567.5999938964844,673.8998046875L550.9999938964844,668.7998046875L534.7999938964844,663.1998046875L519.0999938964844,657.1998046875L503.79999389648435,650.6998046875L486.3999938964844,642.6998046875L469.4999938964844,634.1998046875L452.9999938964844,625.2998046875L436.8999938964844,615.7998046875L421.1999938964844,605.8998046875L405.8999938964844,595.5998046875L390.8999938964844,584.6998046875L376.3999938964844,573.3998046875Z" fill-rule="evenodd" fill="url(#master_svg9_227_04307)" fill-opacity="1" style="mix-blend-mode:passthrough"/></g></g><g><path d="M877,684.5L876.7,687.3L876,689.9L874.9,692.3L873.3,694.5L871.5,696.3L869.3,697.9L866.9,699L864.3,699.7L861.5,700L858.7,699.7L856.1,699L853.70001,697.9L851.5,696.3L849.70001,694.5L848.09998,692.3L847,689.9L846.299988,687.3L846,684.5L846.299988,681.7L847,679.1L848.09998,676.70001L849.70001,674.5L851.5,672.70001L853.70001,671.09998L856.1,670L858.7,669.299988L861.5,669L864.3,669.299988L866.9,670L869.3,671.09998L871.5,672.70001L873.3,674.5L874.9,676.70001L876,679.1L876.7,681.7L877,684.5Z" fill-rule="evenodd" fill="url(#master_svga_227_04308)" fill-opacity="1" style="mix-blend-mode:passthrough"/></g></g></svg>