<svg xmlns="http://www.w3.org/2000/svg" xmlns:xlink="http://www.w3.org/1999/xlink" fill="none" version="1.1" width="1024" height="1024" viewBox="0 0 1024 1024"><defs><clipPath id="master_svg0_227_03632"><rect x="0" y="0" width="1024" height="1024" rx="0"/></clipPath><linearGradient x1="0.07043590396642685" y1="0.4958516061306" x2="0.5891685830939889" y2="0.5009243548016755" id="master_svg1_227_04170"><stop offset="0%" stop-color="#3A58DD" stop-opacity="0"/><stop offset="100%" stop-color="#4164FF" stop-opacity="0.8468640446662903"/></linearGradient><linearGradient x1="0.7496161460876465" y1="0.5790112018585205" x2="0.2503838723198328" y2="0.589779101393205" id="master_svg2_227_04171"><stop offset="0%" stop-color="#D9EAFF" stop-opacity="1"/><stop offset="17.37692356109619%" stop-color="#DDEAFF" stop-opacity="1"/><stop offset="100%" stop-color="#5F99FF" stop-opacity="1"/></linearGradient><linearGradient x1="0.5496780276298523" y1="0.3252444863319397" x2="0.9066413555653513" y2="0.8265243935812058" id="master_svg3_227_04172"><stop offset="0%" stop-color="#3A58DD" stop-opacity="1"/><stop offset="65.72571396827698%" stop-color="#7192F3" stop-opacity="1"/><stop offset="100%" stop-color="#92C5FF" stop-opacity="1"/></linearGradient><linearGradient x1="0.5496780276298523" y1="0.25482720136642456" x2="0.9066413640975952" y2="0.9580965638160706" id="master_svg4_227_04174"><stop offset="0%" stop-color="#3A58DD" stop-opacity="1"/><stop offset="65.72571396827698%" stop-color="#7192F3" stop-opacity="1"/><stop offset="100%" stop-color="#92C5FF" stop-opacity="1"/></linearGradient><linearGradient x1="0.18817771971225739" y1="0.15108059346675873" x2="0.848797380924225" y2="0.8813290596008299" id="master_svg5_227_04175"><stop offset="0%" stop-color="#FFFFFF" stop-opacity="1"/><stop offset="32.22246468067169%" stop-color="#FFFFFF" stop-opacity="0.4384833872318268"/><stop offset="48.303648829460144%" stop-color="#FFFFFF" stop-opacity="0.25991585850715637"/><stop offset="64.43400382995605%" stop-color="#FFFFFF" stop-opacity="0.13027207553386688"/><stop offset="78.57487201690674%" stop-color="#FFFFFF" stop-opacity="0.07375437021255493"/><stop offset="89.63392376899719%" stop-color="#FFFFFF" stop-opacity="0.021853147074580193"/><stop offset="100%" stop-color="#FFFFFF" stop-opacity="0"/></linearGradient><linearGradient x1="0.848351240158081" y1="0.511086642742157" x2="0.42517999607321266" y2="0.4889133287529983" id="master_svg6_227_04176"><stop offset="0%" stop-color="#92C5FF" stop-opacity="1"/><stop offset="100%" stop-color="#3A58DD" stop-opacity="1"/></linearGradient><linearGradient x1="0.848351240158081" y1="0.46976619958877563" x2="0.12178747390085386" y2="0.5302337744042647" id="master_svg7_227_04177"><stop offset="0%" stop-color="#92C5FF" stop-opacity="1"/><stop offset="100%" stop-color="#3A58DD" stop-opacity="1"/></linearGradient><linearGradient x1="0.38794422149658203" y1="0.2562367618083954" x2="0.6120558299461064" y2="0.7497464324392342" id="master_svg8_227_04178"><stop offset="0%" stop-color="#3A58DD" stop-opacity="1"/><stop offset="65.72571396827698%" stop-color="#7192F3" stop-opacity="1"/><stop offset="100%" stop-color="#92C5FF" stop-opacity="1"/></linearGradient><linearGradient x1="0.48451417684555054" y1="0.12585753202438354" x2="0.5969655013321552" y2="0.9158128410170913" id="master_svg9_227_04179"><stop offset="0%" stop-color="#3A58DD" stop-opacity="1"/><stop offset="49.01009202003479%" stop-color="#7192F3" stop-opacity="1"/><stop offset="100%" stop-color="#92C5FF" stop-opacity="1"/></linearGradient><linearGradient x1="0.5" y1="0.02265782654285431" x2="0.5053900528476599" y2="0.9038479265115177" id="master_svga_227_04180"><stop offset="0%" stop-color="#3A58DD" stop-opacity="1"/><stop offset="65.72571396827698%" stop-color="#7192F3" stop-opacity="1"/><stop offset="100%" stop-color="#92C5FF" stop-opacity="1"/></linearGradient><linearGradient x1="0.5977063179016113" y1="0.25274407863616943" x2="0.36781633931226815" y2="0.999999861050158" id="master_svgb_227_04181"><stop offset="0%" stop-color="#F7DF76" stop-opacity="1"/><stop offset="100%" stop-color="#EEB765" stop-opacity="1"/></linearGradient><linearGradient x1="0.5977063179016113" y1="0.25274407863616943" x2="0.3678159681296777" y2="0.9999997330953181" id="master_svgc_227_04182"><stop offset="0%" stop-color="#F7DF76" stop-opacity="1"/><stop offset="100%" stop-color="#EEB765" stop-opacity="1"/></linearGradient><radialGradient cx="0" cy="0" r="1" gradientUnits="userSpaceOnUse" id="master_svgd_227_04183" gradientTransform="translate(795.2191578149796 530.375507235527) rotate(0) scale(19.656276524066925 19.656276524066925)"><stop offset="0%" stop-color="#BFD7FF" stop-opacity="1"/><stop offset="100%" stop-color="#7195FF" stop-opacity="1"/></radialGradient></defs><g clip-path="url(#master_svg0_227_03632)"><g></g><g><g><g><path d="M956,713L955.8,717L955.1,721.1L953.9,725.1L952.3,729.2L950.1,733.3L947.4,737.5L943.9,742L939.7,746.6L934.7,751.2L928.9,756L922.2,760.8L913.9,766.1L904.4,771.5L893.6,776.9L881.4,782.4L869.4,787.2L856.2,792L841.8,796.7L826,801.4L794,809.6L758.3,817L721.5,823.2L681.9,828.5L655.2,831.3L627.5,833.7L599,835.6L570.5,836.9L541.5,837.7L512,838L482.5,837.7L453.5,836.9L425,835.6L396.5,833.7L368.8,831.3L342.1,828.5L302.5,823.2L265.7,817L230,809.6L198,801.4L182.2,796.7L167.8,792L154.6,787.2L142.6,782.4L130.4,776.9L119.6,771.5L110.1,766.1L101.8,760.8L95.1,756L89.3,751.2L84.3,746.6L80.1,742L76.6,737.5L73.9,733.3L71.7,729.2L70.1,725.1L68.900002,721.1L68.199997,717L68,713L68.199997,709L68.900002,705L70.1,700.9L71.7,696.8L73.9,692.7L76.6,688.5L80.1,684L84.3,679.4L89.3,674.8L95.1,670L101.8,665.2L110.1,659.9L119.6,654.5L130.4,649.1L142.6,643.6L154.6,638.8L167.8,634L182.2,629.3L198,624.6L230,616.4L265.7,609L302.5,602.8L342.1,597.5L368.8,594.70001L396.5,592.29999L425,590.40002L453.5,589.09998L482.5,588.299988L512,588L541.5,588.299988L570.5,589.09998L599,590.40002L627.5,592.29999L655.2,594.70001L681.9,597.5L721.5,602.8L758.3,609L794,616.4L826,624.6L841.8,629.3L856.2,634L869.4,638.8L881.4,643.6L893.6,649.1L904.4,654.5L913.9,659.9L922.2,665.2L928.9,670L934.7,674.8L939.7,679.4L943.9,684L947.4,688.5L950.1,692.7L952.3,696.8L953.9,700.9L955.1,705L955.8,709L956,713Z" fill-rule="evenodd" fill="#F1F5FD" fill-opacity="1" style="mix-blend-mode:passthrough"/></g></g><g><path d="M61.2999984741211,690.9998046875L42.599998474121094,717.8998046875L42.799999474121094,737.7998046875L446.99999847412107,733.4998046875L511.2999984741211,730.9998046875L549.2999984741211,728.2998046875L565.9999984741211,726.3998046875L582.4999984741211,723.9998046875L598.6999984741211,721.2998046875L614.7999984741211,717.9998046875L476.7999984741211,680.7998046875L61.2999984741211,690.9998046875Z" fill-rule="evenodd" fill="url(#master_svg1_227_04170)" fill-opacity="1" style="mix-blend-mode:passthrough"/></g></g><g><path d="M437,388L620,388L620,647L437,647L437,388Z" fill-rule="evenodd" fill="url(#master_svg2_227_04171)" fill-opacity="1" style="mix-blend-mode:passthrough"/></g><g><path d="M620,388.5L619.7,377.8L618.8,367.5L617.5,357.7L615.6,348.3L613.2,338.9L610.5,329.9L607.3,321.4L603.9,313.2L595.9,297.6L587.1,283.8L580.6,275.2L574.1,267.5L567.4,260.5L560.4,254L553.7,248.4L547.2,243.8L540.3,239.5L534.1,236.3L528.5,234L519.1,238.10001L514,240.8L508.7,244.1L502,248.9L495.1,254.5L488.1,261L478.3,271.7L468.7,284.2L464.3,290.9L460.1,297.9L456.1,305.5L452.4,313.5L449.1,321.5L446.10001,330L443.5,339L441.20001,348.3L439.39999,357.7L438.10001,367.5L437.299988,377.8L437,388.5" fill-rule="evenodd" fill="url(#master_svg3_227_04172)" fill-opacity="1" style="mix-blend-mode:passthrough"/></g><g><path d="M561,437.5L560.7,442L559.8,446.2L558.4,450.2L556.5,453.9L554.2,457.4L551.5,460.5L548.4,463.2L544.9,465.5L541.2,467.4L537.2,468.8L533,469.7L528.5,470L524,469.7L519.8,468.8L515.8,467.4L512.1,465.5L508.6,463.2L505.5,460.5L502.79999,457.4L500.5,453.9L498.60001,450.2L497.20001,446.2L496.299988,442L496,437.5L496.299988,433L497.20001,428.8L498.60001,424.8L500.5,421.1L502.79999,417.6L505.5,414.5L508.6,411.79999L512.1,409.5L515.8,407.60001L519.8,406.20001L524,405.299988L528.5,405L533,405.299988L537.2,406.20001L541.2,407.60001L544.9,409.5L548.4,411.79999L551.5,414.5L554.2,417.6L556.5,421.1L558.4,424.8L559.8,428.8L560.7,433L561,437.5Z" fill-rule="evenodd" fill="#DAEAFF" fill-opacity="1" style="mix-blend-mode:passthrough"/></g><g><path d="M555.1998046875,437.4998046875L554.8998046875,441.1998046875L554.1998046875,444.5998046875L553.0998046875,447.8998046875L551.4998046875,450.9998046875L549.5998046875,453.7998046875L547.3998046875,456.3998046875L544.7998046875,458.5998046875L541.9998046875,460.4998046875L538.8998046875,462.0998046875L535.5998046875,463.1998046875L532.1998046875,463.8998046875L528.4998046875,464.1998046875L524.9998046875,463.9998046875L521.5998046875,463.2998046875L518.2998046875,462.1998046875L515.1998046875,460.5998046875L512.2998046875,458.6998046875L509.5998246875,456.3998046875L507.2998046875,453.6998046875L505.3998146875,450.7998046875L503.7998046875,447.6998046875L502.6998286875,444.3998046875L501.9998166875,440.9998046875L501.7998046875,437.4998046875L501.9998166875,433.9998046875L502.6998286875,430.5998046875L503.7998046875,427.2998046875L505.3998146875,424.1998046875L507.2998046875,421.2998046875L509.5998246875,418.5998246875L512.2998046875,416.2998046875L515.1998046875,414.3998146875L518.2998046875,412.7998046875L521.5998046875,411.6998286875L524.9998046875,410.9998166875L528.4998046875,410.7998046875L532.1998046875,411.0998226875L535.5998046875,411.7998046875L538.8998046875,412.8998146875L541.9998046875,414.4998146875L544.7998046875,416.3998146875L547.3998046875,418.5998246875L549.5998046875,421.1998046875L551.4998046875,423.9998046875L553.0998046875,427.0998046875L554.1998046875,430.3998046875L554.8998046875,433.7998046875L555.1998046875,437.4998046875Z" fill-rule="evenodd" fill="url(#master_svg4_227_04174)" fill-opacity="1" style="mix-blend-mode:passthrough"/></g><g><path d="M535,432.5L534.8,435.1L534.1,437.6L533,439.8L531.6,441.9L529.9,443.6L527.8,445L525.6,446.1L523.1,446.8L520.5,447L517.9,446.8L515.40002,446.1L513.20001,445L511.10001,443.6L509.39999,441.9L508,439.8L506.899994,437.6L506.200012,435.1L506,432.5L506.200012,429.9L506.899994,427.39999L508,425.20001L509.39999,423.10001L511.10001,421.39999L513.20001,420L515.40002,418.899994L517.9,418.200012L520.5,418L523.1,418.200012L525.6,418.899994L527.8,420L529.9,421.39999L531.6,423.10001L533,425.20001L534.1,427.39999L534.8,429.9L535,432.5Z" fill-rule="evenodd" fill="url(#master_svg5_227_04175)" fill-opacity="1" style="mix-blend-mode:passthrough"/></g><g><path d="M437,647L464.2,673.8L592.3,673.8L620,646.5L437,647Z" fill-rule="evenodd" fill="url(#master_svg6_227_04176)" fill-opacity="1" style="mix-blend-mode:passthrough"/></g><g><g><path d="M440.70001210351563,711.6L464.20000610351565,673.5L592.3000061035157,673.5L616.2000061035156,712.4L616.8000061035157,713.9L616.7000061035156,715.4L616.1000061035156,716.8L614.9000061035156,717.9L612.8000061035157,718.5L444.1000061035156,717.7L442.4999961035156,717.4L441.2999861035156,716.5L440.3999941035156,715.3L440.1000061035156,713.7L440.70001210351563,711.6Z" fill-rule="evenodd" fill="url(#master_svg7_227_04177)" fill-opacity="1" style="mix-blend-mode:passthrough"/></g></g><g><path d="M437,517L356,563.8L353.70001,565.4L351.70001,567.4L350.10001,569.6L349,572.1L348.299988,574.8L348,577.6L348,698L348.299988,699.6L349.20001,700.9L350.39999,701.7L352,702L354,701.5L437,652.9L437,517Z" fill-rule="evenodd" fill="url(#master_svg8_227_04178)" fill-opacity="1" style="mix-blend-mode:passthrough"/></g><g><g><path d="M620,517L701,563.8L703.3,565.4L705.3,567.4L706.9,569.6L708,572.1L708.7,574.8L709,577.6L709,698L708.7,699.6L707.8,700.9L706.6,701.7L705,702L703,701.5L620,652.9L620,517Z" fill-rule="evenodd" fill="url(#master_svg9_227_04179)" fill-opacity="1" style="mix-blend-mode:passthrough"/></g></g><g><path d="M512,558.1998046875L516.20001,540.6998046875L519.59998,528.5998046875L522.2,520.8998446875L524.3,516.1998246875L525.9,513.6998246875L527.1,512.5997926875L528,512.2998046875L528.9,512.5997926875L530.1,513.6998246875L531.7,516.1998246875L533.8,520.8998446875L536.4,528.5998046875L539.8,540.6998046875L544,558.1998046875L544,659.2998046875L529.9,706.7998046875L529.5,707.4998046875L528.2,708.1998046875L526.6,707.5998046875L526.1,706.7998046875L512,659.2998046875L512,558.1998046875Z" fill-rule="evenodd" fill="url(#master_svga_227_04180)" fill-opacity="1" style="mix-blend-mode:passthrough"/></g><g><g><path d="M305.6998046875,286.7001953125L304.4998046875,290.2001953125L303.7998046875,293.7001953125L303.4998046875,297.2001953125L303.7998046875,300.7001953125L304.3998046875,304.1001953125L305.4998046875,307.4001953125L306.9998046875,310.5001953125L308.8998046875,313.4001953125L311.0998046875,316.1001953125L313.6998046875,318.4001953125L316.6998046875,320.4001953125L319.9998046875,322.1001953125L316.4998046875,320.9001953125L312.9998046875,320.2001953125L309.4998046875,320.0001953125L305.9998046875,320.2001953125L302.5998046875,320.9001953125L299.2998046875,321.9001953125L296.1998046875,323.4001953125L293.2998046875,325.3001953125L290.5998046875,327.6001953125L288.2998046875,330.2001953125L286.2998046875,333.1001953125L284.5998046875,336.4001953125L285.7998046875,332.9001953125L286.4998046875,329.4001953125L286.6998046875,325.9001953125L286.4998046875,322.4001953125L285.8998046875,319.1001953125L284.7998046875,315.8001953125L283.2998046875,312.7001953125L281.3998046875,309.8001953125L279.0998246875,307.1001953125L276.4998146875,304.7001953125L273.5998246875,302.7001953125L270.2998046875,301.0001953125L273.7998046875,302.2001953125L277.2998046875,303.0001953125L280.7998046875,303.2001953125L284.2998046875,303.0001953125L287.6998046875,302.3001953125L290.8998046875,301.2001953125L294.0998046875,299.7001953125L296.9998046875,297.8001953125L299.5998046875,295.6001853125L301.9998046875,293.0001853125L303.9998046875,290.0001853125L305.6998046875,286.7001953125Z" fill-rule="evenodd" fill="url(#master_svgb_227_04181)" fill-opacity="1" style="mix-blend-mode:passthrough"/></g></g><g><g><path d="M327.1,326.1000061035156L326.3,328.7000161035156L325.9,331.2000161035156L326,333.7000161035156L326.6,336.1000061035156L327.5,338.40000610351564L328.8,340.5000061035156L330.4,342.3000061035156L332.4,343.90000610351564L334.7,345.20000610351565L332.2,344.40000610351564L329.7,344.0000061035156L327.2,344.1000061035156L324.8,344.70000610351565L322.5,345.6000061035156L320.4,346.90000610351564L318.5,348.5000061035156L317,350.5000061035156L315.70001,352.8000061035156L316.5,350.3000061035156L316.89999,347.8000061035156L316.79999,345.3000061035156L316.20001,342.90000610351564L315.29999,340.6000061035156L314,338.5000061035156L312.39999,336.6000061035156L310.39999,335.1000061035156L308,333.7999861035156L310.60001,334.6000061035156L313.10001,334.9999961035156L315.60001,334.8999961035156L318,334.2999861035156L320.3,333.3999961035156L322.4,332.1000061035156L324.2,330.4999961035156L325.8,328.4999961035156L327.1,326.1000061035156Z" fill-rule="evenodd" fill="url(#master_svgc_227_04182)" fill-opacity="1" style="mix-blend-mode:passthrough"/></g></g><g><path d="M815,527.5L814.7,530.3L814,532.9L812.9,535.3L811.3,537.5L809.5,539.3L807.3,540.9L804.9,542L802.3,542.7L799.5,543L796.7,542.7L794.1,542L791.70001,540.9L789.5,539.3L787.70001,537.5L786.09998,535.3L785,532.9L784.299988,530.3L784,527.5L784.299988,524.7L785,522.1L786.09998,519.70001L787.70001,517.5L789.5,515.70001L791.70001,514.09998L794.1,513L796.7,512.299988L799.5,512L802.3,512.299988L804.9,513L807.3,514.09998L809.5,515.70001L811.3,517.5L812.9,519.70001L814,522.1L814.7,524.7L815,527.5Z" fill-rule="evenodd" fill="url(#master_svgd_227_04183)" fill-opacity="1" style="mix-blend-mode:passthrough"/></g></g></svg>