<svg xmlns="http://www.w3.org/2000/svg" xmlns:xlink="http://www.w3.org/1999/xlink" fill="none" version="1.1" width="1024" height="1024" viewBox="0 0 1024 1024"><defs><clipPath id="master_svg0_227_04488"><rect x="0" y="0" width="1024" height="1024" rx="0"/></clipPath><mask id="master_svg1_227_04498" style="mask-type:alpha" maskUnits="objectBoundingBox"><g><g><ellipse cx="512" cy="687" rx="444" ry="125" fill="#000000" fill-opacity="1" style="mix-blend-mode:passthrough"/></g></g></mask><linearGradient x1="0.07043590396642685" y1="0.49604225158691406" x2="0.589168564319536" y2="0.5008819021236093" id="master_svg2_227_04667"><stop offset="0%" stop-color="#3A58DD" stop-opacity="0"/><stop offset="100%" stop-color="#4164FF" stop-opacity="0.8468640446662903"/></linearGradient><linearGradient x1="0.3922521471977234" y1="-0.1374761164188385" x2="0.6148550752026757" y2="0.9885751903826429" id="master_svg3_227_04668"><stop offset="0%" stop-color="#3A5EDF" stop-opacity="1"/><stop offset="54.40521240234375%" stop-color="#3A5EDF" stop-opacity="1"/><stop offset="100%" stop-color="#B6D5FF" stop-opacity="1"/></linearGradient><linearGradient x1="0.3922521471977234" y1="-0.1374761164188385" x2="0.6148550752026757" y2="0.9885751903826429" id="master_svg4_227_04668"><stop offset="0%" stop-color="#3A5EDF" stop-opacity="1"/><stop offset="54.40521240234375%" stop-color="#3A5EDF" stop-opacity="1"/><stop offset="100%" stop-color="#B6D5FF" stop-opacity="1"/></linearGradient><linearGradient x1="0.7710617780685425" y1="0.5100279450416565" x2="-6.964870266597042e-10" y2="0.5000000206650789" id="master_svg5_227_04669"><stop offset="0%" stop-color="#D9EAFF" stop-opacity="1"/><stop offset="100%" stop-color="#9BBFFE" stop-opacity="1"/></linearGradient><linearGradient x1="0.7710617780685425" y1="0.5100279450416565" x2="-6.964870266597042e-10" y2="0.5000000206650789" id="master_svg6_227_04669"><stop offset="0%" stop-color="#D9EAFF" stop-opacity="1"/><stop offset="100%" stop-color="#9BBFFE" stop-opacity="1"/></linearGradient><linearGradient x1="0.4973766505718231" y1="0.9429406523704529" x2="0.5153187918459976" y2="-0.013174335224026378" id="master_svg7_227_04671"><stop offset="0%" stop-color="#CAE1FF" stop-opacity="1"/><stop offset="31.87676966190338%" stop-color="#A5C7F9" stop-opacity="1"/><stop offset="100%" stop-color="#3258E8" stop-opacity="1"/><stop offset="100%" stop-color="#3258E8" stop-opacity="1"/></linearGradient><linearGradient x1="0.4973766505718231" y1="0.9429406523704529" x2="0.5153187886776577" y2="-0.013174325338412774" id="master_svg8_227_04671"><stop offset="0%" stop-color="#CAE1FF" stop-opacity="1"/><stop offset="31.87676966190338%" stop-color="#A5C7F9" stop-opacity="1"/><stop offset="100%" stop-color="#3258E8" stop-opacity="1"/><stop offset="100%" stop-color="#3258E8" stop-opacity="1"/></linearGradient><linearGradient x1="0.6626734733581543" y1="0.5790112018585205" x2="0.34394670703876334" y2="0.7104478873017498" id="master_svg9_227_04672"><stop offset="0%" stop-color="#9BBFFE" stop-opacity="1"/><stop offset="100%" stop-color="#D9EAFF" stop-opacity="1"/></linearGradient><linearGradient x1="0.6626734733581543" y1="0.5790112018585205" x2="0.34394670703876334" y2="0.7104478873017498" id="master_svga_227_04672"><stop offset="0%" stop-color="#9BBFFE" stop-opacity="1"/><stop offset="100%" stop-color="#D9EAFF" stop-opacity="1"/></linearGradient><linearGradient x1="0.5879225134849548" y1="1.0158135890960693" x2="0.4325738632125847" y2="0.11841835308907177" id="master_svgb_227_04674"><stop offset="0%" stop-color="#D9EAFF" stop-opacity="1"/><stop offset="100%" stop-color="#9BBFFE" stop-opacity="1"/></linearGradient><linearGradient x1="0.38764768838882446" y1="-0.1374761164188385" x2="0.6197632673905614" y2="0.9885751969086641" id="master_svgc_227_04675"><stop offset="0%" stop-color="#3A5EDF" stop-opacity="1"/><stop offset="54.40521240234375%" stop-color="#3A5EDF" stop-opacity="1"/><stop offset="100%" stop-color="#B6D5FF" stop-opacity="1"/></linearGradient><linearGradient x1="1" y1="0.5060805082321167" x2="0.020348031231175668" y2="0.5161956166904758" id="master_svgd_227_04676"><stop offset="0%" stop-color="#D9EAFF" stop-opacity="1"/><stop offset="100%" stop-color="#9BBFFE" stop-opacity="1"/></linearGradient><linearGradient x1="1" y1="0.5060805082321167" x2="0.020348033032195453" y2="0.5161956060658843" id="master_svge_227_04677"><stop offset="0%" stop-color="#D9EAFF" stop-opacity="1"/><stop offset="100%" stop-color="#9BBFFE" stop-opacity="1"/></linearGradient><linearGradient x1="1" y1="0.5057850480079651" x2="0.0203480331950317" y2="0.5154085797372105" id="master_svgf_227_04678"><stop offset="0%" stop-color="#D9EAFF" stop-opacity="1"/><stop offset="100%" stop-color="#9BBFFE" stop-opacity="1"/></linearGradient><linearGradient x1="1" y1="0.5057850480079651" x2="0.0203480331950317" y2="0.5154085797372105" id="master_svgg_227_04678"><stop offset="0%" stop-color="#D9EAFF" stop-opacity="1"/><stop offset="100%" stop-color="#9BBFFE" stop-opacity="1"/></linearGradient><linearGradient x1="0.5" y1="0" x2="0.5" y2="1" id="master_svgh_227_04680"><stop offset="0%" stop-color="#FBE214" stop-opacity="1"/><stop offset="100%" stop-color="#EFBE64" stop-opacity="1"/></linearGradient><radialGradient cx="0" cy="0" r="1" gradientUnits="userSpaceOnUse" id="master_svgi_227_04682" gradientTransform="translate(100.02869939804077 571.3392987251282) rotate(0) scale(22.82664155960083 22.82664155960083)"><stop offset="0%" stop-color="#BFD7FF" stop-opacity="1"/><stop offset="100%" stop-color="#7195FF" stop-opacity="1"/></radialGradient></defs><g clip-path="url(#master_svg0_227_04488)"><g><g></g><g><g><ellipse cx="512" cy="687" rx="444" ry="125" fill="#F1F5FD" fill-opacity="1" style="mix-blend-mode:passthrough"/></g><g mask="url(#master_svg1_227_04498)"><g><path d="M49.75,649.9999620361328L49.75,670.9999620361328L11.25,682.9999620361328C500.225,705.0069620361328,747.141,714.3402620361328,752,710.9999620361328C760,705.4999620361328,768.343,699.9209620361328,760,696.4999620361328C744.304,690.0640620361328,715.619,680.1735620361328,568.25,663.4999620361328C529,661.9999620361328,388.75,650.2499620361328,106,638.5000000361329C94.1507,638.0075840361328,75.4007,641.8409220361328,49.75,649.9999620361328Z" fill-rule="evenodd" fill="url(#master_svg2_227_04667)" fill-opacity="1" style="mix-blend-mode:passthrough"/></g></g></g><g><g><path d="M321,396.5L350,401L268.757,565.236L349.617,573.841L349.618,492L376,495.9332L376,576.649L384,577.5L384,610L376,609.1220000000001L376,671L349.618,668L349.617,606.225L236,593.75L236,561.75L321,396.5Z" fill-rule="evenodd" fill="url(#master_svg3_227_04668)" fill-opacity="1" style="mix-blend-mode:passthrough"/></g><g><path d="M697,436.5L726,441L644.757,605.236L725.617,613.841L725.6179999999999,532L752,535.9331999999999L752,616.649L760,617.5L760,650L752,649.1220000000001L752,711L725.6179999999999,708L725.617,646.225L612,633.75L612,601.75L697,436.5Z" fill-rule="evenodd" fill="url(#master_svg4_227_04668)" fill-opacity="1" style="mix-blend-mode:passthrough"/></g><g><path d="M349.75,574L265.25,565L283.5,557L349.75,564L349.75,574Z" fill="url(#master_svg5_227_04669)" fill-opacity="1" style="mix-blend-mode:passthrough"/></g><g><g><path d="M725.75,614L641.25,605L659.5,597L725.75,604L725.75,614Z" fill="#7A7A7A" fill-opacity="1" style="mix-blend-mode:passthrough"/></g><g><path d="M725.75,614L641.25,605L659.5,597L725.75,604L725.75,614Z" fill="url(#master_svg6_227_04669)" fill-opacity="1" style="mix-blend-mode:passthrough"/></g></g><g><path d="M376.0731964,495.8349771875L389.2966,487.4326171875L389.2234,662.5976171875L376,671.0006171875L376.0731964,495.8349771875Z" fill="url(#master_svg7_227_04671)" fill-opacity="1" style="mix-blend-mode:passthrough"/></g><g><path d="M752.0731812,535.8349871875L765.2966,527.4326171875L765.2234,702.5976171875L752,711.0006171875L752.0731812,535.8349871875Z" fill="url(#master_svg8_227_04671)" fill-opacity="1" style="mix-blend-mode:passthrough"/></g><g><path d="M349.7208,400.83485L363.5,392.75L283.5,557L265.25,565L349.7208,400.83485Z" fill="url(#master_svg9_227_04672)" fill-opacity="1" style="mix-blend-mode:passthrough"/></g><g><g><path d="M725.7208,440.83485L739.5,432.75L659.5,597L641.25,605L725.7208,440.83485Z" fill="#B4B4B4" fill-opacity="1" style="mix-blend-mode:passthrough"/></g><g><path d="M725.7208,440.83485L739.5,432.75L659.5,597L641.25,605L725.7208,440.83485Z" fill="url(#master_svga_227_04672)" fill-opacity="1" style="mix-blend-mode:passthrough"/></g></g><g><path d="M512.75,415.4999999723877C556,417.9999960723877,587,448.9070460723877,587,489.5000460723877L587,609.5001460723877C587,650.0931460723878,554.093,683.0001460723877,513.5,683.0001460723877C508.955,683.0001460723877,503.067,683.2901460723876,498.75,682.5001460723877C464.5113,676.2371460723878,440,645.5481460723877,440,609.5001460723877L440,489.5000460723877C440,453.4388460723877,456.9926,422.7479760723877,491.25,416.4999960723877C495.5551,415.7148170723877,503.5,415.2500000723877,512.75,415.4999999723877ZM513.5,450.0851460723877C491.7318,450.0851460723877,474.0851,467.7317460723877,474.0851,489.5000460723877L474.0851,609.5001460723877C474.0851,631.2681460723877,491.7318,648.9151460723876,513.5,648.9151460723876C535.2682,648.9151460723876,552.915,631.2681460723877,552.915,609.5001460723877L552.915,489.5000460723877C552.915,467.7317460723877,535.2682,450.0851460723877,513.5,450.0851460723877Z" fill="url(#master_svgb_227_04674)" fill-opacity="1" style="mix-blend-mode:passthrough"/></g><g><path d="M500.5,416C541.093,416,574,448.9071,574,489.5L574,609.5C574,650.093,541.093,683,500.5,683C459.9071,683,427,650.093,427,609.5L427,489.5C427,448.9071,459.9071,416,500.5,416ZM500.5,450.0851C478.7318,450.0851,461.0851,467.7318,461.0851,489.5L461.0851,609.5C461.0851,631.268,478.7318,648.915,500.5,648.915C522.2682,648.915,539.915,631.268,539.915,609.5L539.915,489.5C539.915,467.7318,522.2682,450.0851,500.5,450.0851Z" fill="url(#master_svgc_227_04675)" fill-opacity="1" style="mix-blend-mode:passthrough"/></g><g><path d="M366.2500156494141,485L389.2500156494141,487.5L376.0000156494141,496L349.59791564941406,492.27106L366.2500156494141,485Z" fill="url(#master_svgd_227_04676)" fill-opacity="1" style="mix-blend-mode:passthrough"/></g><g><g><path d="M742.2500309082031,525L765.2500309082031,527.5L752.0000309082031,536L725.5979309082031,532.27106L742.2500309082031,525Z" fill="#7A7A7A" fill-opacity="1" style="mix-blend-mode:passthrough"/></g><g><path d="M742.2500309082031,525L765.2500309082031,527.5L752.0000309082031,536L725.5979309082031,532.27106L742.2500309082031,525Z" fill="url(#master_svge_227_04677)" fill-opacity="1" style="mix-blend-mode:passthrough"/></g></g><g><g><path d="M333.75,389.5L363.5,392.75L349.6313,401L321,396.59308L333.75,389.5Z" fill="#7A7A7A" fill-opacity="1" style="mix-blend-mode:passthrough"/></g><g><path d="M333.75,389.5L363.5,392.75L349.6313,401L321,396.59308L333.75,389.5Z" fill="url(#master_svgf_227_04678)" fill-opacity="1" style="mix-blend-mode:passthrough"/></g></g><g><g><path d="M709.75,429.5L739.5,432.75L725.6313,441L697,436.59308L709.75,429.5Z" fill="#7A7A7A" fill-opacity="1" style="mix-blend-mode:passthrough"/></g><g><path d="M709.75,429.5L739.5,432.75L725.6313,441L697,436.59308L709.75,429.5Z" fill="url(#master_svgg_227_04678)" fill-opacity="1" style="mix-blend-mode:passthrough"/></g></g></g><g transform="matrix(-0.9659258127212524,0.258819043636322,0.258819043636322,0.9659258127212524,1120.2379356031488,-147.48211890422317)"><path d="M799.3079956054687,246.97444577734376Q799.0819956054688,247.66543577734376,798.8389956054688,248.36220177734376L800.7279956054688,249.01999177734376Q800.9759956054687,248.30598177734376,801.2089956054688,247.59769777734374L799.3079956054687,246.97444577734376ZM798.1709956054688,250.21013177734375Q797.6579956054687,251.58104177734376,797.0829956054688,252.97470177734374L798.9329956054687,253.73654177734375Q799.5199956054687,252.31207177734376,800.0439956054688,250.91149177734374L798.1709956054688,250.21013177734375ZM796.3049956054688,254.81130177734374Q795.7229956054688,256.14646177734375,795.0859956054687,257.50247177734377L796.8969956054688,258.35237177734376Q797.5449956054688,256.97114177734375,798.1379956054687,255.61042177734376L796.3049956054688,254.81130177734374ZM794.2289956054688,259.28727177734373Q793.5829956054688,260.60537177734375,792.8829956054688,261.9480717773437L794.6559956054688,262.8724717773438Q795.3669956054688,261.50897177734373,796.0249956054688,260.16827177734376L794.2289956054688,259.28727177734373ZM791.9499956054688,263.70537177734377Q791.2499956054687,265.00007177734375,790.5009956054687,266.31737177734374L792.2399956054687,267.30537177734374Q792.9989956054687,265.9702717773437,793.7089956054688,264.65647177734377L791.9499956054688,263.70537177734377ZM789.5049956054688,268.04347177734377Q788.7609956054687,269.3142717773437,787.9719956054687,270.60767177734374L789.6789956054688,271.64977177734374Q790.4779956054688,270.34027177734373,791.2309956054687,269.05417177734375L789.5049956054688,268.04347177734377ZM786.9259956054688,272.2988717773437Q786.1489956054687,273.54007177734377,785.3279956054687,274.80637177734377L787.0059956054688,275.89447177734377Q787.8339956054688,274.6165717773438,788.6209956054688,273.36037177734374L786.9259956054688,272.2988717773437ZM784.2499956054687,276.45107177734377L782.5479956054687,278.98077177734376L784.2079956054688,280.09697177734375L785.9089956054688,277.56727177734376L784.2499956054687,276.45107177734377ZM781.3959956054688,280.65287177734376L779.6409956054688,283.14427177734376L781.2759956054688,284.29597177734377L783.0309956054688,281.80457177734377L781.3959956054688,280.65287177734376ZM778.4799956054687,284.7603717773437L776.7259956054687,287.15797177734373L778.3409956054687,288.33857177734376L780.0939956054688,285.9410717773437L778.4799956054687,284.7603717773437ZM775.5719956054687,288.71127177734377L773.8279956054687,291.02607177734376L775.4259956054688,292.2293717773438L777.1699956054688,289.91467177734376L775.5719956054687,288.71127177734377ZM772.5919956054688,292.64707177734374L770.7629956054687,295.02177177734376L772.3469956054687,296.2422717773438L774.1769956054687,293.86757177734376L772.5919956054688,292.64707177734374ZM769.5749956054688,296.55147177734375L767.6819956054687,298.97667177734377L769.2589956054687,300.20727177734375L771.1519956054688,297.78197177734376L769.5749956054688,296.55147177734375ZM765.1719956054687,302.1885717773438L764.6469956054688,302.8586717773438L766.2219956054687,304.0918717773437L766.7459956054688,303.42167177734376L768.0329956054687,301.7750717773437L766.4569956054688,300.5438717773437L765.1719956054687,302.1885717773438ZM763.3789956054687,304.45457177734374Q762.4329956054687,305.63187177734375,761.4759956054687,306.7870717773437L763.0159956054688,308.06307177734374Q763.9829956054688,306.89657177734375,764.9379956054688,305.70687177734374L763.3789956054687,304.45457177734374ZM760.2089956054688,308.2999717773437Q759.2659956054688,309.41487177734376,758.3139956054688,310.50707177734375L759.8209956054687,311.82187177734374Q760.7839956054688,310.71807177734377,761.7359956054688,309.5916717773438L760.2089956054688,308.2999717773437ZM756.9889956054687,312.0094717773437Q755.9729956054688,313.14847177734373,754.9469956054687,314.26207177734375L756.4179956054687,315.6174717773438Q757.4549956054688,314.49147177734375,758.4819956054687,313.34037177734376L756.9889956054687,312.0094717773437ZM753.5919956054688,315.71657177734374Q752.5849956054687,316.78477177734374,751.5689956054688,317.82827177734373L753.0019956054688,319.22377177734376Q754.0289956054687,318.16877177734375,755.0469956054687,317.08807177734377L753.5919956054688,315.71657177734374ZM750.1969956054687,319.22107177734375Q749.1139956054687,320.30847177734375,748.0199956054687,321.36697177734374L749.4119956054687,322.8038717773437Q750.5169956054688,321.73307177734375,751.6139956054687,320.63257177734374L750.1969956054687,319.22107177734375ZM746.5809956054687,322.74417177734375Q745.5139956054687,323.75207177734376,744.4399956054688,324.73107177734374L745.7879956054687,326.20907177734375Q746.8749956054687,325.21787177734376,747.9549956054688,324.19767177734377L746.5809956054687,322.74417177734375ZM742.9799956054687,326.04607177734374Q741.8339956054688,327.06497177734377,740.6799956054688,328.0504717773438L741.9789956054688,329.5712717773438Q743.1479956054687,328.5728717773437,744.3079956054687,327.54077177734376L742.9799956054687,326.04607177734374ZM636.1222956054687,329.65787177734376Q637.4278956054687,329.39567177734375,638.9568956054687,329.29217177734375L638.8218956054687,327.29677177734374Q637.1623956054688,327.40907177734374,635.7283956054688,327.69707177734375L636.1222956054687,329.65787177734376ZM640.6140956054687,329.44987177734373Q641.7967956054688,329.7313717773437,643.1960956054687,330.44747177734376L644.1071956054687,328.6670717773437Q642.4939956054687,327.84147177734377,641.0772956054687,327.50417177734374L640.6140956054687,329.44987177734373ZM631.8618956054687,331.32067177734376Q632.8821956054687,330.61667177734375,634.2774956054687,330.14547177734374L633.6374956054688,328.25067177734377Q631.9768956054687,328.81147177734374,630.7260956054688,329.67447177734374L631.8618956054687,331.32067177734376ZM739.1659956054688,329.32597177734374Q738.0499956054688,330.2542717773438,736.9279956054687,331.14957177734374L738.1759956054688,332.7125717773438Q739.3129956054688,331.8049717773438,740.4449956054688,330.86377177734374L739.1659956054688,329.32597177734374ZM644.8113956054688,331.37827177734374Q645.9734956054688,332.11887177734377,647.1727956054688,333.07687177734374L648.4209956054688,331.51417177734373Q647.1383956054688,330.48967177734374,645.8863956054688,329.69167177734374L644.8113956054688,331.37827177734374ZM629.4026956054688,334.74697177734373Q629.7346956054688,333.46747177734375,630.5711956054688,332.4777717773437L629.0436956054688,331.18667177734375Q627.9130956054687,332.52427177734376,627.4667956054687,334.24467177734374L629.4026956054688,334.74697177734373ZM735.3209956054687,332.41397177734376Q734.1239956054687,333.34117177734373,732.9249956054688,334.22877177734375L734.1139956054687,335.83657177734375Q735.3309956054687,334.93617177734376,736.5459956054688,333.9949717773437L735.3209956054687,332.41397177734376ZM648.6628956054687,334.33997177734375Q649.7223956054687,335.29007177734377,650.7568956054688,336.3647717773438L652.1977956054687,334.97767177734374Q651.1122956054687,333.8500717773437,649.9979956054688,332.8509717773437L648.6628956054687,334.33997177734375ZM731.3599956054687,335.36887177734377Q730.1339956054687,336.24847177734375,728.9089956054687,337.08317177734375L730.0349956054688,338.73587177734373Q731.2799956054687,337.88767177734377,732.5259956054688,336.9940717773437L731.3599956054687,335.36887177734377ZM629.5503956054688,339.15807177734376Q629.1726956054688,337.7184717773438,629.1863956054688,336.44437177734375L627.1864956054687,336.42287177734374Q627.1699956054688,337.96587177734375,627.6157956054687,339.66557177734376L629.5503956054688,339.15807177734376ZM652.1036956054687,337.8296717773437Q653.0559956054688,338.9136717773438,653.9527956054687,340.07417177734374L655.5353956054687,338.85127177734375Q654.6000956054687,337.64097177734374,653.6061956054688,336.5096717773438L652.1036956054687,337.8296717773437ZM727.2359956054687,338.20247177734376Q726.0159956054688,339.00417177734374,724.8029956054687,339.7569717773438L725.8579956054688,341.45617177734374Q727.0929956054688,340.68987177734374,728.3349956054687,339.87397177734374L727.2359956054687,338.20247177734376ZM655.1350956054688,341.6722717773438Q655.9654956054687,342.84497177734374,656.7227956054687,344.06347177734375L658.4213956054688,343.0076717773437Q657.6323956054688,341.7381717773437,656.7673956054688,340.5164717773438L655.1350956054688,341.6722717773438ZM723.0669956054687,340.81227177734377Q721.7669956054688,341.58497177734375,720.4869956054688,342.2938717773437L721.4549956054688,344.04347177734377Q722.7619956054688,343.31997177734377,724.0889956054688,342.53147177734377L723.0669956054687,340.81227177734377ZM631.4118956054688,343.49647177734374Q630.6542956054687,342.20107177734377,630.1445956054688,340.93617177734376L628.2894956054688,341.68367177734376Q628.8539956054688,343.08437177734373,629.6854956054688,344.50617177734375L631.4118956054688,343.49647177734374ZM718.8129956054688,343.19767177734377Q717.4269956054687,343.92707177734377,716.0869956054687,344.5678717773437L716.9489956054688,346.37227177734377Q718.3239956054688,345.7148717773438,719.7449956054687,344.9675717773438L718.8129956054688,343.19767177734377ZM657.7179956054688,345.74077177734375Q658.4537956054687,347.04157177734373,659.0959956054687,348.37007177734375L660.8965956054687,347.4990717773437Q660.2262956054687,346.1129717773438,659.4586956054687,344.75597177734375L657.7179956054688,345.74077177734375ZM634.2459956054688,347.4100717773438Q633.2759956054688,346.29717177734375,632.4599956054687,345.12987177734374L630.8207956054688,346.27567177734375Q631.6979956054688,347.5300717773438,632.7381956054687,348.72407177734374L634.2459956054688,347.4100717773438ZM714.3149956054688,345.3846717773438Q713.1189956054687,345.91477177734373,711.7329956054688,346.44167177734374L712.4429956054687,348.3110717773437Q713.8799956054687,347.76507177734373,715.1259956054687,347.21297177734374L715.2059956054687,347.17707177734377L714.3939956054687,345.34927177734374L714.3149956054688,345.3846717773438ZM709.8679956054688,347.11867177734376Q708.5219956054688,347.58607177734376,707.0419956054687,348.04407177734373L707.6329956054688,349.95507177734373Q709.1459956054688,349.48607177734374,710.5239956054687,349.00807177734373L709.8679956054688,347.11867177734376ZM705.2039956054688,348.59407177734374Q703.8559956054687,348.98507177734376,702.4219956054687,349.36307177734375L702.9329956054687,351.2970717773437Q704.3889956054687,350.9120717773437,705.7599956054687,350.51507177734373L705.2039956054688,348.59407177734374ZM637.7316956054688,350.78807177734376Q636.6091956054687,349.87107177734373,635.5713956054688,348.83107177734377L634.1554956054688,350.2440717773437Q635.2652956054687,351.35607177734374,636.4666956054688,352.33707177734374L637.7316956054688,350.78807177734376ZM659.9267956054688,350.1910717773437Q660.5079956054688,351.54607177734374,660.9855956054688,352.9120717773437L662.8734956054687,352.25207177734376Q662.3731956054687,350.8210717773437,661.7647956054687,349.40307177734377L659.9267956054688,350.1910717773437ZM700.4895956054687,349.85907177734373Q699.0219956054688,350.22407177734374,697.4865956054688,350.57407177734376L697.9310956054687,352.52407177734375Q699.4856956054688,352.17007177734376,700.9726956054687,351.80007177734376L700.4895956054687,349.85907177734373ZM695.5402956054687,351.0060717773438L692.6538956054687,351.60407177734373L693.0595956054688,353.56207177734376L695.9458956054688,352.96407177734375L695.5402956054687,351.0060717773438ZM639.7105956054687,352.25907177734376Q639.4856956054688,352.1070717773438,639.2622956054688,351.95007177734374L638.1110956054688,353.58607177734376Q638.3517956054687,353.75507177734374,638.5945956054687,353.91807177734376Q639.5754956054687,354.5780717773438,640.9192956054687,355.11007177734376L641.6555956054688,353.25007177734375Q640.5123956054688,352.79807177734375,639.7105956054687,352.25907177734376ZM690.7190956054687,351.97807177734376L687.7353956054687,352.51607177734377L688.0902956054688,354.48407177734373L691.0739956054688,353.9460717773437L690.7190956054687,351.97807177734376ZM685.7474956054688,352.84907177734374L682.7836956054688,353.3090717773438L683.0903956054688,355.28607177734375L686.0541956054687,354.82607177734377L685.7474956054688,352.84907177734374ZM680.6048956054688,353.62007177734375L677.8490956054687,353.97907177734373L678.1076956054687,355.96207177734374L680.8634956054688,355.60307177734376L681.0917956054687,355.57207177734375L680.8189956054688,353.5900717773437L680.6048956054688,353.62007177734375ZM646.2446956054688,354.4750717773437Q644.6915956054687,354.19907177734376,643.4094956054687,353.83607177734376L642.8655956054688,355.7610717773438Q644.2434956054688,356.1500717773438,645.8943956054687,356.44407177734377L646.2446956054688,354.4750717773437ZM661.5871956054688,354.7750717773438Q662.0055956054688,356.18807177734374,662.3090956054688,357.59807177734376L664.2642956054688,357.17707177734377Q664.2635956054687,357.1740717773438,664.2628956054688,357.17107177734374Q665.1393956054687,357.12907177734377,666.0342956054687,357.07707177734375L665.9174956054687,355.08007177734373Q664.8361956054688,355.14407177734375,663.7829956054687,355.1910717773437Q663.6505956054688,354.69907177734376,663.5047956054688,354.20707177734374L661.5871956054688,354.7750717773438ZM675.8908956054688,354.21207177734374L672.8888956054687,354.5300717773438L673.0998956054688,356.51907177734375L676.1018956054687,356.20007177734374L675.8908956054688,354.21207177734374ZM670.8854956054688,354.71607177734376L667.8747956054688,354.95407177734376L668.0324956054687,356.9480717773438L671.0430956054688,356.7100717773437L670.8854956054688,354.71607177734376ZM651.1076956054687,355.07607177734377Q649.5791956054687,354.95507177734373,648.2090956054687,354.77607177734376L647.9502956054688,356.75907177734376Q649.3707956054687,356.94407177734377,650.9498956054688,357.06907177734377L651.1076956054687,355.07607177734377ZM655.9326956054688,355.30507177734376Q654.4784956054688,355.27607177734376,653.1223956054688,355.20607177734377L653.0194956054687,357.20407177734376Q654.4073956054688,357.2750717773438,655.8931956054687,357.30507177734376L655.9326956054688,355.30507177734376ZM660.9352956054688,355.28907177734374Q659.3713956054687,355.32707177734375,657.8898956054687,355.32507177734374L657.8876956054687,357.32507177734374Q659.3939956054687,357.32707177734375,660.9834956054688,357.28807177734376L660.9352956054688,355.28907177734374ZM662.6682956054688,359.51507177734373Q662.8996956054688,360.96407177734375,663.0066956054687,362.4000717773438L665.0011956054688,362.2510717773438Q664.8878956054688,360.73107177734374,664.6432956054688,359.19907177734376L662.6682956054688,359.51507177734373ZM663.0945956054687,364.34207177734373Q663.1175956054688,365.80007177734376,663.0098956054687,367.23607177734374L665.0042956054688,367.38507177734374Q665.1187956054688,365.85907177734373,665.0943956054688,364.31007177734375L663.0945956054687,364.34207177734373ZM662.8052956054687,369.16307177734376Q662.6071956054687,370.6000717773437,662.2757956054687,372.01007177734374L664.2226956054687,372.46707177734373Q664.5755956054687,370.96707177734373,664.7864956054688,369.4360717773437L662.8052956054687,369.16307177734376ZM661.7764956054688,373.87007177734375Q661.3555956054688,375.26407177734376,660.8016956054687,376.62507177734375L662.6541956054688,377.3790717773437Q663.2431956054687,375.93107177734373,663.6909956054687,374.44907177734376L661.7764956054688,373.87007177734375ZM660.0327956054688,378.36507177734376Q659.4032956054688,379.6840717773438,658.6460956054688,380.9700717773437L660.3691956054688,381.98507177734376Q661.1706956054687,380.62507177734375,661.8377956054687,379.2270717773438L660.0327956054688,378.36507177734376ZM657.6330956054687,382.58707177734374Q656.8417956054687,383.7800717773438,655.9377956054688,384.94007177734375L657.5153956054687,386.1690717773438Q658.4660956054688,384.94907177734376,659.2994956054688,383.6930717773438L657.6330956054687,382.58707177734374ZM654.6609956054688,386.49707177734376Q653.7461956054688,387.5590717773438,652.7340956054687,388.5920717773438L654.1623956054688,389.99207177734377Q655.2194956054688,388.91307177734376,656.1762956054688,387.8020717773437L654.6609956054688,386.49707177734376ZM649.1218956054688,391.92507177734376L649.0571956054688,391.97907177734373L650.3415956054688,393.51207177734375L650.4062956054687,393.4580717773438Q651.6058956054687,392.45207177734375,652.7093956054688,391.41407177734374L651.3392956054688,389.95707177734374Q650.2771956054687,390.9560717773437,649.1218956054688,391.92507177734376ZM647.5524956054687,393.21307177734377Q646.4108956054688,394.1310717773438,645.2328956054688,395.0230717773437L646.4396956054687,396.61707177734377Q647.6414956054688,395.7080717773438,648.8055956054687,394.77207177734374L647.5524956054687,393.21307177734377ZM643.6448956054687,396.20007177734374Q642.4415956054687,397.07507177734374,641.2006956054688,397.9240717773438L642.3302956054688,399.57507177734374Q643.5945956054687,398.70907177734375,644.8208956054688,397.8180717773438L643.6448956054687,396.20007177734374ZM639.5296956054688,399.04507177734376Q638.3148956054688,399.84407177734374,637.0658956054688,400.61807177734374L638.1202956054688,402.3180717773438Q639.3912956054687,401.52907177734374,640.6283956054688,400.71607177734376L639.5296956054688,399.04507177734376ZM635.3927956054688,401.63707177734375Q634.1262956054687,402.3930717773437,632.8260956054687,403.12507177734375L633.8075956054688,404.86807177734374Q635.1300956054688,404.12307177734374,636.4178956054687,403.35407177734373L635.3927956054688,401.63707177734375ZM631.0769956054687,404.09107177734376Q629.7534956054687,404.80807177734374,628.3961956054687,405.5010717773438L629.3059956054688,407.28307177734376Q630.6848956054688,406.5780717773438,632.0295956054688,405.8500717773437L631.0769956054687,404.09107177734376ZM626.6568956054688,406.37307177734374Q625.3513956054687,407.01607177734377,624.0152956054687,407.63707177734375L624.8584956054688,409.4510717773437Q626.2147956054688,408.82007177734374,627.5397956054687,408.16807177734376L626.6568956054688,406.37307177734374ZM622.2199956054687,408.4560717773437Q620.8628956054688,409.06407177734377,619.4759956054687,409.6500717773438L620.2544956054687,411.49207177734377Q621.6613956054688,410.89707177734374,623.0371956054687,410.28107177734375L622.2199956054687,408.4560717773437ZM617.6124956054688,410.4220717773437Q616.2341956054687,410.9820717773438,614.8259956054687,411.5230717773437L615.5422956054688,413.3900717773438Q616.9692956054688,412.8420717773438,618.3655956054688,412.2750717773438L617.6124956054688,410.4220717773437ZM613.0101956054688,412.2060717773437Q611.6392456054688,412.71307177734377,610.2412056054687,413.2010717773437L610.9002056054687,415.08907177734375Q612.3158556054688,414.5950717773437,613.7033956054687,414.08207177734374L613.0101956054688,412.2060717773437ZM608.3732756054687,413.8400717773437L605.4970156054687,414.7780717773437L606.1169756054687,416.68007177734376L608.9932256054688,415.74207177734377L608.3732756054687,413.8400717773437ZM603.5725556054688,415.37507177734375L602.0961146054688,415.81707177734376L602.6698766054687,417.73307177734375L604.1463256054687,417.29107177734375L603.5725556054688,415.37507177734375Z" fill-rule="evenodd" fill="#60A3FF" fill-opacity="1" style="mix-blend-mode:passthrough"/></g><g><path d="M351,260.5L377,304.5L411,268L351,260.5Z" fill="url(#master_svgh_227_04680)" fill-opacity="1" style="mix-blend-mode:passthrough"/></g><g><path d="M387.25,293.25L396.5,298.5L397.5,282L387.25,293.25Z" fill="#C09332" fill-opacity="1" style="mix-blend-mode:passthrough"/></g><g><path d="M381,277.5L397.5,282.5L392.5,287.5L381,277.5Z" fill="#C09332" fill-opacity="1" style="mix-blend-mode:passthrough"/></g><g><ellipse cx="105" cy="568" rx="18" ry="18" fill="url(#master_svgi_227_04682)" fill-opacity="1" style="mix-blend-mode:passthrough"/></g></g></g></svg>