<svg xmlns="http://www.w3.org/2000/svg" xmlns:xlink="http://www.w3.org/1999/xlink" fill="none" version="1.1" width="1024" height="1024" viewBox="0 0 1024 1024"><defs><clipPath id="master_svg0_227_04586"><rect x="0" y="0" width="1024" height="1024" rx="0"/></clipPath><mask id="master_svg1_227_04596" style="mask-type:alpha" maskUnits="objectBoundingBox"><g><g><ellipse cx="512" cy="692" rx="444" ry="125" fill="#000000" fill-opacity="1" style="mix-blend-mode:passthrough"/></g></g></mask><linearGradient x1="0.07043590396642685" y1="0.4962369501590729" x2="0.5891685756959046" y2="0.5008385075553718" id="master_svg2_227_04686"><stop offset="0%" stop-color="#3A58DD" stop-opacity="0"/><stop offset="100%" stop-color="#4164FF" stop-opacity="0.8468640446662903"/></linearGradient><linearGradient x1="0.5879225134849548" y1="1.0158135890960693" x2="0.4325738632125847" y2="0.11841835308907177" id="master_svg3_227_04687"><stop offset="0%" stop-color="#D9EAFF" stop-opacity="1"/><stop offset="100%" stop-color="#9BBFFE" stop-opacity="1"/></linearGradient><linearGradient x1="0.5879225134849548" y1="1.0158135890960693" x2="0.4325738632125847" y2="0.11841835308907177" id="master_svg4_227_04687"><stop offset="0%" stop-color="#D9EAFF" stop-opacity="1"/><stop offset="100%" stop-color="#9BBFFE" stop-opacity="1"/></linearGradient><linearGradient x1="0.38764768838882446" y1="-0.1374761164188385" x2="0.6197632673905614" y2="0.9885751969086641" id="master_svg5_227_04689"><stop offset="0%" stop-color="#3A5EDF" stop-opacity="1"/><stop offset="54.40521240234375%" stop-color="#3A5EDF" stop-opacity="1"/><stop offset="100%" stop-color="#B6D5FF" stop-opacity="1"/></linearGradient><linearGradient x1="0.38764768838882446" y1="-0.1374761164188385" x2="0.6197632673905614" y2="0.9885751969086641" id="master_svg6_227_04689"><stop offset="0%" stop-color="#3A5EDF" stop-opacity="1"/><stop offset="54.40521240234375%" stop-color="#3A5EDF" stop-opacity="1"/><stop offset="100%" stop-color="#B6D5FF" stop-opacity="1"/></linearGradient><linearGradient x1="0.4912314713001251" y1="0.9429406523704529" x2="0.5512024652246371" y2="-0.013173932225777354" id="master_svg7_227_04690"><stop offset="0%" stop-color="#CAE1FF" stop-opacity="1"/><stop offset="31.87676966190338%" stop-color="#A5C7F9" stop-opacity="1"/><stop offset="100%" stop-color="#3258E8" stop-opacity="1"/><stop offset="100%" stop-color="#3258E8" stop-opacity="1"/></linearGradient><linearGradient x1="0.436922550201416" y1="0.9429406523704529" x2="0.8683299720573421" y2="-0.013173200688448572" id="master_svg8_227_04691"><stop offset="0%" stop-color="#CAE1FF" stop-opacity="1"/><stop offset="31.87676966190338%" stop-color="#A5C7F9" stop-opacity="1"/><stop offset="100%" stop-color="#3258E8" stop-opacity="1"/><stop offset="100%" stop-color="#3258E8" stop-opacity="1"/></linearGradient><linearGradient x1="0.7684463262557983" y1="1.0158135890960693" x2="0.2941337528548884" y2="0.11841840528936123" id="master_svg9_227_04692"><stop offset="0%" stop-color="#D9EAFF" stop-opacity="1"/><stop offset="100%" stop-color="#9BBFFE" stop-opacity="1"/></linearGradient><linearGradient x1="0.36421293020248413" y1="-0.1374761164188385" x2="0.6447437735321143" y2="0.9885751825919858" id="master_svga_227_04693"><stop offset="0%" stop-color="#3A5EDF" stop-opacity="1"/><stop offset="54.40521240234375%" stop-color="#3A5EDF" stop-opacity="1"/><stop offset="100%" stop-color="#B6D5FF" stop-opacity="1"/></linearGradient><linearGradient x1="0.7710617780685425" y1="0.5057212114334106" x2="4.935354116749373e-10" y2="0.49999997918572364" id="master_svgb_227_04695"><stop offset="0%" stop-color="#D9EAFF" stop-opacity="1"/><stop offset="100%" stop-color="#9BBFFE" stop-opacity="1"/></linearGradient><linearGradient x1="1" y1="0.5072793960571289" x2="0.020348058724694904" y2="0.519388614035156" id="master_svgc_227_04696"><stop offset="0%" stop-color="#D9EAFF" stop-opacity="1"/><stop offset="100%" stop-color="#9BBFFE" stop-opacity="1"/></linearGradient><linearGradient x1="0.5" y1="0" x2="0.5" y2="1" id="master_svgd_227_04697"><stop offset="0%" stop-color="#FADE1E" stop-opacity="1"/><stop offset="100%" stop-color="#F1C556" stop-opacity="1"/></linearGradient><radialGradient cx="0" cy="0" r="1" gradientUnits="userSpaceOnUse" id="master_svge_227_04700" gradientTransform="translate(383.02869939804077 763.3392987251282) rotate(0) scale(22.82664155960083 22.82664155960083)"><stop offset="0%" stop-color="#BFD7FF" stop-opacity="1"/><stop offset="100%" stop-color="#7195FF" stop-opacity="1"/></radialGradient></defs><g clip-path="url(#master_svg0_227_04586)"><g><g></g><g><g><ellipse cx="512" cy="692" rx="444" ry="125" fill="#F1F5FD" fill-opacity="1" style="mix-blend-mode:passthrough"/></g><g mask="url(#master_svg1_227_04596)"><g><path d="M49.75,649.9999620361328L49.75,670.9999620361328L11.25,682.9999620361328C492.391,703.6736620361328,735.391,712.3402620361328,740.25,708.9999620361328C748.25,703.4999620361328,768.343,699.9209620361328,760,696.4999620361328C744.304,690.0640620361328,715.619,680.1735620361328,568.25,663.4999620361328C529,661.9999620361328,388.75,650.2499620361328,106,638.5000000361329C94.1507,638.0075840361328,75.4007,641.8409220361328,49.75,649.9999620361328Z" fill-rule="evenodd" fill="url(#master_svg2_227_04686)" fill-opacity="1" style="mix-blend-mode:passthrough"/></g></g></g><g><path d="M542.75,421.50000002382814C586,423.9999994238281,617,454.9070594238281,617,495.49995942382816L617,615.5001594238281C617,656.0931594238282,584.093,689.0001594238281,543.5,689.0001594238281C538.955,689.0001594238281,533.067,689.2901594238281,528.75,688.5001594238281C494.5113,682.2371594238282,470,651.5481594238281,470,615.5001594238281L470,495.49995942382816C470,459.43885942382815,486.9926,428.74798942382813,521.25,422.4999994238281C525.5551,421.7148134238281,533.5,421.2500004238281,542.75,421.50000002382814ZM543.5,456.08515942382815C521.7318,456.08515942382815,504.0851,473.7317594238281,504.0851,495.49995942382816L504.0851,615.5001594238281C504.0851,637.2681594238281,521.7318,654.9151594238281,543.5,654.9151594238281C565.2682,654.9151594238281,582.915,637.2681594238281,582.915,615.5001594238281L582.915,495.49995942382816C582.915,473.7317594238281,565.2682,456.08515942382815,543.5,456.08515942382815Z" fill="url(#master_svg3_227_04687)" fill-opacity="1" style="mix-blend-mode:passthrough"/></g><g><g><path d="M743.75,441.50000002382814C787,443.9999994238281,818,474.9070594238281,818,515.4999594238282L818,635.5001594238281C818,676.0931594238282,785.093,709.0001594238281,744.5,709.0001594238281C739.955,709.0001594238281,734.067,709.2901594238281,729.75,708.5001594238281C695.5113,702.2371594238282,671,671.5481594238281,671,635.5001594238281L671,515.4999594238282C671,479.43885942382815,687.9926,448.74798942382813,722.25,442.4999994238281C726.5551,441.7148134238281,734.5,441.2500004238281,743.75,441.50000002382814ZM744.5,476.08515942382815C722.7318,476.08515942382815,705.0851,493.7317594238281,705.0851,515.4999594238282L705.0851,635.5001594238281C705.0851,657.2681594238281,722.7318,674.9151594238281,744.5,674.9151594238281C766.2682,674.9151594238281,783.915,657.2681594238281,783.915,635.5001594238281L783.915,515.4999594238282C783.915,493.7317594238281,766.2682,476.08515942382815,744.5,476.08515942382815Z" fill="#979797" fill-opacity="1" style="mix-blend-mode:passthrough"/></g><g><path d="M743.75,441.50000002382814C787,443.9999994238281,818,474.9070594238281,818,515.4999594238282L818,635.5001594238281C818,676.0931594238282,785.093,709.0001594238281,744.5,709.0001594238281C739.955,709.0001594238281,734.067,709.2901594238281,729.75,708.5001594238281C695.5113,702.2371594238282,671,671.5481594238281,671,635.5001594238281L671,515.4999594238282C671,479.43885942382815,687.9926,448.74798942382813,722.25,442.4999994238281C726.5551,441.7148134238281,734.5,441.2500004238281,743.75,441.50000002382814ZM744.5,476.08515942382815C722.7318,476.08515942382815,705.0851,493.7317594238281,705.0851,515.4999594238282L705.0851,635.5001594238281C705.0851,657.2681594238281,722.7318,674.9151594238281,744.5,674.9151594238281C766.2682,674.9151594238281,783.915,657.2681594238281,783.915,635.5001594238281L783.915,515.4999594238282C783.915,493.7317594238281,766.2682,476.08515942382815,744.5,476.08515942382815Z" fill="url(#master_svg4_227_04687)" fill-opacity="1" style="mix-blend-mode:passthrough"/></g></g><g><path d="M530.5,422C571.093,422,604,454.9071,604,495.5L604,615.5C604,656.093,571.093,689,530.5,689C489.9071,689,457,656.093,457,615.5L457,495.5C457,454.9071,489.9071,422,530.5,422ZM530.5,456.0851C508.7318,456.0851,491.0851,473.7318,491.0851,495.5L491.0851,615.5C491.0851,637.268,508.7318,654.915,530.5,654.915C552.2682,654.915,569.915,637.268,569.915,615.5L569.915,495.5C569.915,473.7318,552.2682,456.0851,530.5,456.0851Z" fill="url(#master_svg5_227_04689)" fill-opacity="1" style="mix-blend-mode:passthrough"/></g><g><path d="M731.5,442C772.093,442,805,474.9071,805,515.5L805,635.5C805,676.093,772.093,709,731.5,709C690.9071,709,658,676.093,658,635.5L658,515.5C658,474.9071,690.9071,442,731.5,442ZM731.5,476.0851C709.7318,476.0851,692.0851,493.7318,692.0851,515.5L692.0851,635.5C692.0851,657.268,709.7318,674.915,731.5,674.915C753.2682,674.915,770.915,657.268,770.915,635.5L770.915,515.5C770.915,493.7318,753.2682,476.0851,731.5,476.0851Z" fill="url(#master_svg6_227_04689)" fill-opacity="1" style="mix-blend-mode:passthrough"/></g><g><path d="M292,419.7499957324219L305.2234,411.3476257324219L305.25,502.5000257324219L292.0266113,511.4026257324219L292,419.7499957324219Z" fill="url(#master_svg7_227_04690)" fill-opacity="1" style="mix-blend-mode:passthrough"/></g><g><path d="M406,416.7499957324219L419.2234,408.3476257324219L419.25,436.7500257324219L406.0266113,445.6523257324219L406,416.7499957324219Z" fill="url(#master_svg8_227_04691)" fill-opacity="1" style="mix-blend-mode:passthrough"/></g><g><path d="M305.25,500.5L352.997,506.76999L353,506.75C400.5,512.6326,430,555.7714,429.985,597.0444C429.96799999999996,641.379,398.5,671.707,345,668.521C291.5,665.3340000000001,268.5,623.841,268.5,580.6789L292,577.0957C292,578.2043,292.43,585.3085,292.5,586.4098C293.3481,599.7556,299.8106,611.713,308.75,621.46C319.528,633.212,335.3345,642.771,352,643.52C384.75,644.99,404.985,626.613,404.985,597.0444C404.985,567.4977,380.459,542.9377,347.7325,539.0135L351.335,516.947L292,509.5L305.25,500.5Z" fill="url(#master_svg9_227_04692)" fill-opacity="1" style="mix-blend-mode:passthrough"/></g><g><path d="M266,402L406,417.085L406,445.75L292,433.467L292,509.591L338.75,514.25L338.937,514.549L339.0032,514C383.635,519.353,418,554.337,418,596.712C418,640.924,380.966,672.799,335.9871,667.405C292.17719999999997,662.15,257,623.434,257,580.392L281.925,580.392C281.925,611.048,307.6706,639.383,339.0129,643.142C369.18600000000004,646.761,393.075,626.1990000000001,393.075,596.712C393.075,570.017,373.005,547.404,344.96659999999997,540.4780000000001L266,533L266,402Z" fill-rule="evenodd" fill="url(#master_svga_227_04693)" fill-opacity="1" style="mix-blend-mode:passthrough"/></g><g><g><path d="M406,417L266,402L279.25,393.75L419,408.25L406,417Z" fill="#7A7A7A" fill-opacity="1" style="mix-blend-mode:passthrough"/></g><g><path d="M406,417L266,402L279.25,393.75L419,408.25L406,417Z" fill="url(#master_svgb_227_04695)" fill-opacity="1" style="mix-blend-mode:passthrough"/></g></g><g><g><path d="M269.9209,573.6264038085938L292,577.0000038085938L282,584.2500038085938L257,580.5000038085938L269.9209,573.6264038085938Z" fill="#7A7A7A" fill-opacity="1" style="mix-blend-mode:passthrough"/></g><g><path d="M269.9209,573.6264038085938L292,577.0000038085938L282,584.2500038085938L257,580.5000038085938L269.9209,573.6264038085938Z" fill="url(#master_svgc_227_04696)" fill-opacity="1" style="mix-blend-mode:passthrough"/></g></g><g transform="matrix(0.9455185532569885,0.32556816935539246,-0.32556816935539246,0.9455185532569885,128.63154565493096,-202.90021124880695)"><ellipse cx="693.6057548522949" cy="308.3857421875" rx="23.048076629638672" ry="25.5" fill="url(#master_svgd_227_04697)" fill-opacity="1" style="mix-blend-mode:passthrough"/></g><g transform="matrix(0.9945219159126282,-0.10452846437692642,0.10452846437692642,0.9945219159126282,-31.174665325830347,71.68755202845341)"><path d="M676.4486721679688,334.20089767773436L668.3527221679688,339.8994396777344L678.0690321679688,344.13546967773436L677.6707721679687,334.76562967773435L677.7492721679688,333.2676696777344L676.4486721679688,334.20089767773436Z" fill="#F1C554" fill-opacity="1" style="mix-blend-mode:passthrough"/></g><g><path d="M672.9997,340.588949L671.9872,341.738145L673.4879,343.06025L674.5003,341.911051L672.9997,340.588949ZM670.6694,343.26122Q669.7004,344.39324,668.7847,345.49976L670.3256,346.77483Q671.2306,345.68118,672.1888,344.56181L670.6694,343.26122ZM667.5155,347.05306Q666.553,348.24648,665.6546,349.40922L667.2372,350.63204Q668.1229,349.48574,669.0723,348.30866L667.5155,347.05306ZM664.4846,350.94679Q663.5489,352.196,662.6897,353.4087L664.3217,354.5649Q665.1655,353.3738,666.0853,352.1458L664.4846,350.94679ZM661.5668000000001,355.0262Q660.6983,356.304,659.9181,357.5399L661.6094,358.6075Q662.3714,357.4003,663.2209,356.1505L661.5668000000001,355.0262ZM658.8731,359.2431Q658.0809,360.5735,657.3959,361.8532L659.1592,362.7971Q659.8226,361.5575,660.5915,360.2664L658.8731,359.2431ZM656.4775,363.6442Q655.7866,365.0554,655.2332,366.4023L657.0832,367.1624Q657.6117,365.8761,658.2738,364.5237L656.4775,363.6442ZM654.5191,368.2758Q653.9871,369.7937,653.6415,371.2256L655.5857,371.6948Q655.9077,370.3604,656.4065,368.9373L654.5191,368.2758ZM653,376.2508L653.00003,376.2926L655,376.29110000000003L655,376.2492Q655,374.94100000000003,655.2216,373.5187L653.24547,373.2108Q653,374.7861,653,376.2508ZM653.05826,378.2338Q653.13283,379.5886,653.31343,381.3104L655.3025,381.1018Q655.1271,379.4292,655.0552,378.1239L653.05826,378.2338ZM653.53292,383.2433L653.9038,386.2005L655.8883,385.9516L655.5174,382.9944L653.53292,383.2433ZM654.1511,388.1727Q654.3493,389.7926,654.4827,391.0788L656.472,390.8725Q656.3368,389.568,656.1363,387.9298L654.1511,388.1727ZM654.6689,393.0528Q654.7969,394.5762,654.8596,395.9576L656.8575,395.8669Q656.7931,394.4472,656.6619,392.8854L654.6689,393.0528ZM654.9173,397.9018Q654.9371,399.4079,654.8741,400.8144L656.8721,400.9039Q656.9377,399.4395,656.9171,397.8755L654.9173,397.9018ZM654.7461,402.7325Q654.6137,404.2101,654.3801,405.6038L656.3525,405.9344Q656.5989,404.46500000000003,656.7382,402.9111L654.7461,402.7325ZM654.0124,407.4754Q653.69227,408.8902,653.25646,410.2296L655.1583,410.8485Q655.6226,409.4215,655.9631,407.9169L654.0124,407.4754ZM652.59886,412.0455Q652.07409,413.3566,651.42663,414.5996L653.20044,415.5235Q653.8939,414.1922,654.4556,412.7887L652.59886,412.0455ZM650.49477,416.2502Q649.73265,417.4998,648.83392,418.6819L650.426,419.8924Q651.3868,418.6287,652.20227,417.2916L650.49477,416.2502ZM647.64866,420.14300000000003Q646.72132,421.2164,645.67049,422.2332L647.06122,423.6705Q648.17631,422.5915,649.16209,421.45050000000003L647.64866,420.14300000000003ZM644.264503,423.52049999999997Q643.7099302,424.0014,643.125303,424.4691L644.374697,426.0309Q644.99036,425.5383,645.57489,425.0314L644.264503,423.52049999999997Z" fill-rule="evenodd" fill="#60A3FF" fill-opacity="1" style="mix-blend-mode:passthrough"/></g><g><ellipse cx="388" cy="760" rx="18" ry="18" fill="url(#master_svge_227_04700)" fill-opacity="1" style="mix-blend-mode:passthrough"/></g></g></g></svg>