<svg xmlns="http://www.w3.org/2000/svg" xmlns:xlink="http://www.w3.org/1999/xlink" fill="none" version="1.1" width="1024" height="1024" viewBox="0 0 1024 1024"><defs><clipPath id="master_svg0_227_04237"><rect x="0" y="0" width="1024" height="1024" rx="0"/></clipPath><mask id="master_svg1_227_04247" style="mask-type:alpha" maskUnits="objectBoundingBox"><g><g><ellipse cx="533" cy="713" rx="444" ry="125" fill="#000000" fill-opacity="1" style="mix-blend-mode:passthrough"/></g></g></mask><linearGradient x1="0.07744569331407547" y1="0.4913228452205658" x2="0.5989363154195346" y2="0.5030291489267711" id="master_svg2_227_04412"><stop offset="0%" stop-color="#3A58DD" stop-opacity="0"/><stop offset="100%" stop-color="#4164FF" stop-opacity="0.9377185106277466"/></linearGradient><linearGradient x1="0.5013954043388367" y1="-4.683753385137379e-17" x2="0.5013416163464074" y2="0.8209716156556867" id="master_svg3_227_04414"><stop offset="0%" stop-color="#C6D0FF" stop-opacity="1"/><stop offset="100%" stop-color="#597EFF" stop-opacity="1"/></linearGradient><linearGradient x1="0.7899233102798462" y1="-4.683753385137379e-17" x2="0.6016487100453248" y2="0.2958711883201669" id="master_svg4_227_04415"><stop offset="0%" stop-color="#A0B3FF" stop-opacity="1"/><stop offset="100%" stop-color="#4061D4" stop-opacity="1"/></linearGradient><linearGradient x1="0.7281908392906189" y1="-0.02567353844642639" x2="0.2579072151856622" y2="0.9275442537367375" id="master_svg5_227_04416"><stop offset="0%" stop-color="#D2E4FF" stop-opacity="1"/><stop offset="8.935772627592087%" stop-color="#D0E2FE" stop-opacity="1"/><stop offset="100%" stop-color="#445CD8" stop-opacity="1"/></linearGradient><linearGradient x1="0.73756343126297" y1="0.06418085843324661" x2="0.4999999068009847" y2="0.499999968384271" id="master_svg6_227_04417"><stop offset="0%" stop-color="#E8F3FF" stop-opacity="1"/><stop offset="100%" stop-color="#BFDBFF" stop-opacity="1"/></linearGradient><linearGradient x1="-3.178880769727499e-16" y1="0.4641934633255005" x2="1.0505054378886505" y2="0.535806625263648" id="master_svg7_227_04418"><stop offset="0%" stop-color="#3154EF" stop-opacity="1"/><stop offset="77.58327126502991%" stop-color="#769FFF" stop-opacity="1"/><stop offset="100%" stop-color="#C9ECFF" stop-opacity="1"/></linearGradient><linearGradient x1="0.38369104266166687" y1="0.5497989654541016" x2="0.6284990080362544" y2="0.43838906777214515" id="master_svg8_227_04419"><stop offset="0%" stop-color="#CCE4FF" stop-opacity="1"/><stop offset="42.29455590248108%" stop-color="#8CA9FF" stop-opacity="1"/><stop offset="100%" stop-color="#3258E8" stop-opacity="1"/></linearGradient><linearGradient x1="0.37263795733451843" y1="0.36146801710128784" x2="0.7960912923528353" y2="0.7664540728552122" id="master_svg9_227_04421"><stop offset="0%" stop-color="#EAF3FF" stop-opacity="1"/><stop offset="100%" stop-color="#84A0E9" stop-opacity="1"/></linearGradient><linearGradient x1="1" y1="0.44226598739624023" x2="0.25810643263895966" y2="0.5038809640047401" id="master_svga_227_04423"><stop offset="0%" stop-color="#E2EFFF" stop-opacity="1"/><stop offset="29.22312021255493%" stop-color="#CBE2FF" stop-opacity="1"/><stop offset="100%" stop-color="#BBD1FF" stop-opacity="1"/></linearGradient><linearGradient x1="0.5" y1="0" x2="0.5" y2="1" id="master_svgb_227_04425"><stop offset="0%" stop-color="#CEEAFF" stop-opacity="1"/><stop offset="100%" stop-color="#A8BAFF" stop-opacity="1"/></linearGradient><linearGradient x1="1" y1="0.3422780930995941" x2="0.13433478380031377" y2="0.5872680057585408" id="master_svgc_227_04428"><stop offset="0%" stop-color="#FDE50F" stop-opacity="1"/><stop offset="100%" stop-color="#EFBD67" stop-opacity="1"/></linearGradient><radialGradient cx="0" cy="0" r="1" gradientUnits="userSpaceOnUse" id="master_svgd_227_04430" gradientTransform="translate(829.0286993980408 419.3392987251282) rotate(0) scale(22.82664155960083 22.82664155960083)"><stop offset="0%" stop-color="#BFD7FF" stop-opacity="1"/><stop offset="100%" stop-color="#7195FF" stop-opacity="1"/></radialGradient></defs><g clip-path="url(#master_svg0_227_04237)"><g><g></g><g><g><ellipse cx="533" cy="713" rx="444" ry="125" fill="#F1F5FD" fill-opacity="1" style="mix-blend-mode:passthrough"/></g><g mask="url(#master_svg1_227_04247)"><g><path d="M79.87673580322266,695.8905765625L63.645035803222655,719.5374765625L29.037635803222656,764.8759765625L478.17463580322266,757.6182765625L575.9996358032226,755.8063765625L406.08763580322267,682.8759765625L79.87673580322266,695.8905765625Z" fill="url(#master_svg2_227_04412)" fill-opacity="1" style="mix-blend-mode:passthrough"/></g></g></g><g><path d="M749,644L749,722C749,729.1797,743.1800000000001,735,736,735L395,735L395,644L525,644C525,662.7777,544.476,678,568.5,678C592.524,678,612,662.7777,612,644L749,644Z" fill-rule="evenodd" fill="#9BBFFE" fill-opacity="1" style="mix-blend-mode:passthrough"/></g><g><path d="M689,352L708,352L708,707.654C708,709.864,706.2092,711.654,704,711.654L693,711.654C690.79083,711.654,689,709.864,689,707.654L689,352Z" fill-rule="evenodd" fill="url(#master_svg3_227_04414)" fill-opacity="1" style="mix-blend-mode:passthrough"/></g><g><path d="M338,664.999725L394,643.890625L394,725.270425C394,731.651925,390.2079,737.423225,384.3506,739.956125L356.1599,752.146625C349.5699,754.996625,341.9176,751.964625,339.06787,745.374625C338.363434,743.745525,338,741.989525,338,740.214625L338,664.999725Z" fill-rule="evenodd" fill="#9BBFFE" fill-opacity="1" style="mix-blend-mode:passthrough"/></g><g><path d="M404,360L689,360L689,715.654C689,717.864,687.2090000000001,719.654,685,719.654L408,719.654C405.79086,719.654,404,717.864,404,715.654L404,360Z" fill-rule="evenodd" fill="url(#master_svg4_227_04415)" fill-opacity="1" style="mix-blend-mode:passthrough"/></g><g><rect x="389" y="388" width="262" height="343.7706298828125" rx="4" fill="url(#master_svg5_227_04416)" fill-opacity="1" style="mix-blend-mode:passthrough"/></g><g><path d="M437.7726,428.85305625L461.8056,397.53515625L627,397.65444925C629.208,397.65600625,630.9970000000001,399.44640625,630.9970000000001,401.65441625L631,701.65415625L404,701.65415625L404,453.62245625L436.9523,429.65255625C437.2627,429.42685625,437.539,429.15755624999997,437.7726,428.85305625Z" fill-rule="evenodd" fill="url(#master_svg6_227_04417)" fill-opacity="1" style="mix-blend-mode:passthrough"/></g><g><path d="M693,665.0000000023438L693,759.9999624023437L354,759.9999624023437C345.16345,759.9999624023437,338,752.8365624023437,338,743.9999624023437L338,665.0000000023438L468.004,664.9989624023438C468.001,665.1657104023437,468,665.3327024023438,468,665.5000004023437C468,685.1060624023437,487.476,700.9999624023437,511.5,700.9999624023437C535.524,700.9999624023437,555,685.1060624023437,555,665.5000004023437L554.995,664.9998168943438L693,665.0000000023438Z" fill-rule="evenodd" fill="url(#master_svg7_227_04418)" fill-opacity="1" style="mix-blend-mode:passthrough"/></g><g><path d="M693,664.999725L749,643.890625L749,725.270425C749,731.651925,745.2079,737.423225,739.3506,739.956125L693,759.999625L693,664.999725Z" fill-rule="evenodd" fill="url(#master_svg8_227_04419)" fill-opacity="1" style="mix-blend-mode:passthrough"/></g><g><path d="M429,468.31591796875L589.815,468.31591796875L589.815,465.31591796875L429,465.31591796875L429,468.31591796875Z" fill="#95B3EF" fill-opacity="1" style="mix-blend-mode:passthrough"/></g><g><path d="M429,504.5L589.815,504.5L589.815,501.5L429,501.5L429,504.5Z" fill="#95B3EF" fill-opacity="1" style="mix-blend-mode:passthrough"/></g><g><path d="M429,540.5L589.815,540.5L589.815,537.5L429,537.5L429,540.5Z" fill="#95B3EF" fill-opacity="1" style="mix-blend-mode:passthrough"/></g><g><path d="M587.939453125,579.939453125L590.060753125,582.060793125L573.620153125,598.500153125L590.060753125,614.939453125L587.939453125,617.060753125L571.500153125,600.620153125L555.060793125,617.060753125L552.939453125,614.939453125L569.379153125,598.500153125L552.939453125,582.060793125L555.060793125,579.939453125L571.500153125,596.379153125L587.939453125,579.939453125Z" fill="#95B3EF" fill-opacity="1" style="mix-blend-mode:passthrough"/></g><g><path d="M461.8056,397.53515625C433.5613,412.19065625,414.2928,430.88645625,404,453.62245625C416.34929999999997,445.74635625,432.4784,442.16385625,452.3872,442.87485625C452.5762,431.72855625,453.3073,423.57185625,454.58050000000003,418.40485625C455.8537,413.23785625,458.2621,406.28130625,461.8056,397.53515625Z" fill-rule="evenodd" fill="url(#master_svg9_227_04421)" fill-opacity="1" style="mix-blend-mode:passthrough"/></g><g><path d="M708.3389999999999,351.9999999613281L423.9419,351.9780578613281L404,359.9999978613281L689,359.9999978613281L706.7860000000001,352.72372486132815L708.3389999999999,351.9999999613281Z" fill="#C5DBFF" fill-opacity="1" style="mix-blend-mode:passthrough"/></g><g><path d="M571,371L571,406L473,406C470.23859,406,468,403.7614,468,401L468,371L571,371ZM521.5,375C517.9102,375,515,377.91016,515,381.5C515,385.0898,517.9102,388,521.5,388C525.0898,388,528,385.0898,528,381.5C528,377.91016,525.0898,375,521.5,375Z" fill-rule="evenodd" fill="url(#master_svga_227_04423)" fill-opacity="1" style="mix-blend-mode:passthrough"/></g><g><path d="M468,371L473.59537,370L572.957,370L571,371L468,371Z" fill="#A8BAFF" fill-opacity="1" style="mix-blend-mode:passthrough"/></g><g><path d="M572.95654,370L572.95654,404.8325L571,406L571,371L572.95654,370Z" fill="url(#master_svgb_227_04425)" fill-opacity="1" style="mix-blend-mode:passthrough"/></g><g><path d="M521.5,375C521.58514,375,521.66986,375.00164795,521.75421,375.00488281C518.55432,375.134003,516,377.76871,516,381C516,384.31372,518.68628,387,522,387C525.2313,387,527.866,384.44565,527.9951,381.246C527.9984,381.33011,528,381.41486,528,381.5C528,385.0898,525.0898,388,521.5,388C517.91016,388,515,385.0898,515,381.5C515,377.91016,517.91016,375,521.5,375Z" fill-rule="evenodd" fill="#243E9C" fill-opacity="1" style="mix-blend-mode:passthrough"/></g><g transform="matrix(0.9848077297210693,-0.1736481785774231,0.1736481785774231,0.9848077297210693,-80.15092188420567,48.99969063251774)"><path d="M257.005384375,569.1964836425782L257.088084375,571.1947836425782C256.076884375,571.2366836425781,255.05788437500001,571.2492836425781,254.031084375,571.2325836425781L254.063584375,569.2328836425781C255.052084375,569.2488836425781,256.032684375,569.2367836425781,257.005384375,569.1964836425782ZM249.128784375,568.9254836425781C250.115584375,569.0311836425781,251.094784375,569.1102836425781,252.066584375,569.1625836425782L251.958984375,571.1596836425781C250.951784375,571.1054836425781,249.937424375,571.0235836425782,248.915724375,570.9141836425781L249.128784375,568.9254836425781ZM261.907384375,568.7454836425782L262.192484375,570.7249836425781C261.186884375,570.8698836425781,260.173084375,570.9841836425782,259.151084375,571.0678836425782L258.987784375,569.0744836425781C259.969184375,568.9940836425781,260.942384375,568.8843836425781,261.907384375,568.7454836425782ZM244.315294375,568.2094836425781C245.293354375,568.3946836425781,246.264344375,568.5549836425781,247.228274375,568.6901836425782L246.950334375,570.6707836425782C245.954694375,570.5310836425781,244.952284375,570.3655836425781,243.943104375,570.1744836425781L244.315294375,568.2094836425781ZM266.697784375,567.7979836425782L267.188584375,569.7367836425781C266.199484375,569.9871836425781,265.201884375,570.2061836425781,264.195784375,570.3939836425782L263.828784375,568.4279836425782C264.793384375,568.2478836425781,265.749684375,568.0378836425781,266.697784375,567.7979836425782ZM240.446685375,567.3555836425782C241.091034375,567.5175836425781,241.732424375,567.6691836425781,242.370864375,567.8102836425782L241.939254375,569.7631836425782C241.281984375,569.6178836425781,240.621887375,569.4619836425782,239.958984375,569.2952836425782L240.446685375,567.3555836425782ZM271.392484375,566.3400836425781L272.085884375,568.2160836425782C271.125884375,568.5708836425781,270.157184375,568.8945836425781,269.179984375,569.1870836425782L268.606584375,567.2709836425781C269.543284375,566.9906836425781,270.471984375,566.6803836425781,271.392484375,566.3400836425781ZM275.894884375,564.4049836425781L276.777384375,566.1997836425782C275.856984375,566.6523836425781,274.928184375,567.0744836425781,273.990784375,567.4661836425781L273.219684375,565.6207836425781C274.119284375,565.2448836425781,275.010984375,564.8395836425781,275.894884375,564.4049836425781ZM280.254684375,562.0580836425781L281.240684375,563.7980836425781C280.374784375,564.2888836425782,279.493384375,564.7760836425781,278.596884375,565.2597836425781L277.647384375,563.4994836425781C278.531684375,563.0223836425781,279.400784375,562.5419836425781,280.254684375,562.0580836425781ZM284.540584375,559.5222836425781L285.592184375,561.2235836425781C284.745884375,561.7466836425781,283.882484375,562.2664836425781,283.002184375,562.7826836425781L281.990484375,561.0574836425781C282.857484375,560.5490836425781,283.707584375,560.0372836425781,284.540584375,559.5222836425781ZM288.717984375,556.8176836425781L289.841284375,558.4724836425781C289.018384375,559.0310836425781,288.176384375,559.5865836425781,287.315184375,560.1387836425781L286.23558437500003,558.4551836425782C287.082084375,557.9123836425781,287.909584375,557.3664836425781,288.717984375,556.8176836425781ZM292.757584375,553.9332836425781L293.959884375,555.5315836425781C293.16538437500003,556.1291836425781,292.348984375,556.7242836425781,291.510984375,557.3163836425781L290.356884375,555.6828836425781C291.178784375,555.1021836425781,291.979084375,554.5188836425781,292.757584375,553.9332836425781ZM296.638484375,550.8436836425781L297.928884375,552.3717836425781C297.169884375,553.0126836425782,296.385484375,553.6517836425782,295.575984375,554.2885836425781L294.339384375,552.7166836425781C295.130884375,552.0940836425781,295.897284375,551.4696836425782,296.638484375,550.8436836425781ZM300.316484375,547.5277836425781L301.706184375,548.9660836425782C300.992284375,549.6556836425781,300.248384375,550.3447836425781,299.474684375,551.0326836425781L298.145784375,549.5378836425781C298.898984375,548.8683836425781,299.622684375,548.1979836425782,300.316484375,547.5277836425781ZM303.593484375,544.1137836425781L305.091284375,545.4390836425781C304.434184375,546.1816836425782,303.740784375,546.9257836425782,303.011384375,547.6703836425781L301.582584375,546.2707836425782C302.288584375,545.5501836425781,302.958984375,544.8307836425781,303.593484375,544.1137836425781ZM306.691284375,540.2368836425782L307.312484375,540.6801836425781L307.505784375,540.6404836425781C307.622784375,540.6141836425782,307.741484375,540.5854836425781,307.861884375,540.5541836425781L308.228084375,540.4526836425781L308.792284375,542.3713836425782C308.398184375,542.4873836425782,308.014684375,542.5819836425782,307.64118437499997,542.6556836425781L307.348484375,542.7081836425781L306.949484375,543.2210836425782L306.458184375,543.8324836425782L304.909084375,542.5673836425781C305.068884375,542.3717836425781,305.225884375,542.1764836425781,305.379984375,541.9815836425781L305.544484375,541.7691836425781L305.568584375,540.8499836425781C305.765784375,540.8550836425782,305.968784375,540.8510836425781,306.177784375,540.8374836425781L306.259484375,540.8300836425781L306.271084375,540.8160836425782L306.691284375,540.2368836425782ZM301.721984375,539.1463836425781C302.43238437499997,539.8158836425781,303.129084375,540.2740836425781,303.899384375,540.5487836425781L303.227684375,542.4324836425782C302.173184375,542.0565836425782,301.248684375,541.4485836425781,300.350284375,540.6018836425782L301.721984375,539.1463836425781ZM312.577884375,538.4954836425782L313.574984375,540.2291836425782C312.595784375,540.7922836425781,311.671484375,541.2606836425781,310.797384375,541.6379836425781L310.004684375,539.8018836425781C310.805984375,539.4558836425781,311.662584375,539.0218836425781,312.577884375,538.4954836425782ZM309.262684375,536.0491836425781L311.042784375,536.9608836425781C310.591484375,537.8422836425781,310.077884375,538.7369836425781,309.503084375,539.6419836425781L307.814884375,538.5695836425781C308.357084375,537.7159836425781,308.839984375,536.8747836425781,309.262684375,536.0491836425781ZM316.668184375,535.8078836425781L317.845084375,537.4249836425781C316.970384375,538.0615836425782,316.131884375,538.6384836425781,315.327884375,539.1574836425781L314.243184375,537.4771836425781C315.014984375,536.9788836425781,315.822884375,536.4230836425781,316.668184375,535.8078836425781ZM299.188084375,535.3511836425781C299.604584375,536.3823836425781,300.05488437500003,537.2322836425781,300.463684375,537.7751836425781L298.866184375,538.9783836425781C298.339184375,538.2786836425781,297.810484375,537.2806836425781,297.333684375,536.1001836425781L299.188084375,535.3511836425781ZM320.562784375,532.7712836425782L321.836684375,534.3130836425781C321.020884375,534.9870836425781,320.231784375,535.6180836425781,319.468384375,536.2071836425781L318.246484375,534.6237836425781C318.991984375,534.0485836425781,319.763784375,533.4313836425781,320.562784375,532.7712836425782ZM311.010684375,531.5513836425781L312.949384375,532.0427836425781C312.70478437500003,533.0078836425781,312.369084375,534.0035836425782,311.943784375,535.0238836425781L310.097784375,534.2541836425781C310.486384375,533.3222836425781,310.790684375,532.4191836425781,311.010684375,531.5513836425781ZM297.889284375,530.7493836425781C298.052084375,531.6887836425781,298.278684375,532.6362836425782,298.555284375,533.5480836425781L296.64138437500003,534.1286836425782C296.341284375,533.1393836425781,296.095684375,532.1121836425781,295.918684375,531.0908836425781L297.889284375,530.7493836425781ZM324.246484375,529.4995836425782L325.644684375,530.9296836425781C324.895484375,531.6621836425782,324.144484375,532.3533836425781,323.391684375,533.0032836425781L322.084684375,531.4893836425781C322.80578437500003,530.8668836425782,323.526384375,530.2035836425781,324.246484375,529.4995836425782ZM313.318484375,526.7195836425781C313.47198437500003,527.7390836425782,313.478384375,528.8339836425781,313.337884375,529.9896836425781L311.352484375,529.7482836425781C311.471884375,528.7666836425781,311.466484375,527.8523836425782,311.340784375,527.0173836425781L313.318484375,526.7195836425781ZM327.613184375,525.9061836425781L329.126484375,527.2137836425782C328.44598437499997,528.0013836425782,327.763984375,528.7543836425781,327.08068437500003,529.4727836425782L325.631484375,528.0944836425781C326.292584375,527.3993836425781,326.953184375,526.6699836425781,327.613184375,525.9061836425781ZM295.700984375,525.7891836425781L297.686484375,526.0300836425781C297.582484375,526.8870836425781,297.570984375,527.8306836425782,297.647484375,528.8332836425782L295.653384375,528.9855836425781C295.567184375,527.8579836425781,295.580384375,526.7839836425782,295.700984375,525.7891836425781ZM330.712384375,522.0608836425781L332.30848437500003,523.2659836425781C331.684684375,524.0921836425781,331.059784375,524.8889836425781,330.433784375,525.6561836425781L328.884184375,524.3917836425782C329.49418437500003,523.6442836425781,330.10358437499997,522.8672836425782,330.712384375,522.0608836425781ZM310.682984375,521.7056836425782C311.555084375,522.4696836425782,312.233184375,523.4100836425781,312.698184375,524.4981836425782L310.859084375,525.2841836425781C310.511084375,524.4697836425781,310.01028437499997,523.7752836425781,309.365084375,523.2100836425782L310.682984375,521.7056836425782ZM298.069184375,520.6773836425781L299.394684375,522.1750836425781C298.813084375,522.6896836425781,298.372084375,523.3945836425781,298.070684375,524.2807836425782L296.177184375,523.6368836425781C296.584984375,522.4375836425781,297.211484375,521.4363836425781,298.069184375,520.6773836425781ZM305.685784375,519.4604836425781C306.34608437500003,519.6114836425782,307.038084375,519.8095836425781,307.763084375,520.0556836425782C308.121184375,520.1776836425781,308.447484375,520.3088836425782,308.763184375,520.4576836425781L307.910784375,522.2668836425781C307.663884375,522.1505836425781,307.40678437500003,522.0471836425781,307.119084375,521.9491836425781C306.458184375,521.7247836425781,305.831784375,521.5454836425781,305.239984375,521.4101836425781L305.685784375,519.4604836425781ZM333.58638437499997,518.0298836425782L335.243884375,519.1489836425782C334.667084375,520.0032836425781,334.089384375,520.8319836425782,333.510884375,521.6352836425781L331.887984375,520.4663836425781C332.454684375,519.6796836425781,333.020784375,518.8674836425781,333.58638437499997,518.0298836425782ZM300.180984375,519.4746836425782C301.167284375,519.1480836425782,302.292984375,519.0312836425782,303.556084375,519.1272836425782L303.404584375,521.1214836425781C302.393984375,521.0447836425781,301.53178437500003,521.1342836425781,300.809484375,521.3732836425781L300.180984375,519.4746836425782ZM336.263684375,513.8674836425781L337.967984375,514.9139836425782C337.43058437499997,515.7891836425781,336.892484375,516.6419836425781,336.353484375,517.4723836425782L334.675884375,516.3836836425781C335.20568437500003,515.5672836425781,335.734884375,514.7285836425781,336.263684375,513.8674836425781ZM338.78448437500003,509.5857836425781L340.52498437500003,510.57008364257814C340.021984375,511.4610836425781,339.517384375,512.3322836425781,339.012284375,513.1835836425781L337.29218437500003,512.1630836425782C337.790084375,511.32388364257815,338.287484375,510.46478364257814,338.78448437500003,509.5857836425781ZM341.162984375,505.2189836425781L342.933984375,506.1494836425781C342.457984375,507.05398364257815,341.981984375,507.94058364257813,341.505984375,508.80938364257815L339.752384375,507.8475836425781C340.222984375,506.98918364257815,340.693984375,506.1129836425781,341.162984375,505.2189836425781ZM343.41698437499997,500.78658364257814L345.211984375,501.67018364257814C344.760984375,502.5848836425781,344.309984375,503.48338364257813,343.858984375,504.3656836425781L342.077984375,503.4546836425781C342.52498437500003,502.5814836425781,342.97198437500003,501.69208364257815,343.41698437499997,500.78658364257814ZM345.564984375,496.2939836425781L347.378984375,497.1362836425781C346.949984375,498.0593836425781,346.520984375,498.9677836425781,346.091984375,499.86128364257814L344.288984375,498.99488364257815C344.714984375,498.1093836425781,345.139984375,497.20908364257815,345.564984375,496.2939836425781ZM347.615984375,491.7564436425781L349.44598437499997,492.5620736425781C349.036984375,493.49218364257814,348.626984375,494.4087836425781,348.216984375,495.3117836425781L346.395984375,494.4845836425781C346.802984375,493.5887836425781,347.208984375,492.6793836425781,347.615984375,491.7564436425781ZM349.581984375,487.1750836425781L351.426984375,487.94787364257814C351.034984375,488.8836936425781,350.64298437499997,489.80700364257814,350.249984375,490.71780364257813L348.412984375,489.9257536425781C348.802984375,489.0213936425781,349.192984375,488.1044936425781,349.581984375,487.1750836425781ZM351.46998437499997,482.5644836425781L353.326984375,483.30776964257814C352.949984375,484.24887364257813,352.57298437500003,485.1783436425781,352.19598437499997,486.0961936425781L350.345984375,485.3355436425781C350.720984375,484.42349364257814,351.095984375,483.49981664257814,351.46998437499997,482.5644836425781Z" fill="#60A3FF" fill-opacity="1" style="mix-blend-mode:passthrough"/></g><g><path d="M196.29410000000001,636.18945309375C187.9622,634.22448609375,175.7068,640.39550609375,159.528,654.70259609375C149.20850000000002,661.68349609375,141.69911,663.96889609375,137,661.55889609375C151.9714,670.84339609375,166.697,672.46899609375,181.1769,666.43539609375C195.6568,660.40179609375,200.6958,650.31979609375,196.29410000000001,636.18945309375Z" fill-rule="evenodd" fill="url(#master_svgc_227_04428)" fill-opacity="1" style="mix-blend-mode:passthrough"/></g><g><path d="M196.16650390625,635.81592C202.35263390625,631.59125,206.24530390625,629.668152,207.84460390625,630.0466919L208.66650390625,632.4115C203.06587390625,633.89905,199.22923390625,636.15082,197.15658590625,639.16669" fill-rule="evenodd" fill="#F3C753" fill-opacity="1" style="mix-blend-mode:passthrough"/></g><g><path d="M165.83428244628905,662.7331415039063Q174.87408244628907,659.9289415039062,190.35318244628905,645.7866775039063L189.67868244628906,645.0484055039062Q174.36428244628905,659.0399415039062,165.53808244628905,661.7780415039063Q156.70728244628907,664.5175415039063,140.33669864628905,662.5281415039062L140.21606624628907,663.5208415039062Q156.79908244628905,665.5360415039063,165.83428244628905,662.7331415039063Z" fill-rule="evenodd" fill="#F3C753" fill-opacity="1" style="mix-blend-mode:passthrough"/></g><g><ellipse cx="834" cy="416" rx="18" ry="18" fill="url(#master_svgd_227_04430)" fill-opacity="1" style="mix-blend-mode:passthrough"/></g></g></g></svg>