<svg xmlns="http://www.w3.org/2000/svg" xmlns:xlink="http://www.w3.org/1999/xlink" fill="none" version="1.1" width="1024" height="1024" viewBox="0 0 1024 1024"><defs><clipPath id="master_svg0_227_04325"><rect x="0" y="0" width="1024" height="1024" rx="0"/></clipPath><mask id="master_svg1_227_04335" style="mask-type:alpha" maskUnits="objectBoundingBox"><g><g><ellipse cx="512" cy="713" rx="444" ry="125" fill="#000000" fill-opacity="1" style="mix-blend-mode:passthrough"/></g></g></mask><linearGradient x1="0.07043590396642685" y1="0.4822333753108978" x2="0.5891685808634282" y2="0.5039589371200801" id="master_svg2_227_04434"><stop offset="0%" stop-color="#3A58DD" stop-opacity="0"/><stop offset="100%" stop-color="#4164FF" stop-opacity="0.8468640446662903"/></linearGradient><linearGradient x1="0.11134513467550278" y1="0.23308894038200378" x2="0.9066414250090803" y2="0.8231520770540024" id="master_svg3_227_04435"><stop offset="0%" stop-color="#3A58DD" stop-opacity="1"/><stop offset="65.72571396827698%" stop-color="#7192F3" stop-opacity="1"/><stop offset="100%" stop-color="#92C5FF" stop-opacity="1"/></linearGradient><linearGradient x1="0.49325206875801086" y1="0.9429406523704529" x2="0.5088445645551757" y2="-0.02320591189204169" id="master_svg4_227_04436"><stop offset="0%" stop-color="#CAE1FF" stop-opacity="1"/><stop offset="25.614982843399048%" stop-color="#A5C7F9" stop-opacity="1"/><stop offset="99.81566071510315%" stop-color="#3258E8" stop-opacity="1"/><stop offset="100%" stop-color="#3258E8" stop-opacity="1"/></linearGradient><linearGradient x1="1" y1="0.5012479424476624" x2="0.020348033806800263" y2="0.503323933177624" id="master_svg5_227_04438"><stop offset="0%" stop-color="#D9EAFF" stop-opacity="1"/><stop offset="100%" stop-color="#9BBFFE" stop-opacity="1"/></linearGradient><linearGradient x1="1" y1="0.7488304972648621" x2="0.3082791387238072" y2="0.28792861363166383" id="master_svg6_227_04439"><stop offset="0%" stop-color="#C4D7F4" stop-opacity="1"/><stop offset="100%" stop-color="#92ADE5" stop-opacity="1"/></linearGradient><linearGradient x1="0.9939888715744019" y1="1" x2="0.09195649333136374" y2="0.18269220507755057" id="master_svg7_227_04440"><stop offset="0%" stop-color="#C4D7F4" stop-opacity="1"/><stop offset="100%" stop-color="#92ADE5" stop-opacity="1"/></linearGradient><linearGradient x1="0.600440502166748" y1="0.33922165632247925" x2="0.1313954795891111" y2="0.6370360972384638" id="master_svg8_227_04441"><stop offset="0%" stop-color="#F7DF76" stop-opacity="1"/><stop offset="100%" stop-color="#EEB765" stop-opacity="1"/></linearGradient><radialGradient cx="0" cy="0" r="1" gradientUnits="userSpaceOnUse" id="master_svg9_227_04442" gradientTransform="translate(350.21915781497955 295.37550723552704) rotate(0) scale(19.656274676322937 19.656274676322937)"><stop offset="0%" stop-color="#BFD7FF" stop-opacity="1"/><stop offset="100%" stop-color="#7195FF" stop-opacity="1"/></radialGradient></defs><g clip-path="url(#master_svg0_227_04325)"><g><g></g><g><g><ellipse cx="512" cy="713" rx="444" ry="125" fill="#F1F5FD" fill-opacity="1" style="mix-blend-mode:passthrough"/></g><g mask="url(#master_svg1_227_04335)"><g><path d="M86.50002429962159,654L57.14502429962158,692.8994L68.00002429962159,731.25C385.5270242996216,746.6610000000001,562.5270242996216,754.244,599.0000242996216,754C653.7100242996216,753.634,642.7500242996216,741.75,665.5000242996216,727.25C671.0810242996216,723.693,607.1050242996216,666.891,578.5000242996216,648.75C572.8530242996216,645.1689,544.1870242996215,638.41888,492.5000242996216,628.5L465.2500242996216,662.5L86.50002429962159,654Z" fill-rule="evenodd" fill="url(#master_svg2_227_04434)" fill-opacity="1" style="mix-blend-mode:passthrough"/></g></g></g><g><path d="M304,444L685,483.9268L685,764L322.3018,725.991C311.89926,724.9010000000001,304,716.131,304,705.671L304,444Z" fill-rule="evenodd" fill="url(#master_svg3_227_04435)" fill-opacity="1" style="mix-blend-mode:passthrough"/></g><g><path d="M685,763.99953515625L711.3132,746.77353515625C716.5778,743.32653515625,719.75,737.45853515625,719.75,731.1655351562499L719.75,464.87353515625L685,484.20583515625L685,763.99953515625Z" fill-rule="evenodd" fill="url(#master_svg4_227_04436)" fill-opacity="1" style="mix-blend-mode:passthrough"/></g><g><g><path d="M719.75,464.7498484375L685.235,483.9998484375L304,444.1427484375L349.4675,433.1481284375C353.2965,432.2222595375,357.2516,431.9310914375,361.1749,432.2862854375L719.75,464.7498484375Z" fill-rule="evenodd" fill="#D8D8D8" fill-opacity="1" style="mix-blend-mode:passthrough"/></g><g><path d="M719.75,464.7498484375L685.235,483.9998484375L304,444.1427484375L349.4675,433.1481284375C353.2965,432.2222595375,357.2516,431.9310914375,361.1749,432.2862854375L719.75,464.7498484375Z" fill-rule="evenodd" fill="url(#master_svg5_227_04438)" fill-opacity="1" style="mix-blend-mode:passthrough"/></g></g><g><path d="M370,685.00018359375L445.5,556.26318359375L496.944,655.2425835937499L529.5,599.4567835937501L586,708.64018359375L370,685.00018359375Z" fill="url(#master_svg6_227_04439)" fill-opacity="1" style="mix-blend-mode:passthrough"/></g><g><path d="M586,598.5995265625C609.196,601.1398265625,628,584.3951265625,628,561.1991265624999C628,538.0032265625,609.196,517.1398265625,586,514.5994875625C562.804,512.0591465625,544,528.8037265625,544,551.9997265625C544,575.1957265625,562.804,596.0591265625,586,598.5995265625Z" fill-rule="evenodd" fill="url(#master_svg7_227_04440)" fill-opacity="1" style="mix-blend-mode:passthrough"/></g><g><path d="M841.9459,587C829.5312,599.2175,820.342,606.7399,814.3784,609.5671C808.4147,612.3944,798.9553,615.0809,786,617.6269L804.6486,631.3284L818.4324,641C829.2432,639.9254,838.973,636.7015,847.6216,631.3284C856.2703,625.9552,865.7297,617.6269,876,606.3433C868.4324,604.7313,861.9458999999999,602.0448,856.5405,598.2836C851.1351,594.5224,846.2703,590.76117,841.9459,587Z" fill-rule="evenodd" fill="url(#master_svg8_227_04441)" fill-opacity="1" style="mix-blend-mode:passthrough"/></g><g><ellipse cx="354.5" cy="292.5" rx="15.5" ry="15.5" fill="url(#master_svg9_227_04442)" fill-opacity="1" style="mix-blend-mode:passthrough"/></g></g></g></svg>