<svg xmlns="http://www.w3.org/2000/svg" xmlns:xlink="http://www.w3.org/1999/xlink" fill="none" version="1.1" width="1024" height="1024" viewBox="0 0 1024 1024"><defs><clipPath id="master_svg0_227_03542"><rect x="0" y="0" width="1024" height="1024" rx="0"/></clipPath><linearGradient x1="0.9223933219909668" y1="0.5897790789604187" x2="-3.382710778154774e-16" y2="0.5897790789604187" id="master_svg1_227_04043"><stop offset="0%" stop-color="#D9EAFF" stop-opacity="1"/><stop offset="19.30287480354309%" stop-color="#DDEAFF" stop-opacity="1"/><stop offset="100%" stop-color="#5F99FF" stop-opacity="1"/></linearGradient><linearGradient x1="0.07043590396642685" y1="0.4849163293838501" x2="0.5891685982452929" y2="0.5033610910883475" id="master_svg2_227_04045"><stop offset="0%" stop-color="#3A58DD" stop-opacity="0"/><stop offset="100%" stop-color="#4164FF" stop-opacity="0.8468640446662903"/></linearGradient><linearGradient x1="0.6914703249931335" y1="0.5790112018585205" x2="0.3085296951872821" y2="0.5897791167709823" id="master_svg3_227_04046"><stop offset="0%" stop-color="#D9EAFF" stop-opacity="1"/><stop offset="17.37692356109619%" stop-color="#DDEAFF" stop-opacity="1"/><stop offset="100%" stop-color="#5F99FF" stop-opacity="1"/></linearGradient><linearGradient x1="0.7720699310302734" y1="0.589775800704956" x2="0.2068142294966337" y2="0.5897790746967075" id="master_svg4_227_04047"><stop offset="0%" stop-color="#D9EAFF" stop-opacity="1"/><stop offset="25.930455327033997%" stop-color="#DDEAFF" stop-opacity="1"/><stop offset="100%" stop-color="#5F99FF" stop-opacity="1"/></linearGradient><linearGradient x1="-2.7170140853200223e-16" y1="0.5" x2="1" y2="0.5" id="master_svg5_227_04048"><stop offset="0%" stop-color="#3A58DD" stop-opacity="1"/><stop offset="68.70425343513489%" stop-color="#7192F3" stop-opacity="1"/><stop offset="100%" stop-color="#92C5FF" stop-opacity="1"/></linearGradient><linearGradient x1="-2.7170140853200223e-16" y1="0.5" x2="1" y2="0.5" id="master_svg6_227_04048"><stop offset="0%" stop-color="#3A58DD" stop-opacity="1"/><stop offset="68.70425343513489%" stop-color="#7192F3" stop-opacity="1"/><stop offset="100%" stop-color="#92C5FF" stop-opacity="1"/></linearGradient><linearGradient x1="0.11134512722492218" y1="0.4914596974849701" x2="0.9066413748080325" y2="0.5103398568122941" id="master_svg7_227_04049"><stop offset="0%" stop-color="#3A58DD" stop-opacity="1"/><stop offset="65.72571396827698%" stop-color="#7192F3" stop-opacity="1"/><stop offset="100%" stop-color="#92C5FF" stop-opacity="1"/></linearGradient><linearGradient x1="0.8058536648750305" y1="0.8638404011726379" x2="0.1174560189247131" y2="0.19668866693973547" id="master_svg8_227_04051"><stop offset="0%" stop-color="#BDDCFF" stop-opacity="1"/><stop offset="32.25211799144745%" stop-color="#81ABF9" stop-opacity="1"/><stop offset="100%" stop-color="#3A58DD" stop-opacity="1"/></linearGradient><linearGradient x1="0.5" y1="-0.21587201952934265" x2="0.5" y2="1.0793578624725342" id="master_svg9_227_04052"><stop offset="0%" stop-color="#F7DF76" stop-opacity="1"/><stop offset="100%" stop-color="#EEB765" stop-opacity="1"/></linearGradient><linearGradient x1="0.5" y1="-0.21587201952934265" x2="0.5" y2="1.0793578624725342" id="master_svga_227_04052"><stop offset="0%" stop-color="#F7DF76" stop-opacity="1"/><stop offset="100%" stop-color="#EEB765" stop-opacity="1"/></linearGradient><linearGradient x1="0.5" y1="-0.21587201952934265" x2="0.5" y2="1.0793578624725342" id="master_svgb_227_04052"><stop offset="0%" stop-color="#F7DF76" stop-opacity="1"/><stop offset="100%" stop-color="#EEB765" stop-opacity="1"/></linearGradient><radialGradient cx="0" cy="0" r="1" gradientUnits="userSpaceOnUse" id="master_svgc_227_04053" gradientTransform="translate(215.21915781497955 546.375507235527) rotate(0) scale(19.656276524066925 19.656276524066925)"><stop offset="0%" stop-color="#BFD7FF" stop-opacity="1"/><stop offset="100%" stop-color="#7195FF" stop-opacity="1"/></radialGradient></defs><g clip-path="url(#master_svg0_227_03542)"><g></g><g><path d="M454.1998246875,307L571.3998046875,307L573.8998046875,307.700012L575.6998046875,309.5L576.1998046875,310.60001L576.3998046875,312L576.0998046875,313.79999L559.0998046875,358.9L466.4998046875,358.9L449.4998166875,313.79999L449.2998046875,311.20001L450.2998046875,308.79999L452.4998146875,307.299988L454.1998246875,307Z" fill-rule="evenodd" fill="url(#master_svg1_227_04043)" fill-opacity="1" style="mix-blend-mode:passthrough"/></g><g><g><g><path d="M956,713L955.8,717L955.1,721.1L953.9,725.1L952.3,729.2L950.1,733.3L947.4,737.5L943.9,742L939.7,746.6L934.7,751.2L928.9,756L922.2,760.8L913.9,766.1L904.4,771.5L893.6,776.9L881.4,782.4L869.4,787.2L856.2,792L841.8,796.7L826,801.4L794,809.6L758.3,817L721.5,823.2L681.9,828.5L655.2,831.3L627.5,833.7L599,835.6L570.5,836.9L541.5,837.7L512,838L482.5,837.7L453.5,836.9L425,835.6L396.5,833.7L368.8,831.3L342.1,828.5L302.5,823.2L265.7,817L230,809.6L198,801.4L182.2,796.7L167.8,792L154.6,787.2L142.6,782.4L130.4,776.9L119.6,771.5L110.1,766.1L101.8,760.8L95.1,756L89.3,751.2L84.3,746.6L80.1,742L76.6,737.5L73.9,733.3L71.7,729.2L70.1,725.1L68.900002,721.1L68.199997,717L68,713L68.199997,709L68.900002,705L70.1,700.9L71.7,696.8L73.9,692.7L76.6,688.5L80.1,684L84.3,679.4L89.3,674.8L95.1,670L101.8,665.2L110.1,659.9L119.6,654.5L130.4,649.1L142.6,643.6L154.6,638.8L167.8,634L182.2,629.3L198,624.6L230,616.4L265.7,609L302.5,602.8L342.1,597.5L368.8,594.70001L396.5,592.29999L425,590.40002L453.5,589.09998L482.5,588.299988L512,588L541.5,588.299988L570.5,589.09998L599,590.40002L627.5,592.29999L655.2,594.70001L681.9,597.5L721.5,602.8L758.3,609L794,616.4L826,624.6L841.8,629.3L856.2,634L869.4,638.8L881.4,643.6L893.6,649.1L904.4,654.5L913.9,659.9L922.2,665.2L928.9,670L934.7,674.8L939.7,679.4L943.9,684L947.4,688.5L950.1,692.7L952.3,696.8L953.9,700.9L955.1,705L955.8,709L956,713Z" fill-rule="evenodd" fill="#F1F5FD" fill-opacity="1" style="mix-blend-mode:passthrough"/></g></g><g><path d="M86.2998046875,669.3L62.7998046875,693L77.4998046875,755L473.4998046875,755.2L570.7998046875,755L576.7998046875,754.7L580.9998046875,754.1L583.6998046875,753.3L585.4998046875,752.2L586.6998046875,751.2L587.2998046875,750L587.3998046875,748.7L587.0998046875,746.8L586.1998046875,744.6L584.3998046875,742L581.0998046875,738.2L576.6998046875,733.8L561.4998046875,720L552.1998046875,710.8L548.8998046875,706.6L546.9998046875,703.7L545.9998046875,701.2L545.5998046875,698.9L545.6998046875,697.3L546.1998046875,695.8L547.2998046875,694.4L548.9998046875,693L552.8998046875,691.7L565.0998046875,689.4L567.8998046875,688.6L571.1998046875,686.6L571.7998046875,685.6L572.0998046875,684.5L571.8998046875,683.3L571.1998046875,681.8L569.5998046875,679.9L564.9998046875,676L560.9998046875,673.3L557.8998046875,671.7L551.5998046875,669.4L540.7998046875,666.1L523.4998046875,661.59998L497.7998046875,655.5L476.4998046875,669.3L86.2998046875,669.3Z" fill-rule="evenodd" fill="url(#master_svg2_227_04045)" fill-opacity="1" style="mix-blend-mode:passthrough"/></g></g><g><path d="M459,363.6000061035156L564.6,363.6000061035156L564.6,534.3000061035157L459,534.3000061035157L459,363.6000061035156Z" fill-rule="evenodd" fill="url(#master_svg3_227_04046)" fill-opacity="1" style="mix-blend-mode:passthrough"/></g><g><path d="M458.9999938964844,534.2998046875L564.5999938964844,534.2998046875L594.6999938964843,743.5998046875L594.4999938964844,747.0998046875L593.2999938964844,750.2998046875L590.9999938964844,752.7998046875L587.9999938964844,754.4998046875L584.7999938964844,754.9998046875L438.7999838964844,754.9998046875L437.0000038964844,754.7998046875L433.7999838964844,753.5998046875L431.2000138964844,751.4998046875L430.2000138964844,749.9998046875L428.9999998964844,746.7998046875L428.8999938964844,743.5998046875L458.9999938964844,534.2998046875Z" fill-rule="evenodd" fill="url(#master_svg4_227_04047)" fill-opacity="1" style="mix-blend-mode:passthrough"/></g><g><path d="M447.2998046875,627.7001953125L577.2998046875,627.7001953125L579.5998046875,628.0001833125L581.5998046875,628.8001753125L583.2998046875,630.2001953125L584.5998046875,631.9002053125L585.4998046875,633.9002053125L585.7998046875,636.2001953125L585.4998046875,638.4001953125L584.5998046875,640.4001953125L583.2998046875,642.2001953125L581.5998046875,643.5001953125L579.5998046875,644.3001953125L577.2998046875,644.7001953125L447.2998046875,644.7001953125L444.9998146875,644.3001953125L442.9998146875,643.5001953125L441.2998046875,642.2001953125L439.9998146875,640.4001953125L439.0998226875,638.4001953125L438.7998046875,636.2001953125L439.0998226875,633.9002053125L439.9998146875,631.9002053125L441.2998046875,630.2001953125L442.9998146875,628.8001753125L444.9998146875,628.0001833125L447.2998046875,627.7001953125Z" fill-rule="evenodd" fill="url(#master_svg5_227_04048)" fill-opacity="1" style="mix-blend-mode:passthrough"/></g><g><path d="M462.2998046875,519.7001953125L562.2998046875,519.7001953125L564.5998046875,520.0001833125L566.5998046875,520.8001753125L568.2998046875,522.2001953125L569.5998046875,523.9002053125L570.4998046875,525.9002053125L570.7998046875,528.2001953125L570.4998046875,530.4001953125L569.5998046875,532.4001953125L568.2998046875,534.2001953125L566.5998046875,535.5001953125L564.5998046875,536.3001953125L562.2998046875,536.7001953125L462.2998046875,536.7001953125L459.9998146875,536.3001953125L457.9998146875,535.5001953125L456.2998046875,534.2001953125L454.9998146875,532.4001953125L454.0998226875,530.4001953125L453.7998046875,528.2001953125L454.0998226875,525.9002053125L454.9998146875,523.9002053125L456.2998046875,522.2001953125L457.9998146875,520.8001753125L459.9998146875,520.0001833125L462.2998046875,519.7001953125Z" fill-rule="evenodd" fill="url(#master_svg6_227_04048)" fill-opacity="1" style="mix-blend-mode:passthrough"/></g><g><path d="M462.89999,350.3999938964844L558.9,350.3999938964844L561.2,350.7000118964844L563.2,351.5000038964844L564.9,352.8999938964844L566.2,354.6000038964844L567.1,356.6000038964844L567.4,358.8999938964844L567.1,361.09999389648436L566.2,363.1999938964844L564.9,364.8999938964844L563.2,366.1999938964844L561.2,367.09999389648436L558.9,367.3999938964844L461.20001,367.1999938964844L458.20001,365.8999938964844L455.79999,363.59999389648436L454.5,360.4999938964844L454.5,357.2000138964844L455.79999,354.2000138964844L456.89999,352.8999938964844L459.60001,350.9999998964844L462.89999,350.3999938964844Z" fill-rule="evenodd" fill="url(#master_svg7_227_04049)" fill-opacity="1" style="mix-blend-mode:passthrough"/></g><g><path d="M511,307.3L511,255L514,255L514,307.3L511,307.3Z" fill-rule="evenodd" fill="#4463E1" fill-opacity="1" style="mix-blend-mode:passthrough"/></g><g><path d="M520,252.5L519.7,254.5L519,256.3L517.8,257.8L516.3,259L514.5,259.7L512.5,260L510.5,259.7L508.70001,259L507.20001,257.8L506,256.3L505.299988,254.5L505,252.5L505.299988,250.5L506,248.7L507.20001,247.2L508.70001,246L510.5,245.300003L512.5,245L514.5,245.300003L516.3,246L517.8,247.2L519,248.7L519.7,250.5L520,252.5Z" fill-rule="evenodd" fill="url(#master_svg8_227_04051)" fill-opacity="1" style="mix-blend-mode:passthrough"/></g><g><path d="M482.8449,230.61227Q483.0148,230.45998,483.1493,230.2756Q483.2837,230.09123,483.3768,229.882881Q483.4698,229.674531,483.5174,229.451358Q483.565,229.228186,483.565,229Q483.565,228.89364,483.5546,228.787793Q483.5441,228.681945,483.5234,228.57763Q483.5026,228.473314,483.4718,228.371534Q483.4409,228.269754,483.4002,228.17149Q483.3595,228.073227,483.3094,227.97943Q483.2592,227.88563,483.2001,227.79719Q483.141,227.70876,483.0736,227.62654Q483.0061,227.54432,482.9309,227.46911Q482.8557,227.39391,482.7735,227.32643Q482.6912,227.25896,482.6028,227.19987Q482.5144,227.14078,482.4206,227.09064Q482.3268,227.0405,482.2285,226.9998Q482.1302,226.9591,482.0285,226.92822Q481.9267,226.89735,481.8224,226.8766Q481.718,226.85585,481.6122,226.84543Q481.5064,226.835,481.4,226.835Q481.1819,226.835,480.9683,226.87848Q480.7546,226.92197,480.5539,227.00719Q480.3531,227.09241,480.1735,227.21595Q479.9938,227.33948,479.8423,227.49637L474.22985,232.90476L470.15948,239.0103L467.68497,245.6807L466.81904,252.5L467.68497,259.3193L470.15948,265.98969999999997L474.22985,272.0953L479.8423,277.5036Q479.9937,277.6605,480.1734,277.784Q480.3531,277.9076,480.5538,277.9928Q480.7546,278.078,480.9682,278.12149999999997Q481.1819,278.165,481.4,278.165Q481.5064,278.165,481.6122,278.1546Q481.718,278.1441,481.8224,278.1234Q481.9267,278.1026,482.0285,278.0718Q482.1302,278.0409,482.2285,278.0002Q482.3268,277.9595,482.4206,277.9094Q482.5144,277.8592,482.6028,277.8001Q482.6912,277.741,482.7735,277.6736Q482.8557,277.60609999999997,482.9309,277.5309Q483.0061,277.4557,483.0736,277.3735Q483.141,277.2912,483.2001,277.2028Q483.2592,277.1144,483.3094,277.0206Q483.3595,276.9268,483.4002,276.8285Q483.4409,276.7302,483.4718,276.62850000000003Q483.5026,276.5267,483.5234,276.4224Q483.5441,276.3181,483.5546,276.2122Q483.565,276.1064,483.565,276Q483.565,275.7718,483.5174,275.5486Q483.4698,275.3254,483.3768,275.1171Q483.2837,274.9087,483.1493,274.7244Q483.0148,274.54,482.8449,274.3877L477.57014,269.3048L474.04053,264.01030000000003L471.915,258.2807L471.18096,252.5L471.915,246.7193L474.04053,240.9897L477.57014,235.69525L482.8449,230.61227ZM540.1551,230.61228Q539.9851,230.45999,539.8507,230.27561Q539.7162,230.09124,539.6232,229.882887Q539.5301,229.674535,539.4825,229.451362Q539.435,229.228188,539.435,229Q539.435,228.89364,539.4454000000001,228.787793Q539.4558,228.681945,539.4766,228.57763Q539.4973,228.473314,539.5282,228.371534Q539.5591,228.269754,539.5998,228.17149Q539.6405,228.073227,539.6906,227.97943Q539.7408,227.88563,539.7998,227.79719Q539.8589,227.70876,539.9264000000001,227.62654Q539.9938999999999,227.54432,540.0691,227.46911Q540.1443,227.39391,540.2265,227.32643Q540.3087,227.25896,540.3972,227.19987Q540.4856,227.14078,540.5794,227.09064Q540.6732,227.0405,540.7715000000001,226.9998Q540.8697,226.9591,540.9715,226.92822Q541.0733,226.89735,541.1776,226.8766Q541.2819,226.85585,541.3878,226.84543Q541.4936,226.835,541.6,226.835Q541.818,226.835,542.0317,226.87848Q542.2454,226.92197,542.4461,227.00719Q542.6468,227.09242,542.8265,227.21595Q543.0062,227.33949,543.1577,227.49638L548.7701,232.90476L552.8405,239.0103L555.315,245.6807L556.181,252.5L555.315,259.3193L552.8405,265.98969999999997L548.7701,272.0953L543.1577,277.5036Q543.0062,277.6605,542.8265,277.784Q542.6468,277.9076,542.4461,277.9928Q542.2454,278.078,542.0317,278.12149999999997Q541.818,278.165,541.6,278.165Q541.4936,278.165,541.3878,278.1546Q541.2819,278.1441,541.1776,278.1234Q541.0733,278.1026,540.9715,278.0718Q540.8697,278.0409,540.7715000000001,278.0002Q540.6732,277.9595,540.5794,277.9094Q540.4856,277.8592,540.3972,277.8001Q540.3087,277.741,540.2265,277.6736Q540.1443,277.60609999999997,540.0691,277.5309Q539.9938999999999,277.4557,539.9264000000001,277.3735Q539.8589,277.2912,539.7998,277.2028Q539.7408,277.1144,539.6906,277.0206Q539.6405,276.9268,539.5998,276.8285Q539.5591,276.7302,539.5282,276.62850000000003Q539.4973,276.5267,539.4766,276.4224Q539.4558,276.3181,539.4454000000001,276.2122Q539.435,276.1064,539.435,276Q539.435,275.7718,539.4826,275.5486Q539.5301,275.3255,539.6232,275.1171Q539.7162,274.9088,539.8507,274.7244Q539.9851,274.54,540.1551,274.3877L545.4298,269.3048L548.9595,264.01030000000003L551.085,258.2807L551.819,252.5L551.085,246.7193L548.9595,240.9897L545.4298,235.69526L540.1551,230.61228Z" fill-rule="evenodd" fill="url(#master_svg9_227_04052)" fill-opacity="1" style="mix-blend-mode:passthrough"/></g><g><path d="M493.40725,238.64526Q493.58547,238.49282,493.72691,238.30576Q493.86835,238.11869,493.96646,237.905683Q494.0646,237.692672,494.1148,237.463595Q494.165,237.234517,494.165,237Q494.165,236.89364,494.1546,236.787793Q494.1441,236.681945,494.1234,236.57763Q494.1027,236.473314,494.0718,236.371534Q494.0409,236.269754,494.0002,236.17149Q493.9595,236.073227,493.90936,235.97943Q493.85922,235.88563,493.80013,235.79719Q493.74104,235.70876,493.67357,235.62654Q493.60609,235.54432,493.53089,235.46911Q493.45568,235.39391,493.37346,235.32643Q493.29124,235.25896,493.20281,235.19987Q493.11438,235.14078,493.02057,235.09064Q492.92677,235.0405,492.82851,234.9998Q492.73025,234.9591,492.62847,234.92822Q492.52669,234.89735,492.42237,234.8766Q492.31804999999997,234.85585,492.21221,234.84543Q492.10636,234.835,492,234.835Q491.78826,234.835,491.58053,234.87602Q491.37281,234.91705,491.17697,234.99754Q490.98112,235.07804,490.80459,235.19495Q490.62805,235.31186,490.47751,235.46076L487.91365,237.819521L485.71961,240.56206L484.0665953,243.31709L482.84183,246.21198L482.05535,249.358L481.8309,252.5L482.05535,255.642L482.84183,258.788L484.0665944,261.6829L485.71961,264.438L487.91365,267.1805L490.47749,269.5392Q490.62803,269.6881,490.80457,269.805Q490.98111,269.922,491.17695,270.0025Q491.3728,270.08299999999997,491.58053,270.124Q491.78826,270.165,492,270.165Q492.10636,270.165,492.21221,270.1546Q492.31804999999997,270.1441,492.42237,270.1234Q492.52669,270.1026,492.62847,270.0718Q492.73025,270.0409,492.82851,270.0002Q492.92677,269.9595,493.02057,269.9094Q493.11437,269.8592,493.20281,269.8001Q493.29124,269.741,493.37346,269.6736Q493.45568,269.60609999999997,493.53089,269.5309Q493.60609,269.4557,493.67357,269.3735Q493.74104,269.2912,493.80013,269.2028Q493.85922,269.1144,493.90936,269.0206Q493.9595,268.9268,494.0002,268.8285Q494.0409,268.7302,494.0718,268.6285Q494.1027,268.5267,494.1234,268.4224Q494.1441,268.3181,494.1546,268.2122Q494.165,268.1064,494.165,268Q494.165,267.7655,494.1148,267.5364Q494.0646,267.3073,493.96646,267.0943Q493.86835,266.8813,493.72691,266.6942Q493.58547,266.5072,493.40725,266.3547L491.08635,264.2195L489.28039,261.9621L487.93341,259.7171L486.95816,257.412L486.34468,254.958L486.1691,252.5L486.34468,250.042L486.95816,247.588L487.9334,245.28291L489.28039,243.03794L491.08635,240.78048L493.40725,238.64526ZM532.0225,235.46076L534.5864,237.819521L536.7804,240.56206L538.4334,243.3171L539.6581,246.21198L540.4447,249.358L540.6691,252.5L540.4447,255.642L539.6581,258.788L538.4334,261.6829L536.7804,264.438L534.5863,267.1805L532.0225,269.5392Q531.872,269.6881,531.6955,269.805Q531.5189,269.9219,531.3231,270.0024Q531.1272,270.0829,530.9195,270.124Q530.7117,270.165,530.5,270.165Q530.3936,270.165,530.2878,270.1546Q530.1819,270.1441,530.0776,270.1234Q529.9733,270.1026,529.8715,270.0718Q529.7697000000001,270.0409,529.6715,270.0002Q529.5732,269.9595,529.4793999999999,269.9094Q529.3856,269.8592,529.2972,269.8001Q529.2088,269.741,529.1265,269.6736Q529.0443,269.60609999999997,528.9691,269.5309Q528.8939,269.4557,528.8264,269.3735Q528.759,269.2912,528.6999,269.2028Q528.6408,269.1144,528.5906,269.0206Q528.5405,268.9268,528.4998,268.8285Q528.4591,268.7302,528.4282,268.6285Q528.3974,268.5267,528.3766,268.4224Q528.3559,268.3181,528.3454,268.2122Q528.335,268.1064,528.335,268Q528.335,267.7655,528.3851999999999,267.5364Q528.4354,267.3073,528.5335,267.0943Q528.6317,266.8813,528.7731,266.6942Q528.9146,266.5071,529.0928,266.3547L531.4136,264.2195L533.2196,261.9621L534.5666,259.7171L535.5418,257.412L536.1553,254.958L536.3309,252.5L536.1553,250.042L535.5418,247.588L534.5666,245.28291L533.2196,243.03794L531.4136,240.78048L529.0927,238.64525Q528.9145,238.49282,528.7731,238.30575Q528.6316,238.11869,528.5335,237.905681Q528.4354,237.69267,528.3851999999999,237.463593Q528.335,237.234516,528.335,237Q528.335,236.89364,528.3454,236.787793Q528.3559,236.681945,528.3766,236.57763Q528.3974,236.473314,528.4282,236.371534Q528.4591,236.269754,528.4998,236.17149Q528.5405,236.073227,528.5906,235.97943Q528.6408,235.88563,528.6999,235.79719Q528.759,235.70876,528.8264,235.62654Q528.8939,235.54432,528.9691,235.46911Q529.0443,235.39391,529.1265,235.32643Q529.2088,235.25896,529.2972,235.19987Q529.3856,235.14078,529.4793999999999,235.09064Q529.5732,235.0405,529.6715,234.9998Q529.7697000000001,234.9591,529.8715,234.92822Q529.9733,234.89735,530.0776,234.8766Q530.1819,234.85585,530.2878,234.84543Q530.3936,234.835,530.5,234.835Q530.7117,234.835,530.9195,234.87602Q531.1272,234.91705,531.323,234.99754Q531.5189,235.07803,531.6954,235.19495Q531.8719,235.31186,532.0225,235.46076Z" fill-rule="evenodd" fill="url(#master_svga_227_04052)" fill-opacity="1" style="mix-blend-mode:passthrough"/></g><g><path d="M473.6658,223.67982Q473.8531,223.52757,474.0022,223.33781Q474.1513,223.14806,474.255,222.930122Q474.3587,222.712185,474.41179999999997,222.476765Q474.465,222.241345,474.465,222Q474.465,221.89364,474.4546,221.787793Q474.4441,221.681945,474.4234,221.57763Q474.4026,221.473314,474.3718,221.371534Q474.3409,221.269754,474.3002,221.17149Q474.2595,221.073227,474.2093,220.97943Q474.1592,220.88563,474.1001,220.79719Q474.041,220.70876,473.9736,220.62654Q473.9061,220.54432,473.8309,220.46911Q473.7557,220.39391,473.6735,220.32643Q473.5912,220.25896,473.5028,220.19987Q473.4144,220.14078,473.3206,220.09064Q473.2268,220.0405,473.1285,219.9998Q473.0302,219.9591,472.9285,219.92822Q472.8267,219.89735,472.7224,219.8766Q472.618,219.85585,472.5122,219.84543Q472.4063,219.835,472.3,219.835Q472.0951,219.835,471.8938,219.87345Q471.6925,219.9119,471.502,219.98744Q471.3115,220.06297,471.1385,220.17291Q470.9656,220.28285,470.8163,220.42329L466.7971,223.94016L463.33247,227.61474L460.48486,231.517L458.1673,235.5201L456.272495,239.836L454.89243,244.1885L454.14945,248.5402L453.8309,253L454.14945,257.4598L454.89243,261.8114L456.272495,266.164L458.1673,270.4799L460.48486,274.483L463.33247,278.38530000000003L466.7971,282.0598L470.8163,285.5767Q470.9656,285.7171,471.1385,285.8271Q471.3115,285.937,471.502,286.0126Q471.6925,286.0881,471.8938,286.12649999999996Q472.0951,286.165,472.3,286.165Q472.4063,286.165,472.5122,286.1546Q472.618,286.1441,472.7224,286.1234Q472.8267,286.1027,472.9285,286.0718Q473.0302,286.04089999999997,473.1285,286.0002Q473.2268,285.9595,473.3206,285.9094Q473.4144,285.8592,473.5028,285.8001Q473.5912,285.741,473.6735,285.6736Q473.7557,285.60609999999997,473.8309,285.5309Q473.9061,285.4557,473.9736,285.3735Q474.041,285.2912,474.1001,285.2028Q474.1592,285.1144,474.2093,285.0206Q474.2595,284.9268,474.3002,284.8285Q474.3409,284.7302,474.3718,284.62850000000003Q474.4026,284.5267,474.4234,284.4224Q474.4441,284.3181,474.4546,284.2122Q474.465,284.1064,474.465,284Q474.465,283.7587,474.41179999999997,283.5232Q474.3587,283.2878,474.255,283.0699Q474.1513,282.8519,474.0022,282.6622Q473.853,282.4724,473.6658,282.3202L469.8029,278.9402L466.6675,275.61469999999997L464.11512,272.117L462.03271,268.5201L460.32748,264.636L459.10757,260.7885L458.45053,256.9403L458.1691,253L458.45053,249.0598L459.10757,245.2115L460.32748,241.364L462.03271,237.4799L464.11512,233.883L466.6675,230.38526L469.8029,227.05985L473.6658,223.67982ZM552.1837,220.42332L556.203,223.94016L559.668,227.61474L562.515,231.517L564.833,235.5201L566.728,239.836L568.108,244.1885L568.851,248.5402L569.169,253L568.851,257.4598L568.108,261.8114L566.728,266.164L564.833,270.4799L562.515,274.483L559.668,278.38530000000003L556.203,282.0598L552.1837,285.5767Q552.0345,285.7171,551.8615,285.827Q551.6886,285.937,551.4981,286.0125Q551.3076,286.0881,551.1063,286.12649999999996Q550.905,286.165,550.7,286.165Q550.5937,286.165,550.4878,286.1546Q550.3820000000001,286.1441,550.2776,286.1234Q550.1733,286.1027,550.0715,286.0718Q549.9698,286.04089999999997,549.8715,286.0002Q549.7732,285.9595,549.6794,285.9094Q549.5856,285.8592,549.4972,285.8001Q549.4088,285.741,549.3265,285.6736Q549.2443,285.60609999999997,549.1691,285.5309Q549.0939,285.4557,549.0264,285.3735Q548.9590000000001,285.2912,548.8999,285.2028Q548.8408,285.1144,548.7906,285.0206Q548.7405,284.9268,548.6998,284.8285Q548.6591,284.7302,548.6282,284.62850000000003Q548.5974,284.5267,548.5766,284.4224Q548.5559,284.3181,548.5454,284.2122Q548.535,284.1064,548.535,284Q548.535,283.7586,548.5882,283.5232Q548.6413,283.2878,548.745,283.0698Q548.8487,282.8519,548.9978,282.6621Q549.147,282.4724,549.3343,282.3201L553.1971,278.9402L556.332,275.6148L558.885,272.117L560.967,268.5201L562.673,264.6359L563.892,260.7885L564.549,256.9403L564.831,253L564.549,249.0597L563.892,245.2114L562.673,241.3641L560.967,237.4799L558.885,233.883L556.332,230.38527L553.1971,227.05984L549.3342,223.67984Q549.147,223.52759,548.9978,223.33783Q548.8487,223.14808,548.745,222.930137Q548.6413,222.712197,548.5882,222.476773Q548.535,222.241349,548.535,222Q548.535,221.89364,548.5454,221.787793Q548.5559,221.681945,548.5766,221.57763Q548.5974,221.473314,548.6282,221.371534Q548.6591,221.269754,548.6998,221.17149Q548.7405,221.073227,548.7906,220.97943Q548.8408,220.88563,548.8999,220.79719Q548.9590000000001,220.70876,549.0264,220.62654Q549.0939,220.54432,549.1691,220.46911Q549.2443,220.39391,549.3265,220.32643Q549.4088,220.25896,549.4972,220.19987Q549.5856,220.14078,549.6794,220.09064Q549.7732,220.0405,549.8715,219.9998Q549.9698,219.9591,550.0715,219.92822Q550.1733,219.89735,550.2776,219.8766Q550.3820000000001,219.85585,550.4878,219.84543Q550.5937,219.835,550.7,219.835Q550.9049,219.835,551.1062,219.87345Q551.3075,219.91191,551.498,219.98745Q551.6885,220.06299,551.8615,220.17293Q552.0344,220.28288,552.1837,220.42332Z" fill-rule="evenodd" fill="url(#master_svgb_227_04052)" fill-opacity="1" style="mix-blend-mode:passthrough"/></g><g><path d="M235,543.5L234.7,546.3L234,548.9L232.9,551.3L231.3,553.5L229.5,555.3L227.3,556.9L224.9,558L222.3,558.7L219.5,559L216.7,558.7L214.1,558L211.7,556.9L209.5,555.3L207.7,553.5L206.10001,551.3L205,548.9L204.300003,546.3L204,543.5L204.300003,540.7L205,538.1L206.10001,535.70001L207.7,533.5L209.5,531.70001L211.7,530.09998L214.1,529L216.7,528.299988L219.5,528L222.3,528.299988L224.9,529L227.3,530.09998L229.5,531.70001L231.3,533.5L232.9,535.70001L234,538.1L234.7,540.7L235,543.5Z" fill-rule="evenodd" fill="url(#master_svgc_227_04053)" fill-opacity="1" style="mix-blend-mode:passthrough"/></g></g></svg>