<svg xmlns="http://www.w3.org/2000/svg" xmlns:xlink="http://www.w3.org/1999/xlink" fill="none" version="1.1" width="1024" height="1024" viewBox="0 0 1024 1024"><defs><clipPath id="master_svg0_227_03584"><rect x="0" y="0" width="1024" height="1024" rx="0"/></clipPath><mask id="master_svg1_227_03594" style="mask-type:alpha" maskUnits="objectBoundingBox"><g><g><ellipse cx="512" cy="713" rx="444" ry="125" fill="#000000" fill-opacity="1" style="mix-blend-mode:passthrough"/></g></g></mask><linearGradient x1="0.07043590396642685" y1="0.48430168628692627" x2="0.5891685984219076" y2="0.5034980451309039" id="master_svg2_227_04057"><stop offset="0%" stop-color="#3A58DD" stop-opacity="0"/><stop offset="100%" stop-color="#4164FF" stop-opacity="0.8468640446662903"/></linearGradient><linearGradient x1="0.5479572415351868" y1="0.25482720136642456" x2="0.8925561602331071" y2="0.9580964308495525" id="master_svg3_227_04058"><stop offset="0%" stop-color="#3A58DD" stop-opacity="1"/><stop offset="65.72571396827698%" stop-color="#7192F3" stop-opacity="1"/><stop offset="100%" stop-color="#92C5FF" stop-opacity="1"/></linearGradient><linearGradient x1="-0.07698140293359756" y1="0.2921704947948456" x2="0.9826808576520043" y2="0.7450804400676172" id="master_svg4_227_04059"><stop offset="0%" stop-color="#2362FF" stop-opacity="1"/><stop offset="100%" stop-color="#CCE4FF" stop-opacity="1"/></linearGradient><linearGradient x1="8.534839501805891e-16" y1="0.4310092031955719" x2="1.0000000289944986" y2="0.5852033746506926" id="master_svg5_227_04060"><stop offset="0%" stop-color="#4665EC" stop-opacity="1"/><stop offset="60.2158784866333%" stop-color="#4C70F6" stop-opacity="1"/><stop offset="100%" stop-color="#6D8EFB" stop-opacity="1"/></linearGradient><linearGradient x1="0.021420368924736977" y1="0.31554466485977173" x2="1.034609532605335" y2="0.8184580718032506" id="master_svg6_227_04061"><stop offset="0%" stop-color="#5185FF" stop-opacity="1"/><stop offset="100%" stop-color="#89BBFF" stop-opacity="1"/></linearGradient><linearGradient x1="0.8001286387443542" y1="0.534099817276001" x2="0.38972883432402533" y2="0.7407056632998289" id="master_svg7_227_04062"><stop offset="0%" stop-color="#D0E4FF" stop-opacity="1"/><stop offset="100%" stop-color="#A6C7FE" stop-opacity="1"/></linearGradient><linearGradient x1="0.5" y1="0.09794384241104126" x2="0.5" y2="0.9309293031692505" id="master_svg8_227_04064"><stop offset="0%" stop-color="#5272E7" stop-opacity="1"/><stop offset="100%" stop-color="#8EAFFF" stop-opacity="1"/></linearGradient><linearGradient x1="0.4762559235095978" y1="0.06468437612056732" x2="0.5328068578395859" y2="1.0000000306414767" id="master_svg9_227_04065"><stop offset="0%" stop-color="#F7DF76" stop-opacity="1"/><stop offset="100%" stop-color="#EEB765" stop-opacity="1"/></linearGradient><linearGradient x1="0.47620001435279846" y1="0.06468437612056732" x2="0.4935572562225637" y2="0.9996689850293619" id="master_svga_227_04066"><stop offset="0%" stop-color="#F7DF76" stop-opacity="1"/><stop offset="100%" stop-color="#EEB765" stop-opacity="1"/></linearGradient><radialGradient cx="0" cy="0" r="1" gradientUnits="userSpaceOnUse" id="master_svgb_227_04067" gradientTransform="translate(829.2191578149796 744.375507235527) rotate(0) scale(19.656274676322937 19.656274676322937)"><stop offset="0%" stop-color="#BFD7FF" stop-opacity="1"/><stop offset="100%" stop-color="#7195FF" stop-opacity="1"/></radialGradient></defs><g clip-path="url(#master_svg0_227_03584)"><g><g></g><g><g><ellipse cx="512" cy="713" rx="444" ry="125" fill="#F1F5FD" fill-opacity="1" style="mix-blend-mode:passthrough"/></g><g mask="url(#master_svg1_227_03594)"><g><path d="M86.50002429962159,654L57.14502429962158,692.8994L68.00002429962159,731.25L372.0000242996216,725.5C462.33302429962157,695,518.6670242996215,678.6667,541.0000242996216,676.5C558.2310242996216,674.8283,607.1050242996216,666.891,578.5000242996216,648.75C572.8530242996216,645.1689,544.1870242996215,638.41888,492.5000242996216,628.5L469.2500242996216,648.75L86.50002429962159,654Z" fill-rule="evenodd" fill="url(#master_svg2_227_04057)" fill-opacity="1" style="mix-blend-mode:passthrough"/></g></g></g><g><path d="M711.0001328124999,345.51505625L783.3391328125,394.90635625C783.3391328125,430.63285625000003,802.3991328125,465.65465625,833.3391328125,486.77965625L833.3391328125,570.30965625C802.3991328125,584.91165625,783.3391328125,615.91465625,783.3391328125,651.64165625L711.0001328124999,685.77965625C680.0601328125,664.65465625,641.9401328125,660.63665625,611.0001328124999,675.23765625L538.6611328125,625.84665625C538.6611328125,590.1196562499999,519.6012328125,555.09765625,488.6611328125,533.97265625L488.6611328125,450.44265625C519.6012328125,435.84165625,538.6611328125,404.83795625,538.6611328125,369.11135625L611.0001328124999,334.97265625C641.9401328125,356.09775625,680.0601328125,360.11645625,711.0001328124999,345.51505625ZM661.5001328124999,438.42865625C622.0121328125,434.26605625,590.0001328124999,462.90265625,590.0001328124999,502.39165625C590.0001328124999,541.87965625,622.0121328125,577.26565625,661.5001328124999,581.42865625C700.9881328125,585.59165625,733.0001328124999,556.95565625,733.0001328124999,517.46665625C733.0001328124999,477.97865625,700.9881328125,442.59165625,661.5001328124999,438.42865625Z" fill-rule="evenodd" fill="url(#master_svg3_227_04058)" fill-opacity="1" style="mix-blend-mode:passthrough"/></g><g><path d="M668.0001328124999,365.51505625L740.3391328125,414.90635625C740.3391328125,450.63285625000003,759.3991328125,485.65465625,790.3391328125,506.77965625L790.3391328125,590.30965625C759.3991328125,604.91165625,740.3391328125,635.91465625,740.3391328125,671.64165625L668.0001328124999,705.77965625C637.0601328125,684.65465625,598.9401328125,680.63665625,568.0001328124999,695.23765625L495.6611328125,645.84665625C495.6611328125,610.1196562499999,476.60123281250003,575.09765625,445.6611328125,553.97265625L445.6611328125,470.44265625C476.60123281250003,455.84165625,495.6611328125,424.83795625,495.6611328125,389.11135625L568.0001328124999,354.97265625C583.0891328125,365.27525625,598.2591328125,375.22035625,614.9091328125,377.64025625C615.9341328125,377.78915625,616.9641328125,377.90955625,618.0001328124999,377.99985625C634.6521328125,379.45025625,653.0781328125,372.55735625,668.0001328124999,365.51505625ZM618.5001328124999,458.42865625C579.0121328125,454.26605625,547.0001328124999,482.90265625,547.0001328124999,522.39165625C547.0001328124999,561.87965625,579.0121328125,597.26565625,618.5001328124999,601.42865625C657.9881328125,605.59165625,690.0001328124999,576.95565625,690.0001328124999,537.46665625C690.0001328124999,497.97865625,657.9881328125,462.59165625,618.5001328124999,458.42865625Z" fill-rule="evenodd" fill="url(#master_svg4_227_04059)" fill-opacity="1" style="mix-blend-mode:passthrough"/></g><g><path d="M740.25,414.5L783.25,395L711,345.5L668,365.5L740.25,414.5Z" fill="url(#master_svg5_227_04060)" fill-opacity="1" style="mix-blend-mode:passthrough"/></g><g><g><path d="M480,510.3530636777344C492.15,508.2993446777344,513.75,518.8496846777343,513.75,530.9999946777343L502,549.6344946777343L538,543.4999946777343C549.598,541.5395946777344,571,551.9019946777344,571,563.4999946777343L559,664.9997946777344C559,676.5977946777343,549.598,687.5887946777343,538,689.5497946777343L378.25,725.4997946777344C366.652,727.4607946777344,348.75,720.4997946777344,347,700.8337946777344L347,596.8335946777344C347,585.2355946777344,356.40202,574.2443946777344,368,572.2840946777344L405,566.0300946777344L405,545.0300946777344C405,532.8797946777344,414.8497,521.3651946777344,427,519.3114846777344L480,510.3530636777344ZM480,527.3530946777344L427,536.3114946777343C424.2386,536.7781946777344,422,539.3951946777344,422,542.1565946777343L422,563.1565946777343L485,552.5078946777344L485,531.5078946777344C485,528.7464946777344,482.76099999999997,526.8862946777343,480,527.3530946777344Z" fill="url(#master_svg6_227_04061)" fill-opacity="1" style="mix-blend-mode:passthrough"/></g><g><path d="M493,517.3532892089844C505.15,515.2995692089844,515,523.4844392089843,515,535.6346892089844L515,556.6346892089844L551,550.5497892089844C562.598,548.5893892089844,572,556.4021892089844,572,568.0001892089844L572,671.9996892089844C572,683.5976892089843,562.598,694.5896892089844,551,696.5496892089843L381,725.2846892089844C369.40202,727.2446892089844,360,719.4316892089844,360,707.8336892089844L360,603.8338892089844C360,592.2358892089844,369.40202,581.2446892089844,381,579.2842892089843L418,573.0302892089844L418,552.0302892089844C418,539.8799892089844,427.8497,528.3653892089844,440,526.3117092089843L493,517.3532892089844ZM493,534.3532892089844L440,543.3116892089844C437.2386,543.7784892089844,435,546.3953892089844,435,549.1568892089844L435,570.1568892089844L498,559.5081892089844L498,538.5081892089844C498,535.7466892089843,495.76099999999997,533.8864892089844,493,534.3532892089844Z" fill="url(#master_svg7_227_04062)" fill-opacity="1" style="mix-blend-mode:passthrough"/></g><g><path d="M476.0001890625,589.0000915527344C480.3248890625,589.0000915527344,484.4663890625,589.8180695527344,488.2901890625,591.3137715527344L475.6317890625,608.5856915527344L475.5793890625,608.6576915527344C472.0975890625,613.4918915527344,473.1937890625,620.2333915527344,478.0279890625,623.7152915527344C482.9139890625,627.2344915527344,489.72358906249997,626.1559915527343,493.2830890625,621.2991915527343L505.0873890625,605.1926915527343C508.8216890625,610.9983915527343,511.0001890625,617.9839915527343,511.0001890625,625.5000915527344C511.0001890625,645.6584915527344,495.3301890625,662.0000915527344,476.0001890625,662.0000915527344C473.8176890625,662.0000915527344,471.6817890625,661.7917915527344,469.6098890625,661.3930915527344L446.9114890625,692.6350915527344C442.3531890625,698.9080915527344,433.5719890625,700.2990915527344,427.2979990625,695.7410915527344C421.0240400625,691.1830915527344,419.6332290625,682.4014915527343,424.1915190625,676.1275915527344L446.5906890625,645.2972915527344C443.0535890625,639.5943915527344,441.0001890625,632.7972915527344,441.0001890625,625.5000915527344C441.0001890625,605.3416915527343,456.6701890625,589.0000915527344,476.0001890625,589.0000915527344Z" fill-rule="evenodd" fill="#92ADE5" fill-opacity="1" style="mix-blend-mode:passthrough"/></g></g><g><path d="M790.25,506.75L833.25,486.75L833.25,570.25L790.25,590.5L790.25,506.75Z" fill="url(#master_svg8_227_04064)" fill-opacity="1" style="mix-blend-mode:passthrough"/></g><g><path d="M370.5593,338L372,369.004L389,371.6364L378.6271,412L372.8644,382.166L355,379.5336L370.5593,338Z" fill="url(#master_svg9_227_04065)" fill-opacity="1" style="mix-blend-mode:passthrough"/></g><g transform="matrix(0.8571673035621643,-0.5150380730628967,0.5150380730628967,0.8571673035621643,-152.38603394140227,223.50120012486514)"><path d="M337.2920320800781,386.4937438964844L338.2666320800781,407.4423438964844L349.7666320800781,409.2210438964844L342.7497320800781,436.4937438964844L338.8513320800781,416.3356438964844L326.7666320800781,414.55694389648437L337.2920320800781,386.4937438964844Z" fill="url(#master_svga_227_04066)" fill-opacity="1" style="mix-blend-mode:passthrough"/></g><g><ellipse cx="833.5" cy="741.5" rx="15.5" ry="15.5" fill="url(#master_svgb_227_04067)" fill-opacity="1" style="mix-blend-mode:passthrough"/></g></g></g></svg>