<svg xmlns="http://www.w3.org/2000/svg" xmlns:xlink="http://www.w3.org/1999/xlink" fill="none" version="1.1" width="24" height="24" viewBox="0 0 24 24"><defs><mask id="master_svg0_50_17607" style="mask-type:alpha" maskUnits="objectBoundingBox"><g><rect x="0" y="0" width="24" height="24" rx="4" fill="#FFFFFF" fill-opacity="1"/></g></mask></defs><g><g><rect x="0" y="0" width="24" height="24" rx="4" fill="#166CFF" fill-opacity="1"/></g><g mask="url(#master_svg0_50_17607)"><g><path d="M16.376527688980104,14.39320537109375C16.376527688980104,14.39320537109375,16.912227688980103,13.40320537109375,17.517827688980102,11.57470537109375C18.1234276889801,9.67633537109375,18.205027688980103,8.686385371093749,18.205027688980103,8.686385371093749C18.205027688980103,8.686385371093749,13.418227688980103,8.60485537109375,13.418227688980103,8.60485537109375C13.418227688980103,8.60485537109375,13.418227688980103,6.77635537109375,13.418227688980103,6.77635537109375C13.418227688980103,6.77635537109375,19.1949276889801,6.69483537109375,19.1949276889801,6.69483537109375C19.1949276889801,6.69483537109375,19.1949276889801,5.413715371093749,19.1949276889801,5.413715371093749C19.1949276889801,5.413715371093749,13.418227688980103,5.413715371093749,13.418227688980103,5.413715371093749C13.418227688980103,5.413715371093749,13.418227688980103,2.45550537109375,13.418227688980103,2.45550537109375C13.418227688980103,2.45550537109375,10.599817688980103,2.45550537109375,10.599817688980103,2.45550537109375C10.599817688980103,2.45550537109375,10.599817688980103,5.425365371093751,10.599817688980103,5.425365371093751C10.599817688980103,5.425365371093751,5.195847688980102,5.425365371093751,5.195847688980102,5.425365371093751C5.195847688980102,5.425365371093751,5.195847688980102,6.71812537109375,5.195847688980102,6.71812537109375C5.195847688980102,6.71812537109375,10.599817688980103,6.63659537109375,10.599817688980103,6.63659537109375C10.599817688980103,6.63659537109375,10.599817688980103,8.61650537109375,10.599817688980103,8.61650537109375C10.599817688980103,8.61650537109375,6.267327688980103,8.61650537109375,6.267327688980103,8.61650537109375C6.267327688980103,8.61650537109375,6.267327688980103,9.67633537109375,6.267327688980103,9.67633537109375C6.267327688980103,9.67633537109375,15.246727688980103,9.67633537109375,15.246727688980103,9.67633537109375C15.246727688980103,9.67633537109375,15.165227688980103,10.51488537109375,14.792527688980103,11.57470537109375C14.408227688980103,12.63450537109375,14.105427688980102,13.55460537109375,14.105427688980102,13.55460537109375C14.105427688980102,13.55460537109375,9.912677688980104,11.88916537109375,7.711487688980102,11.88916537109375C5.498657688980103,11.88916537109375,2.7733726889801025,12.87910537109375,2.5404425889801026,15.76740537109375C2.3075126889801023,18.65580537109375,3.7633276889801026,20.25130537109375,5.964517688980102,20.78710537109375C8.177347688980102,21.32280537109375,10.064077688980102,20.78710537109375,11.741177688980102,19.79710537109375C13.488127688980102,18.88870537109375,15.165227688980103,16.675905371093748,15.165227688980103,16.675905371093748C15.165227688980103,16.675905371093748,24.063127688980103,21.54410537109375,24.063127688980103,21.54410537109375C24.063127688980103,21.54410537109375,24.5989276889801,20.63570537109375,25.0531276889801,19.71560537109375C25.5073276889801,18.80720537109375,25.810127688980103,17.81720537109375,25.810127688980103,17.81720537109375C25.810127688980103,17.81720537109375,16.376527688980104,14.39320537109375,16.376527688980104,14.39320537109375C16.376527688980104,14.39320537109375,16.376527688980104,14.39320537109375,16.376527688980104,14.39320537109375ZM7.175747688980103,19.26140537109375C4.054487688980102,19.26140537109375,3.3789906889801027,17.51440537109375,3.3789906889801027,16.29150537109375C3.3789906889801027,15.06870537109375,4.066137688980103,13.70600537109375,6.733177688980103,13.47310537109375C9.400227688980102,13.24020537109375,13.045627688980103,15.60440537109375,13.045627688980103,15.60440537109375C13.045627688980103,15.60440537109375,10.366887688980103,19.26140537109375,7.175747688980103,19.26140537109375C7.175747688980103,19.26140537109375,7.175747688980103,19.26140537109375,7.175747688980103,19.26140537109375Z" fill="#FFFFFF" fill-opacity="1"/></g></g></g></svg>