<svg xmlns="http://www.w3.org/2000/svg" xmlns:xlink="http://www.w3.org/1999/xlink" fill="none" version="1.1" width="24" height="24" viewBox="0 0 24 24"><g><path d="M21,0C21,0,3,0,3,0C1.34976,0,0,1.34976,0,3C0,3,0,21,0,21C0,22.6502,1.34976,24,3,24C3,24,21,24,21,24C22.6502,24,24,22.6502,24,21C24,21,24,3,24,3C24,1.34976,22.6502,0,21,0C21,0,21,0,21,0ZM12,18.4502C10.9502,18.4502,10.0498,18.3,9.15024,18C8.55024,18.3,7.65024,19.0498,7.35024,19.2C6.75024,19.5,6.9,18.9,6.9,18.9C6.9,18.9,7.2,17.1,7.2,17.1C5.4,15.9,4.34976,13.9502,4.34976,11.8502C4.34976,8.1,7.8,5.1,12,5.1C14.5502,5.1,16.9498,6.3,18.3,7.95024C18.3,7.95024,10.8,11.4,10.8,11.4C10.8,11.4,10.2,11.7,9.6,11.2502C9.6,11.2502,8.4,10.3502,8.4,10.3502C8.4,10.3502,7.5,9.6,7.94976,10.8C7.94976,10.8,9.14976,13.5,9.14976,13.5C9.14976,13.5,9.3,14.2498,10.2,13.8C10.9502,13.5,16.5,10.0502,18.9,8.7C19.3502,9.6,19.6498,10.6502,19.6498,11.7C19.6498,15.3,16.2,18.4502,12,18.4502C12,18.4502,12,18.4502,12,18.4502Z" fill="#01C800" fill-opacity="1"/></g></svg>