<svg xmlns="http://www.w3.org/2000/svg" xmlns:xlink="http://www.w3.org/1999/xlink" fill="none"
    version="1.1" width="525" height="525" viewBox="0 0 525 525">
    <defs>
        <clipPath id="master_svg0_230_06922">
            <rect x="0" y="0" width="525" height="525" rx="0" />
        </clipPath>
        <radialGradient cx="0" cy="0" r="1" gradientUnits="userSpaceOnUse"
            id="master_svg1_230_06905"
            gradientTransform="translate(262.50025939941406 262.50001525878906) rotate(90) scale(170.19850158691406 170.19850158691406)">
            <stop offset="0%" stop-color="#3553FE" stop-opacity="0" />
            <stop offset="0.42022704146802425%" stop-color="#3553FE"
                stop-opacity="0.24802985787391663" />
            <stop offset="27.380895614624023%" stop-color="#3553FE" stop-opacity="1" />
            <stop offset="100%" stop-color="#3553FE" stop-opacity="1" />
        </radialGradient>
    </defs>
    <g clip-path="url(#master_svg0_230_06922)">
        <g>
            <path
                d="M92.3017578125,291.518513671875L92.3017578125,207.638513671875Q92.3017578125,184.19841367187502,101.3811478125,162.732313671875Q110.1385578125,142.027413671875,126.08315781249999,126.08291367187499Q142.0276578125,110.138313671875,162.7325578125,101.380903671875Q184.19865781250002,92.301513671875,207.6387578125,92.301513671875L291.5187578125,92.301513671875C293.7277578125,92.301513671875,295.5187578125,94.092373671875,295.5187578125,96.301513671875L295.5187578125,164.549213671875C295.5187578125,166.75841367187502,293.7277578125,168.549213671875,291.5187578125,168.549213671875L207.6387578125,168.549213671875Q191.4473578125,168.549213671875,179.9983578125,179.998113671875Q168.5494578125,191.447113671875,168.5494578125,207.638513671875L168.5494578125,291.518513671875C168.5494578125,293.727513671875,166.75865781250002,295.518513671875,164.5494578125,295.518513671875L96.3017578125,295.518513671875C94.0926178125,295.518513671875,92.3017578125,293.727513671875,92.3017578125,291.518513671875M233.4817578125,356.450513671875L317.3617578125,356.450513671875Q333.5527578125,356.450513671875,345.0017578125,345.001513671875Q356.4507578125,333.552513671875,356.4507578125,317.361513671875L356.4507578125,233.481513671875C356.4507578125,231.272513671875,358.2417578125,229.481513671875,360.4507578125,229.481513671875L428.6987578125,229.481513671875C430.9077578125,229.481513671875,432.6987578125,231.272513671875,432.6987578125,233.481513671875L432.6987578125,317.361513671875Q432.6987578125,340.801513671875,423.6197578125,362.267513671875Q414.8617578125,382.972513671875,398.9177578125,398.917513671875Q382.9727578125,414.861513671875,362.2677578125,423.619513671875Q340.8017578125,432.698513671875,317.3617578125,432.698513671875L233.4817578125,432.698513671875C231.2727578125,432.698513671875,229.4817578125,430.907513671875,229.4817578125,428.698513671875L229.4817578125,360.450513671875C229.4817578125,358.241513671875,231.2727578125,356.450513671875,233.4817578125,356.450513671875"
                fill-rule="evenodd" fill="url(#master_svg1_230_06905)" fill-opacity="1" />
        </g>
        <g>
            <ellipse cx="262.50038146972656" cy="262.50001525878906" rx="37.95008850097656"
                ry="37.95008850097656" fill="#3553FE" fill-opacity="1" />
        </g>
    </g>
</svg>
