<svg xmlns="http://www.w3.org/2000/svg" xmlns:xlink="http://www.w3.org/1999/xlink" fill="none" version="1.1" width="78" height="78" viewBox="0 0 78 78"><defs><filter id="master_svg0_13_11178" filterUnits="objectBoundingBox" color-interpolation-filters="sRGB" x="-0.5714285714285714" y="-0.5714285714285714" width="2.142857142857143" height="2.142857142857143"><feFlood flood-opacity="0" result="BackgroundImageFix"/><feBlend mode="normal" in="SourceGraphic" in2="BackgroundImageFix" result="shape"/><feGaussianBlur stdDeviation="6" result="effect1_foregroundBlur"/></filter><linearGradient x1="1" y1="0.5" x2="0" y2="0.5" id="master_svg1_13_10879"><stop offset="0%" stop-color="#01D1FF" stop-opacity="1"/><stop offset="100%" stop-color="#005CFF" stop-opacity="1"/></linearGradient><linearGradient x1="0" y1="0.5" x2="1" y2="0.5" id="master_svg2_13_10890"><stop offset="0%" stop-color="#01D1FF" stop-opacity="1"/><stop offset="100%" stop-color="#005CFF" stop-opacity="1"/></linearGradient><linearGradient x1="0" y1="0.5" x2="1" y2="0.5" id="master_svg3_13_10902"><stop offset="0%" stop-color="#ABEEFF" stop-opacity="1"/><stop offset="100%" stop-color="#65E2FF" stop-opacity="1"/></linearGradient></defs><g><g><g style="opacity:0.20000000298023224;" filter="url(#master_svg0_13_11178)"><ellipse cx="39" cy="39" rx="21" ry="21" fill="#007BFF" fill-opacity="1"/></g><g transform="matrix(0.7071067690849304,-0.7071067690849304,0.7071067690849304,0.7071067690849304,-23.31380395488668,22.039715763785352)"><path d="M14.9473876953125,39.162109375L18.4980576953125,46.263459375C20.750277695312498,50.767909375,20.750277695312498,56.069809375,18.4980576953125,60.574309375L14.9473876953125,67.675609375L22.0487376953125,64.125009375C26.553187695312502,61.872709375,31.8550876953125,61.872709375,36.3595876953125,64.125009375L43.4608876953125,67.675609375L39.910287695312505,60.574309375C37.6579876953125,56.069809375,37.6579876953125,50.767909375,39.910287695312505,46.263459375L43.4608876953125,39.162109375L36.3595876953125,42.712779375C31.8550876953125,44.964999375,26.553187695312502,44.964999375,22.0487376953125,42.712779375L14.9473876953125,39.162109375Z" fill="url(#master_svg1_13_10879)" fill-opacity="1"/></g><g transform="matrix(0.7071067690849304,-0.7071067690849304,0.7071067690849304,0.7071067690849304,-16.382057758848532,38.83888358458353)"><path d="M38.691650390625,59.7579359375L42.936550390625,57.635535937499995C46.796460390625,55.7055359375,51.272350390625,55.416635937500004,55.348350390625,56.834435937500004L56.856150390625004,57.358835937500004L56.331750390625004,55.8510359375C54.913950390625004,51.7750359375,55.202850390625,47.2991459375,57.132850390624995,43.4392359375L59.255250390625,39.1943359375L55.010850390624995,41.3165359375C51.150650390625,43.2466359375,46.674430390625,43.5354259375,42.598210390625,42.1173359375L41.089920390625,41.5926059375L41.614650390625,43.1008959375C43.032740390625,47.1771159375,42.743950390625,51.6533359375,40.813850390625,55.513535937499995L38.691650390625,59.7579359375Z" fill="url(#master_svg2_13_10890)" fill-opacity="1"/></g><g><path d="M46.70961,36.129037988625C45.70955,36.992566390625,44.60035,37.732810390625,43.40222,38.326260390625L42.0000913143,39.020750390625L43.40222,39.715240390625C44.58016,40.298690390625,45.67213,41.024030390625,46.65895,41.868910390625004C46.96589,41.741680390625,47.27772,41.623900390624996,47.594120000000004,41.515920390625L55.0001,38.988530390625L47.594120000000004,36.461126390625C47.29511,36.359084390625,47.00018,36.248292390625,46.70961,36.129037988625Z" fill-rule="evenodd" fill="url(#master_svg3_13_10902)" fill-opacity="1"/></g></g></g></svg>