<svg xmlns="http://www.w3.org/2000/svg" width="167.274" height="24.192" viewBox="0 0 167.274 24.192">
  <g id="组_15195" data-name="组 15195" transform="translate(-690 -330.674)">
    <g id="组_15193" data-name="组 15193" transform="translate(690 330.674)">
      <g id="组_13976" data-name="组 13976" transform="translate(0 0)">
        <g id="组_13962" data-name="组 13962">
          <path id="路径_23963" data-name="路径 23963" d="M-2501.6,1820.044l-1.159,3.227h-8.827a.388.388,0,0,0-.4.373v.029a3.147,3.147,0,0,0,1.09,1.988.612.612,0,0,0,.1.07,5.859,5.859,0,0,0,3.25.687h5.561a.383.383,0,0,1,.4.371.388.388,0,0,1-.019.136l-1.159,3.232h-5.344a13.7,13.7,0,0,1-3.55-.376,8.074,8.074,0,0,1-2.572-1.238,8.567,8.567,0,0,1-3.343-7.36,8.986,8.986,0,0,1,1.764-5.529,6.74,6.74,0,0,1,2.893-2.292,12.037,12.037,0,0,1,4.426-.683h6.5a.384.384,0,0,1,.4.372.367.367,0,0,1-.019.135l-1.159,3.228h-5.339a4.736,4.736,0,0,0-2.817.622.6.6,0,0,0-.124.1,3.528,3.528,0,0,0-.939,2,.377.377,0,0,0,.35.4.228.228,0,0,0,.045,0h9.622a.385.385,0,0,1,.393.374A.384.384,0,0,1-2501.6,1820.044Z" transform="translate(2565.871 -1805.971)" fill="#5433ff"/>
          <g id="组_13929" data-name="组 13929" transform="translate(16.091 0.002)">
            <path id="路径_23963-2" data-name="路径 23963-2" d="M-2546.075,1813.362h4.513a.4.4,0,0,1,.427.377v16.675a.4.4,0,0,1-.42.385h-4.52a.4.4,0,0,1-.426-.378v-16.677a.4.4,0,0,1,.42-.384Zm-.426-2.385v-3.936a.4.4,0,0,1,.419-.385h4.521a.4.4,0,0,1,.427.378v3.943a.4.4,0,0,1-.42.385h-4.52a.4.4,0,0,1-.426-.378v-.008Z" transform="translate(2546.501 -1806.655)" fill="#5433ff"/>
          </g>
          <g id="组_13954" data-name="组 13954" transform="translate(26.818 0.004)">
            <path id="路径_23964" data-name="路径 23964" d="M-2530.924,1819.535l6.006-6.856h5.741a.4.4,0,0,1,.408.4.4.4,0,0,1-.1.273l-7.425,7.764,7.123,8.351a.4.4,0,0,1-.063.565.412.412,0,0,1-.257.088h-5.81l-5.69-6.994A2.727,2.727,0,0,1-2530.924,1819.535Z" transform="translate(2537.46 -1805.975)" fill="#5433ff"/>
            <path id="路径_23963-3" data-name="路径 23963-3" d="M-2531.833,1807.053c-.08,12.853.153,16.749.011,23.36a.4.4,0,0,1-.4.387h-4.24a.391.391,0,0,1-.4-.383v-23.375a.392.392,0,0,1,.4-.384h4.232A.4.4,0,0,1-2531.833,1807.053Z" transform="translate(2536.867 -1806.658)" fill="#5433ff"/>
          </g>
          <path id="路径_23963-4" data-name="路径 23963-4" d="M-2560.541,1806.654h4.5a.39.39,0,0,1,.4.377v13.188q.114,2.57.227,3.4a2.734,2.734,0,0,0,1.652,2.263,13.766,13.766,0,0,0,4.882.6h-.257v4.306h-.306a27.573,27.573,0,0,1-5.821-.435,7.065,7.065,0,0,1-5.259-5.065,21.6,21.6,0,0,1-.413-5.064v-13.18A.4.4,0,0,1-2560.541,1806.654Z" transform="translate(2560.953 -1806.653)" fill="#5433ff"/>
        </g>
      </g>
    </g>
    <path id="减去_1" data-name="减去 1" d="M87.016,23.837H82.227V6.433h9.22a12.521,12.521,0,0,1,3.162.3,5.031,5.031,0,0,1,1.984,1.09c1.209,1.114,1.822,2.893,1.822,5.289V23.835H93.627V12.579a2.563,2.563,0,0,0-.572-1.858,2.618,2.618,0,0,0-1.894-.571H87.016V23.836Zm-28.946,0H53.281V10.149H48.135V23.836H43.346V6.433H60.929a14.2,14.2,0,0,1,3.645.357A4.655,4.655,0,0,1,66.682,8.04a6.747,6.747,0,0,1,1.572,4.717V23.835H63.465V13.508a9.707,9.707,0,0,0-.107-1.752,1.789,1.789,0,0,0-.5-.893,3.167,3.167,0,0,0-2.251-.715H58.07V23.836Zm19.44,0H72.722V6.433h4.788v17.4Zm-38.844,0H30.446a13.867,13.867,0,0,1-3.787-.393,7.584,7.584,0,0,1-4.539-3.788,9.615,9.615,0,0,1-1.036-4.646,8.5,8.5,0,0,1,3-6.932A8.072,8.072,0,0,1,29.41,6.433h2.219v3.717H30.446a4.118,4.118,0,0,0-3.466,1.536,5.156,5.156,0,0,0-1.037,3.324,4.994,4.994,0,0,0,1.716,4.253,4.632,4.632,0,0,0,2.786.858h3.467V11.33h.022V5.569h-.022V0h4.753V23.835Zm-20.905,0H7.682a29.054,29.054,0,0,1-3.752-.161,4.716,4.716,0,0,1-1.822-.662A4.889,4.889,0,0,1,0,18.69a5.919,5.919,0,0,1,.839-3.128,4.293,4.293,0,0,1,2.234-1.876,13.466,13.466,0,0,1,4.038-.428h5.861a3.235,3.235,0,0,0-.733-2.466,4.663,4.663,0,0,0-2.912-.643H1.251V6.433H9.327c1.473,0,2.455.029,3,.089a9.734,9.734,0,0,1,1.68.339,5.3,5.3,0,0,1,2.921,2.546,9.269,9.269,0,0,1,.831,4.637v9.79ZM6.646,16.974a1.9,1.9,0,0,0-1.3.429,1.5,1.5,0,0,0-.482,1.179,1.274,1.274,0,0,0,.59,1.179,4.155,4.155,0,0,0,2.019.358h5.5V16.974H6.646ZM77.509,4.646H72.722V0h4.788V4.645Z" transform="translate(758.859 331.03)" fill="#5433ff"/>
  </g>
</svg>
