<?xml version="1.0" standalone="no"?><!DOCTYPE svg PUBLIC "-//W3C//DTD SVG 1.1//EN" "http://www.w3.org/Graphics/SVG/1.1/DTD/svg11.dtd"><svg t="1733102931219" class="icon" viewBox="0 0 1024 1024" version="1.1" xmlns="http://www.w3.org/2000/svg" p-id="7122" xmlns:xlink="http://www.w3.org/1999/xlink" width="200" height="200"><path d="M608 320a160 160 0 0 1 104 281.6A223.84 223.84 0 0 1 832 800h-64a160 160 0 0 0-320 0h-64a224 224 0 0 1 120-198.432A160 160 0 0 1 608 320z m-160-128a160.032 160.032 0 0 1 147.52 97.92 206.72 206.72 0 0 0-61.888 18.688 96 96 0 1 0-111.2 135.936 207.584 207.584 0 0 0-5.568 70.496A160 160 0 0 0 288 672H224a224 224 0 0 1 120-198.432A160 160 0 0 1 448 192z m160 192a96 96 0 1 0 0 192 96 96 0 0 0 0-192z" p-id="7123"></path></svg>