<?xml version="1.0" standalone="no"?><!DOCTYPE svg PUBLIC "-//W3C//DTD SVG 1.1//EN" "http://www.w3.org/Graphics/SVG/1.1/DTD/svg11.dtd"><svg t="1733102786681" class="icon" viewBox="0 0 1024 1024" version="1.1" xmlns="http://www.w3.org/2000/svg" p-id="5143" xmlns:xlink="http://www.w3.org/1999/xlink" width="200" height="200"><path d="M305.27 883.74c-18.69 0-33.85-15.15-33.85-33.85V174.11c0-18.69 15.15-33.85 33.85-33.85 18.69 0 33.85 15.15 33.85 33.85v675.78c0 18.69-15.16 33.85-33.85 33.85zM718.75 883.74c-18.69 0-33.85-15.15-33.85-33.85V174.11c0-18.69 15.15-33.85 33.85-33.85 18.7 0 33.85 15.15 33.85 33.85v675.78c0 18.69-15.15 33.85-33.85 33.85zM98.52 693.96c-18.69 0-33.85-15.15-33.85-33.85V363.89c0-18.69 15.15-33.85 33.85-33.85s33.85 15.15 33.85 33.85v296.22c0 18.69-15.16 33.85-33.85 33.85zM512 693.96c-18.69 0-33.85-15.15-33.85-33.85V363.89c0-18.69 15.15-33.85 33.85-33.85s33.85 15.15 33.85 33.85v296.22c0 18.69-15.16 33.85-33.85 33.85zM925.48 693.96c-18.69 0-33.85-15.15-33.85-33.85V363.89c0-18.69 15.15-33.85 33.85-33.85s33.85 15.15 33.85 33.85v296.22c0 18.69-15.15 33.85-33.85 33.85z" fill="#7F8693" p-id="5144"></path></svg>